M48
; DRILL file {KiCad 5.1.6-c6e7f7d~87~ubuntu18.04.1} date Mon Aug 10 15:18:36 2020
; FORMAT={-:-/ absolute / inch / decimal}
; #@! TF.CreationDate,2020-08-10T15:18:36+02:00
; #@! TF.GenerationSoftware,Kicad,Pcbnew,5.1.6-c6e7f7d~87~ubuntu18.04.1
FMAT,2
INCH
T1C0.0276
T2C0.0394
T3C0.0400
T4C0.1200
%
G90
G05
T1
X0.8Y0.9
X1.1Y0.8
X1.4Y1.0
X0.8Y1.1
X1.1Y1.1
X1.4Y1.2
X1.7Y1.2
X1.4Y0.8
X1.7Y0.8
X1.4Y1.1
X1.7Y1.1
X1.4Y0.9
X1.7Y0.9
X1.1Y0.9
X0.8Y1.2
X1.1Y1.2
X0.8Y1.0
X1.1Y1.0
X0.8Y1.3
X1.1Y1.3
X0.8Y0.8
X1.4Y1.3
X1.7Y1.3
X1.7Y1.0
T2
X0.45Y1.3
X0.45Y1.2
X0.45Y1.1
X0.45Y1.0
X0.45Y0.9
X0.45Y0.8
X0.55Y1.3
X0.55Y1.2
X0.55Y1.1
X0.55Y1.0
X0.55Y0.9
X0.55Y0.8
T3
X1.1Y0.1
X1.2Y0.1
X1.3Y0.1
X1.4Y0.1
X1.5Y0.1
X1.6Y0.1
X1.7Y0.1
X1.8Y0.1
X0.74Y2.0
X0.84Y2.0
X0.94Y2.0
X1.04Y2.0
X1.14Y2.0
X1.24Y2.0
X1.34Y2.0
X1.44Y2.0
X1.54Y2.0
X1.64Y2.0
X1.8Y2.0
X1.9Y2.0
X2.0Y2.0
X2.1Y2.0
X2.2Y2.0
X2.3Y2.0
X2.4Y2.0
X2.5Y2.0
X2.0Y0.1
X2.1Y0.1
X2.2Y0.1
X2.3Y0.1
X2.4Y0.1
X2.5Y0.1
T4
X2.6Y0.3
X0.55Y0.1
X2.6Y1.4
X0.6Y2.0
T0
M30
