%TF.GenerationSoftware,KiCad,Pcbnew,5.1.6-c6e7f7d~87~ubuntu18.04.1*%
%TF.CreationDate,2020-08-09T15:00:25+02:00*%
%TF.ProjectId,uno-analog-input,756e6f2d-616e-4616-9c6f-672d696e7075,rev?*%
%TF.SameCoordinates,PX69db1f0PY7882d48*%
%TF.FileFunction,Legend,Top*%
%TF.FilePolarity,Positive*%
%FSLAX46Y46*%
G04 Gerber Fmt 4.6, Leading zero omitted, Abs format (unit mm)*
G04 Created by KiCad (PCBNEW 5.1.6-c6e7f7d~87~ubuntu18.04.1) date 2020-08-09 15:00:25*
%MOMM*%
%LPD*%
G01*
G04 APERTURE LIST*
%ADD10C,0.150000*%
%ADD11C,0.120000*%
%ADD12C,0.010000*%
%ADD13O,1.727200X2.032000*%
%ADD14C,4.064000*%
%ADD15C,1.600000*%
%ADD16R,1.700000X1.700000*%
%ADD17O,1.700000X1.700000*%
%ADD18O,1.400000X1.400000*%
%ADD19C,1.400000*%
G04 APERTURE END LIST*
D10*
X6548571Y32770000D02*
X7262857Y32770000D01*
X6405714Y32341429D02*
X6905714Y33841429D01*
X7405714Y32341429D01*
X8620000Y33841429D02*
X7905714Y33841429D01*
X7834285Y33127143D01*
X7905714Y33198572D01*
X8048571Y33270000D01*
X8405714Y33270000D01*
X8548571Y33198572D01*
X8620000Y33127143D01*
X8691428Y32984286D01*
X8691428Y32627143D01*
X8620000Y32484286D01*
X8548571Y32412858D01*
X8405714Y32341429D01*
X8048571Y32341429D01*
X7905714Y32412858D01*
X7834285Y32484286D01*
X6548571Y30230000D02*
X7262857Y30230000D01*
X6405714Y29801429D02*
X6905714Y31301429D01*
X7405714Y29801429D01*
X8548571Y30801429D02*
X8548571Y29801429D01*
X8191428Y31372858D02*
X7834285Y30301429D01*
X8762857Y30301429D01*
X6548571Y27690000D02*
X7262857Y27690000D01*
X6405714Y27261429D02*
X6905714Y28761429D01*
X7405714Y27261429D01*
X7762857Y28761429D02*
X8691428Y28761429D01*
X8191428Y28190000D01*
X8405714Y28190000D01*
X8548571Y28118572D01*
X8620000Y28047143D01*
X8691428Y27904286D01*
X8691428Y27547143D01*
X8620000Y27404286D01*
X8548571Y27332858D01*
X8405714Y27261429D01*
X7977142Y27261429D01*
X7834285Y27332858D01*
X7762857Y27404286D01*
X6548571Y25150000D02*
X7262857Y25150000D01*
X6405714Y24721429D02*
X6905714Y26221429D01*
X7405714Y24721429D01*
X7834285Y26078572D02*
X7905714Y26150000D01*
X8048571Y26221429D01*
X8405714Y26221429D01*
X8548571Y26150000D01*
X8620000Y26078572D01*
X8691428Y25935715D01*
X8691428Y25792858D01*
X8620000Y25578572D01*
X7762857Y24721429D01*
X8691428Y24721429D01*
X6548571Y22610000D02*
X7262857Y22610000D01*
X6405714Y22181429D02*
X6905714Y23681429D01*
X7405714Y22181429D01*
X8691428Y22181429D02*
X7834285Y22181429D01*
X8262857Y22181429D02*
X8262857Y23681429D01*
X8120000Y23467143D01*
X7977142Y23324286D01*
X7834285Y23252858D01*
X6548571Y20070000D02*
X7262857Y20070000D01*
X6405714Y19641429D02*
X6905714Y21141429D01*
X7405714Y19641429D01*
X8191428Y21141429D02*
X8334285Y21141429D01*
X8477142Y21070000D01*
X8548571Y20998572D01*
X8620000Y20855715D01*
X8691428Y20570000D01*
X8691428Y20212858D01*
X8620000Y19927143D01*
X8548571Y19784286D01*
X8477142Y19712858D01*
X8334285Y19641429D01*
X8191428Y19641429D01*
X8048571Y19712858D01*
X7977142Y19784286D01*
X7905714Y19927143D01*
X7834285Y20212858D01*
X7834285Y20570000D01*
X7905714Y20855715D01*
X7977142Y20998572D01*
X8048571Y21070000D01*
X8191428Y21141429D01*
X28392380Y5365715D02*
X28392380Y4794286D01*
X28392380Y5080000D02*
X27392380Y5080000D01*
X27535238Y4984762D01*
X27630476Y4889524D01*
X27678095Y4794286D01*
%TO.C,P1*%
X29210000Y1270000D02*
X46990000Y1270000D01*
X46990000Y1270000D02*
X46990000Y3810000D01*
X46990000Y3810000D02*
X29210000Y3810000D01*
X26390000Y990000D02*
X27940000Y990000D01*
X29210000Y1270000D02*
X29210000Y3810000D01*
X27940000Y4090000D02*
X26390000Y4090000D01*
X26390000Y4090000D02*
X26390000Y990000D01*
%TO.C,P2*%
X52070000Y1270000D02*
X64770000Y1270000D01*
X64770000Y1270000D02*
X64770000Y3810000D01*
X64770000Y3810000D02*
X52070000Y3810000D01*
X49250000Y990000D02*
X50800000Y990000D01*
X52070000Y1270000D02*
X52070000Y3810000D01*
X50800000Y4090000D02*
X49250000Y4090000D01*
X49250000Y4090000D02*
X49250000Y990000D01*
%TO.C,P3*%
X20066000Y49530000D02*
X42926000Y49530000D01*
X42926000Y49530000D02*
X42926000Y52070000D01*
X42926000Y52070000D02*
X20066000Y52070000D01*
X17246000Y49250000D02*
X18796000Y49250000D01*
X20066000Y49530000D02*
X20066000Y52070000D01*
X18796000Y52350000D02*
X17246000Y52350000D01*
X17246000Y52350000D02*
X17246000Y49250000D01*
%TO.C,P4*%
X46990000Y49530000D02*
X64770000Y49530000D01*
X64770000Y49530000D02*
X64770000Y52070000D01*
X64770000Y52070000D02*
X46990000Y52070000D01*
X44170000Y49250000D02*
X45720000Y49250000D01*
X46990000Y49530000D02*
X46990000Y52070000D01*
X45720000Y52350000D02*
X44170000Y52350000D01*
X44170000Y52350000D02*
X44170000Y49250000D01*
%TO.C,P5*%
X16256000Y2540000D02*
G75*
G03*
X16256000Y2540000I-2286000J0D01*
G01*
%TO.C,P6*%
X68326000Y7620000D02*
G75*
G03*
X68326000Y7620000I-2286000J0D01*
G01*
%TO.C,P7*%
X17526000Y50800000D02*
G75*
G03*
X17526000Y50800000I-2286000J0D01*
G01*
%TO.C,P8*%
X68326000Y35560000D02*
G75*
G03*
X68326000Y35560000I-2286000J0D01*
G01*
D11*
%TO.C,C1*%
X34520000Y34090000D02*
X39060000Y34090000D01*
X34520000Y31950000D02*
X39060000Y31950000D01*
X34520000Y34090000D02*
X34520000Y34075000D01*
X34520000Y31965000D02*
X34520000Y31950000D01*
X39060000Y34090000D02*
X39060000Y34075000D01*
X39060000Y31965000D02*
X39060000Y31950000D01*
%TO.C,C2*%
X39060000Y29425000D02*
X39060000Y29410000D01*
X39060000Y31550000D02*
X39060000Y31535000D01*
X34520000Y29425000D02*
X34520000Y29410000D01*
X34520000Y31550000D02*
X34520000Y31535000D01*
X34520000Y29410000D02*
X39060000Y29410000D01*
X34520000Y31550000D02*
X39060000Y31550000D01*
%TO.C,C3*%
X34520000Y29010000D02*
X39060000Y29010000D01*
X34520000Y26870000D02*
X39060000Y26870000D01*
X34520000Y29010000D02*
X34520000Y28995000D01*
X34520000Y26885000D02*
X34520000Y26870000D01*
X39060000Y29010000D02*
X39060000Y28995000D01*
X39060000Y26885000D02*
X39060000Y26870000D01*
%TO.C,C4*%
X39060000Y24345000D02*
X39060000Y24330000D01*
X39060000Y26470000D02*
X39060000Y26455000D01*
X34520000Y24345000D02*
X34520000Y24330000D01*
X34520000Y26470000D02*
X34520000Y26455000D01*
X34520000Y24330000D02*
X39060000Y24330000D01*
X34520000Y26470000D02*
X39060000Y26470000D01*
%TO.C,C5*%
X34520000Y23930000D02*
X39060000Y23930000D01*
X34520000Y21790000D02*
X39060000Y21790000D01*
X34520000Y23930000D02*
X34520000Y23915000D01*
X34520000Y21805000D02*
X34520000Y21790000D01*
X39060000Y23930000D02*
X39060000Y23915000D01*
X39060000Y21805000D02*
X39060000Y21790000D01*
%TO.C,C6*%
X39060000Y19265000D02*
X39060000Y19250000D01*
X39060000Y21390000D02*
X39060000Y21375000D01*
X34520000Y19265000D02*
X34520000Y19250000D01*
X34520000Y21390000D02*
X34520000Y21375000D01*
X34520000Y19250000D02*
X39060000Y19250000D01*
X34520000Y21390000D02*
X39060000Y21390000D01*
D12*
%TO.C,G1*%
G36*
X39938328Y42861579D02*
G01*
X40024848Y42809067D01*
X40090501Y42745317D01*
X40143874Y42661369D01*
X40158120Y42632313D01*
X40195189Y42552938D01*
X40195189Y38711188D01*
X40158120Y38631813D01*
X40106683Y38540421D01*
X40045430Y38471796D01*
X39965771Y38416977D01*
X39938328Y38402547D01*
X39841178Y38354000D01*
X26198821Y38354000D01*
X26101671Y38402547D01*
X26015151Y38455059D01*
X25949498Y38518809D01*
X25896125Y38602757D01*
X25881879Y38631813D01*
X25844810Y38711188D01*
X25844810Y39801529D01*
X26021183Y39801529D01*
X26021350Y39606025D01*
X26021681Y39426733D01*
X26022171Y39265762D01*
X26022813Y39125219D01*
X26023603Y39007213D01*
X26024535Y38913853D01*
X26025603Y38847245D01*
X26026802Y38809499D01*
X26027277Y38803270D01*
X26052168Y38710164D01*
X26100571Y38632456D01*
X26168434Y38574998D01*
X26243324Y38544487D01*
X26262720Y38543624D01*
X26312824Y38542787D01*
X26392596Y38541978D01*
X26500994Y38541198D01*
X26636977Y38540449D01*
X26799503Y38539733D01*
X26987532Y38539051D01*
X27200022Y38538404D01*
X27435931Y38537794D01*
X27694220Y38537223D01*
X27973845Y38536692D01*
X28273766Y38536204D01*
X28592942Y38535758D01*
X28930332Y38535358D01*
X29284893Y38535005D01*
X29655586Y38534699D01*
X30041368Y38534444D01*
X30441198Y38534240D01*
X30854035Y38534088D01*
X31278838Y38533992D01*
X31714566Y38533951D01*
X32160177Y38533968D01*
X32614629Y38534044D01*
X33051750Y38534173D01*
X33604527Y38534373D01*
X34126445Y38534575D01*
X34618392Y38534783D01*
X35081258Y38534999D01*
X35515934Y38535229D01*
X35923309Y38535475D01*
X36304272Y38535742D01*
X36659714Y38536034D01*
X36990525Y38536354D01*
X37297593Y38536707D01*
X37581810Y38537096D01*
X37844064Y38537525D01*
X38085246Y38537999D01*
X38306245Y38538520D01*
X38507952Y38539092D01*
X38691255Y38539721D01*
X38857045Y38540409D01*
X39006211Y38541160D01*
X39139644Y38541978D01*
X39258233Y38542868D01*
X39362868Y38543833D01*
X39454439Y38544876D01*
X39533835Y38546002D01*
X39601947Y38547215D01*
X39659663Y38548518D01*
X39707875Y38549915D01*
X39747471Y38551411D01*
X39779342Y38553009D01*
X39804377Y38554712D01*
X39823466Y38556526D01*
X39837499Y38558453D01*
X39847366Y38560498D01*
X39853956Y38562664D01*
X39856265Y38563774D01*
X39912935Y38605518D01*
X39962950Y38660956D01*
X39996336Y38718481D01*
X40001035Y38732255D01*
X40002571Y38753355D01*
X40004048Y38804190D01*
X40005456Y38882742D01*
X40006781Y38986995D01*
X40008010Y39114935D01*
X40009132Y39264544D01*
X40010134Y39433806D01*
X40011003Y39620706D01*
X40011727Y39823227D01*
X40012293Y40039354D01*
X40012689Y40267070D01*
X40012902Y40504359D01*
X40012937Y40647938D01*
X40012914Y40932260D01*
X40012827Y41186553D01*
X40012654Y41412537D01*
X40012368Y41611934D01*
X40011947Y41786464D01*
X40011365Y41937848D01*
X40010599Y42067806D01*
X40009624Y42178060D01*
X40008415Y42270330D01*
X40006948Y42346338D01*
X40005200Y42407803D01*
X40003144Y42456446D01*
X40000758Y42493989D01*
X39998017Y42522153D01*
X39994897Y42542657D01*
X39991372Y42557222D01*
X39987419Y42567571D01*
X39985726Y42570891D01*
X39943982Y42627561D01*
X39888544Y42677576D01*
X39831019Y42710962D01*
X39817245Y42715661D01*
X39798276Y42716570D01*
X39748818Y42717441D01*
X39670131Y42718276D01*
X39563475Y42719074D01*
X39430112Y42719835D01*
X39271302Y42720559D01*
X39088305Y42721247D01*
X38882382Y42721897D01*
X38654793Y42722511D01*
X38406800Y42723089D01*
X38139662Y42723629D01*
X37854640Y42724133D01*
X37552995Y42724599D01*
X37235988Y42725029D01*
X36904878Y42725423D01*
X36560926Y42725779D01*
X36205394Y42726099D01*
X35839541Y42726381D01*
X35464628Y42726627D01*
X35081916Y42726837D01*
X34692664Y42727009D01*
X34298135Y42727145D01*
X33899588Y42727244D01*
X33498284Y42727306D01*
X33095483Y42727331D01*
X32692446Y42727319D01*
X32290434Y42727271D01*
X31890707Y42727186D01*
X31494525Y42727064D01*
X31103150Y42726906D01*
X30717841Y42726710D01*
X30339860Y42726478D01*
X29970467Y42726209D01*
X29610922Y42725903D01*
X29262486Y42725560D01*
X28926419Y42725181D01*
X28603983Y42724765D01*
X28296438Y42724312D01*
X28005043Y42723822D01*
X27731061Y42723295D01*
X27475750Y42722732D01*
X27240373Y42722132D01*
X27026189Y42721495D01*
X26834460Y42720821D01*
X26666444Y42720110D01*
X26523404Y42719363D01*
X26406600Y42718579D01*
X26317292Y42717758D01*
X26256741Y42716900D01*
X26226207Y42716006D01*
X26222754Y42715661D01*
X26166576Y42688190D01*
X26109487Y42641514D01*
X26063095Y42585607D01*
X26054273Y42570891D01*
X26050078Y42561548D01*
X26046322Y42548518D01*
X26042976Y42530054D01*
X26040008Y42504410D01*
X26037390Y42469838D01*
X26035091Y42424592D01*
X26033082Y42366924D01*
X26031332Y42295090D01*
X26029811Y42207340D01*
X26028490Y42101930D01*
X26027339Y41977111D01*
X26026327Y41831138D01*
X26025426Y41662263D01*
X26024604Y41468740D01*
X26023832Y41248821D01*
X26023079Y41000761D01*
X26022317Y40722812D01*
X26022266Y40703500D01*
X26021722Y40464231D01*
X26021363Y40232740D01*
X26021185Y40011136D01*
X26021183Y39801529D01*
X25844810Y39801529D01*
X25844810Y42552938D01*
X25881879Y42632313D01*
X25933316Y42723705D01*
X25994569Y42792330D01*
X26074228Y42847149D01*
X26101671Y42861579D01*
X26198821Y42910125D01*
X39841178Y42910125D01*
X39938328Y42861579D01*
G37*
X39938328Y42861579D02*
X40024848Y42809067D01*
X40090501Y42745317D01*
X40143874Y42661369D01*
X40158120Y42632313D01*
X40195189Y42552938D01*
X40195189Y38711188D01*
X40158120Y38631813D01*
X40106683Y38540421D01*
X40045430Y38471796D01*
X39965771Y38416977D01*
X39938328Y38402547D01*
X39841178Y38354000D01*
X26198821Y38354000D01*
X26101671Y38402547D01*
X26015151Y38455059D01*
X25949498Y38518809D01*
X25896125Y38602757D01*
X25881879Y38631813D01*
X25844810Y38711188D01*
X25844810Y39801529D01*
X26021183Y39801529D01*
X26021350Y39606025D01*
X26021681Y39426733D01*
X26022171Y39265762D01*
X26022813Y39125219D01*
X26023603Y39007213D01*
X26024535Y38913853D01*
X26025603Y38847245D01*
X26026802Y38809499D01*
X26027277Y38803270D01*
X26052168Y38710164D01*
X26100571Y38632456D01*
X26168434Y38574998D01*
X26243324Y38544487D01*
X26262720Y38543624D01*
X26312824Y38542787D01*
X26392596Y38541978D01*
X26500994Y38541198D01*
X26636977Y38540449D01*
X26799503Y38539733D01*
X26987532Y38539051D01*
X27200022Y38538404D01*
X27435931Y38537794D01*
X27694220Y38537223D01*
X27973845Y38536692D01*
X28273766Y38536204D01*
X28592942Y38535758D01*
X28930332Y38535358D01*
X29284893Y38535005D01*
X29655586Y38534699D01*
X30041368Y38534444D01*
X30441198Y38534240D01*
X30854035Y38534088D01*
X31278838Y38533992D01*
X31714566Y38533951D01*
X32160177Y38533968D01*
X32614629Y38534044D01*
X33051750Y38534173D01*
X33604527Y38534373D01*
X34126445Y38534575D01*
X34618392Y38534783D01*
X35081258Y38534999D01*
X35515934Y38535229D01*
X35923309Y38535475D01*
X36304272Y38535742D01*
X36659714Y38536034D01*
X36990525Y38536354D01*
X37297593Y38536707D01*
X37581810Y38537096D01*
X37844064Y38537525D01*
X38085246Y38537999D01*
X38306245Y38538520D01*
X38507952Y38539092D01*
X38691255Y38539721D01*
X38857045Y38540409D01*
X39006211Y38541160D01*
X39139644Y38541978D01*
X39258233Y38542868D01*
X39362868Y38543833D01*
X39454439Y38544876D01*
X39533835Y38546002D01*
X39601947Y38547215D01*
X39659663Y38548518D01*
X39707875Y38549915D01*
X39747471Y38551411D01*
X39779342Y38553009D01*
X39804377Y38554712D01*
X39823466Y38556526D01*
X39837499Y38558453D01*
X39847366Y38560498D01*
X39853956Y38562664D01*
X39856265Y38563774D01*
X39912935Y38605518D01*
X39962950Y38660956D01*
X39996336Y38718481D01*
X40001035Y38732255D01*
X40002571Y38753355D01*
X40004048Y38804190D01*
X40005456Y38882742D01*
X40006781Y38986995D01*
X40008010Y39114935D01*
X40009132Y39264544D01*
X40010134Y39433806D01*
X40011003Y39620706D01*
X40011727Y39823227D01*
X40012293Y40039354D01*
X40012689Y40267070D01*
X40012902Y40504359D01*
X40012937Y40647938D01*
X40012914Y40932260D01*
X40012827Y41186553D01*
X40012654Y41412537D01*
X40012368Y41611934D01*
X40011947Y41786464D01*
X40011365Y41937848D01*
X40010599Y42067806D01*
X40009624Y42178060D01*
X40008415Y42270330D01*
X40006948Y42346338D01*
X40005200Y42407803D01*
X40003144Y42456446D01*
X40000758Y42493989D01*
X39998017Y42522153D01*
X39994897Y42542657D01*
X39991372Y42557222D01*
X39987419Y42567571D01*
X39985726Y42570891D01*
X39943982Y42627561D01*
X39888544Y42677576D01*
X39831019Y42710962D01*
X39817245Y42715661D01*
X39798276Y42716570D01*
X39748818Y42717441D01*
X39670131Y42718276D01*
X39563475Y42719074D01*
X39430112Y42719835D01*
X39271302Y42720559D01*
X39088305Y42721247D01*
X38882382Y42721897D01*
X38654793Y42722511D01*
X38406800Y42723089D01*
X38139662Y42723629D01*
X37854640Y42724133D01*
X37552995Y42724599D01*
X37235988Y42725029D01*
X36904878Y42725423D01*
X36560926Y42725779D01*
X36205394Y42726099D01*
X35839541Y42726381D01*
X35464628Y42726627D01*
X35081916Y42726837D01*
X34692664Y42727009D01*
X34298135Y42727145D01*
X33899588Y42727244D01*
X33498284Y42727306D01*
X33095483Y42727331D01*
X32692446Y42727319D01*
X32290434Y42727271D01*
X31890707Y42727186D01*
X31494525Y42727064D01*
X31103150Y42726906D01*
X30717841Y42726710D01*
X30339860Y42726478D01*
X29970467Y42726209D01*
X29610922Y42725903D01*
X29262486Y42725560D01*
X28926419Y42725181D01*
X28603983Y42724765D01*
X28296438Y42724312D01*
X28005043Y42723822D01*
X27731061Y42723295D01*
X27475750Y42722732D01*
X27240373Y42722132D01*
X27026189Y42721495D01*
X26834460Y42720821D01*
X26666444Y42720110D01*
X26523404Y42719363D01*
X26406600Y42718579D01*
X26317292Y42717758D01*
X26256741Y42716900D01*
X26226207Y42716006D01*
X26222754Y42715661D01*
X26166576Y42688190D01*
X26109487Y42641514D01*
X26063095Y42585607D01*
X26054273Y42570891D01*
X26050078Y42561548D01*
X26046322Y42548518D01*
X26042976Y42530054D01*
X26040008Y42504410D01*
X26037390Y42469838D01*
X26035091Y42424592D01*
X26033082Y42366924D01*
X26031332Y42295090D01*
X26029811Y42207340D01*
X26028490Y42101930D01*
X26027339Y41977111D01*
X26026327Y41831138D01*
X26025426Y41662263D01*
X26024604Y41468740D01*
X26023832Y41248821D01*
X26023079Y41000761D01*
X26022317Y40722812D01*
X26022266Y40703500D01*
X26021722Y40464231D01*
X26021363Y40232740D01*
X26021185Y40011136D01*
X26021183Y39801529D01*
X25844810Y39801529D01*
X25844810Y42552938D01*
X25881879Y42632313D01*
X25933316Y42723705D01*
X25994569Y42792330D01*
X26074228Y42847149D01*
X26101671Y42861579D01*
X26198821Y42910125D01*
X39841178Y42910125D01*
X39938328Y42861579D01*
G36*
X26667327Y39805329D02*
G01*
X26722468Y39800464D01*
X26766181Y39790219D01*
X26808597Y39772849D01*
X26820812Y39766875D01*
X26866586Y39742208D01*
X26890945Y39720782D01*
X26901489Y39692942D01*
X26905064Y39659810D01*
X26909941Y39592433D01*
X26827093Y39643934D01*
X26777284Y39672041D01*
X26732016Y39688629D01*
X26678228Y39697333D01*
X26622254Y39700975D01*
X26517659Y39697195D01*
X26435041Y39673987D01*
X26369934Y39629502D01*
X26328775Y39579355D01*
X26288314Y39493945D01*
X26266653Y39394366D01*
X26263368Y39288918D01*
X26278033Y39185904D01*
X26310225Y39093625D01*
X26357226Y39022842D01*
X26427724Y38968431D01*
X26514364Y38936300D01*
X26610313Y38926815D01*
X26708736Y38940343D01*
X26802801Y38977252D01*
X26835511Y38997165D01*
X26872212Y39021062D01*
X26896623Y39035085D01*
X26900892Y39036625D01*
X26905398Y39022514D01*
X26907926Y38987211D01*
X26908125Y38972247D01*
X26906511Y38935604D01*
X26897058Y38912042D01*
X26872847Y38893198D01*
X26826959Y38870712D01*
X26822366Y38868608D01*
X26736611Y38839974D01*
X26637959Y38823383D01*
X26541004Y38820553D01*
X26479500Y38828204D01*
X26375231Y38865667D01*
X26283414Y38927296D01*
X26209810Y39007905D01*
X26160180Y39102310D01*
X26153988Y39121200D01*
X26136463Y39210153D01*
X26130398Y39311569D01*
X26135584Y39412921D01*
X26151810Y39501686D01*
X26160831Y39529518D01*
X26205932Y39623554D01*
X26263762Y39694844D01*
X26341499Y39751907D01*
X26354559Y39759345D01*
X26398117Y39781883D01*
X26436224Y39795861D01*
X26478927Y39803287D01*
X26536270Y39806171D01*
X26590625Y39806563D01*
X26667327Y39805329D01*
G37*
X26667327Y39805329D02*
X26722468Y39800464D01*
X26766181Y39790219D01*
X26808597Y39772849D01*
X26820812Y39766875D01*
X26866586Y39742208D01*
X26890945Y39720782D01*
X26901489Y39692942D01*
X26905064Y39659810D01*
X26909941Y39592433D01*
X26827093Y39643934D01*
X26777284Y39672041D01*
X26732016Y39688629D01*
X26678228Y39697333D01*
X26622254Y39700975D01*
X26517659Y39697195D01*
X26435041Y39673987D01*
X26369934Y39629502D01*
X26328775Y39579355D01*
X26288314Y39493945D01*
X26266653Y39394366D01*
X26263368Y39288918D01*
X26278033Y39185904D01*
X26310225Y39093625D01*
X26357226Y39022842D01*
X26427724Y38968431D01*
X26514364Y38936300D01*
X26610313Y38926815D01*
X26708736Y38940343D01*
X26802801Y38977252D01*
X26835511Y38997165D01*
X26872212Y39021062D01*
X26896623Y39035085D01*
X26900892Y39036625D01*
X26905398Y39022514D01*
X26907926Y38987211D01*
X26908125Y38972247D01*
X26906511Y38935604D01*
X26897058Y38912042D01*
X26872847Y38893198D01*
X26826959Y38870712D01*
X26822366Y38868608D01*
X26736611Y38839974D01*
X26637959Y38823383D01*
X26541004Y38820553D01*
X26479500Y38828204D01*
X26375231Y38865667D01*
X26283414Y38927296D01*
X26209810Y39007905D01*
X26160180Y39102310D01*
X26153988Y39121200D01*
X26136463Y39210153D01*
X26130398Y39311569D01*
X26135584Y39412921D01*
X26151810Y39501686D01*
X26160831Y39529518D01*
X26205932Y39623554D01*
X26263762Y39694844D01*
X26341499Y39751907D01*
X26354559Y39759345D01*
X26398117Y39781883D01*
X26436224Y39795861D01*
X26478927Y39803287D01*
X26536270Y39806171D01*
X26590625Y39806563D01*
X26667327Y39805329D01*
G36*
X27846002Y39799830D02*
G01*
X27937874Y39773094D01*
X27943968Y39770460D01*
X27988267Y39749071D01*
X28010606Y39729832D01*
X28018471Y39703018D01*
X28019375Y39672518D01*
X28017789Y39632406D01*
X28013824Y39609895D01*
X28012142Y39608125D01*
X27995801Y39616237D01*
X27963125Y39636668D01*
X27947045Y39647393D01*
X27887233Y39679940D01*
X27820993Y39697838D01*
X27739170Y39702908D01*
X27679639Y39700604D01*
X27583857Y39682622D01*
X27507730Y39640731D01*
X27447630Y39572608D01*
X27428438Y39539737D01*
X27410881Y39500388D01*
X27400122Y39457697D01*
X27394631Y39402304D01*
X27392876Y39324846D01*
X27392866Y39322375D01*
X27393879Y39245001D01*
X27398677Y39189304D01*
X27408892Y39145287D01*
X27426156Y39102949D01*
X27429954Y39095109D01*
X27483835Y39018775D01*
X27556501Y38964543D01*
X27643135Y38933282D01*
X27738915Y38925859D01*
X27839025Y38943144D01*
X27938643Y38986004D01*
X27960798Y38999455D01*
X28021284Y39038340D01*
X28016360Y38970014D01*
X28011049Y38928284D01*
X27997414Y38902008D01*
X27967443Y38880475D01*
X27937941Y38865206D01*
X27864661Y38839766D01*
X27774504Y38824180D01*
X27681185Y38819792D01*
X27598416Y38827948D01*
X27586265Y38830708D01*
X27478094Y38872551D01*
X27389288Y38939106D01*
X27318754Y39031310D01*
X27291953Y39083013D01*
X27263961Y39172242D01*
X27250724Y39278137D01*
X27252551Y39389090D01*
X27269757Y39493492D01*
X27279977Y39527824D01*
X27326560Y39619821D01*
X27396118Y39700824D01*
X27480913Y39763081D01*
X27542041Y39790328D01*
X27634442Y39809121D01*
X27740310Y39812064D01*
X27846002Y39799830D01*
G37*
X27846002Y39799830D02*
X27937874Y39773094D01*
X27943968Y39770460D01*
X27988267Y39749071D01*
X28010606Y39729832D01*
X28018471Y39703018D01*
X28019375Y39672518D01*
X28017789Y39632406D01*
X28013824Y39609895D01*
X28012142Y39608125D01*
X27995801Y39616237D01*
X27963125Y39636668D01*
X27947045Y39647393D01*
X27887233Y39679940D01*
X27820993Y39697838D01*
X27739170Y39702908D01*
X27679639Y39700604D01*
X27583857Y39682622D01*
X27507730Y39640731D01*
X27447630Y39572608D01*
X27428438Y39539737D01*
X27410881Y39500388D01*
X27400122Y39457697D01*
X27394631Y39402304D01*
X27392876Y39324846D01*
X27392866Y39322375D01*
X27393879Y39245001D01*
X27398677Y39189304D01*
X27408892Y39145287D01*
X27426156Y39102949D01*
X27429954Y39095109D01*
X27483835Y39018775D01*
X27556501Y38964543D01*
X27643135Y38933282D01*
X27738915Y38925859D01*
X27839025Y38943144D01*
X27938643Y38986004D01*
X27960798Y38999455D01*
X28021284Y39038340D01*
X28016360Y38970014D01*
X28011049Y38928284D01*
X27997414Y38902008D01*
X27967443Y38880475D01*
X27937941Y38865206D01*
X27864661Y38839766D01*
X27774504Y38824180D01*
X27681185Y38819792D01*
X27598416Y38827948D01*
X27586265Y38830708D01*
X27478094Y38872551D01*
X27389288Y38939106D01*
X27318754Y39031310D01*
X27291953Y39083013D01*
X27263961Y39172242D01*
X27250724Y39278137D01*
X27252551Y39389090D01*
X27269757Y39493492D01*
X27279977Y39527824D01*
X27326560Y39619821D01*
X27396118Y39700824D01*
X27480913Y39763081D01*
X27542041Y39790328D01*
X27634442Y39809121D01*
X27740310Y39812064D01*
X27846002Y39799830D01*
G36*
X31981177Y39810122D02*
G01*
X32062203Y39803062D01*
X32107187Y39794300D01*
X32153774Y39780415D01*
X32177894Y39765662D01*
X32187861Y39741406D01*
X32191422Y39706829D01*
X32196282Y39640751D01*
X32136966Y39665535D01*
X32045921Y39694393D01*
X31954162Y39707332D01*
X31868539Y39704710D01*
X31795900Y39686888D01*
X31743094Y39654225D01*
X31734266Y39644387D01*
X31708651Y39591685D01*
X31704126Y39533534D01*
X31720759Y39482044D01*
X31733287Y39466088D01*
X31768272Y39442733D01*
X31817484Y39422501D01*
X31832506Y39418263D01*
X31931073Y39393579D01*
X32004140Y39374166D01*
X32057098Y39357960D01*
X32095340Y39342899D01*
X32124257Y39326920D01*
X32149241Y39307960D01*
X32170247Y39289047D01*
X32234187Y39229404D01*
X32234187Y38970847D01*
X32169348Y38910366D01*
X32096150Y38861404D01*
X32003735Y38828809D01*
X31901176Y38814537D01*
X31797545Y38820543D01*
X31773812Y38825154D01*
X31740669Y38833395D01*
X31690785Y38846676D01*
X31658718Y38855506D01*
X31610907Y38869859D01*
X31586125Y38883732D01*
X31576804Y38905116D01*
X31575375Y38942005D01*
X31575375Y38943517D01*
X31577231Y38983999D01*
X31585125Y38999447D01*
X31602543Y38996477D01*
X31603156Y38996213D01*
X31716463Y38955255D01*
X31821245Y38933069D01*
X31914478Y38928887D01*
X31993140Y38941939D01*
X32054209Y38971458D01*
X32094663Y39016675D01*
X32111480Y39076821D01*
X32108110Y39124600D01*
X32089351Y39173534D01*
X32051105Y39211799D01*
X31989373Y39242100D01*
X31900152Y39267141D01*
X31895778Y39268110D01*
X31779503Y39299491D01*
X31692081Y39337311D01*
X31630890Y39383822D01*
X31593310Y39441278D01*
X31576721Y39511932D01*
X31575375Y39543566D01*
X31588339Y39634512D01*
X31627673Y39708117D01*
X31686779Y39761007D01*
X31724913Y39783436D01*
X31763061Y39797415D01*
X31811379Y39805402D01*
X31880024Y39809854D01*
X31890435Y39810281D01*
X31981177Y39810122D01*
G37*
X31981177Y39810122D02*
X32062203Y39803062D01*
X32107187Y39794300D01*
X32153774Y39780415D01*
X32177894Y39765662D01*
X32187861Y39741406D01*
X32191422Y39706829D01*
X32196282Y39640751D01*
X32136966Y39665535D01*
X32045921Y39694393D01*
X31954162Y39707332D01*
X31868539Y39704710D01*
X31795900Y39686888D01*
X31743094Y39654225D01*
X31734266Y39644387D01*
X31708651Y39591685D01*
X31704126Y39533534D01*
X31720759Y39482044D01*
X31733287Y39466088D01*
X31768272Y39442733D01*
X31817484Y39422501D01*
X31832506Y39418263D01*
X31931073Y39393579D01*
X32004140Y39374166D01*
X32057098Y39357960D01*
X32095340Y39342899D01*
X32124257Y39326920D01*
X32149241Y39307960D01*
X32170247Y39289047D01*
X32234187Y39229404D01*
X32234187Y38970847D01*
X32169348Y38910366D01*
X32096150Y38861404D01*
X32003735Y38828809D01*
X31901176Y38814537D01*
X31797545Y38820543D01*
X31773812Y38825154D01*
X31740669Y38833395D01*
X31690785Y38846676D01*
X31658718Y38855506D01*
X31610907Y38869859D01*
X31586125Y38883732D01*
X31576804Y38905116D01*
X31575375Y38942005D01*
X31575375Y38943517D01*
X31577231Y38983999D01*
X31585125Y38999447D01*
X31602543Y38996477D01*
X31603156Y38996213D01*
X31716463Y38955255D01*
X31821245Y38933069D01*
X31914478Y38928887D01*
X31993140Y38941939D01*
X32054209Y38971458D01*
X32094663Y39016675D01*
X32111480Y39076821D01*
X32108110Y39124600D01*
X32089351Y39173534D01*
X32051105Y39211799D01*
X31989373Y39242100D01*
X31900152Y39267141D01*
X31895778Y39268110D01*
X31779503Y39299491D01*
X31692081Y39337311D01*
X31630890Y39383822D01*
X31593310Y39441278D01*
X31576721Y39511932D01*
X31575375Y39543566D01*
X31588339Y39634512D01*
X31627673Y39708117D01*
X31686779Y39761007D01*
X31724913Y39783436D01*
X31763061Y39797415D01*
X31811379Y39805402D01*
X31880024Y39809854D01*
X31890435Y39810281D01*
X31981177Y39810122D01*
G36*
X37394985Y39805873D02*
G01*
X37474852Y39775910D01*
X37538780Y39719634D01*
X37580444Y39654528D01*
X37620661Y39551063D01*
X37644414Y39435349D01*
X37652148Y39314193D01*
X37644308Y39194406D01*
X37621340Y39082796D01*
X37583688Y38986173D01*
X37531863Y38911414D01*
X37454706Y38851731D01*
X37366135Y38821252D01*
X37268478Y38820559D01*
X37215070Y38832110D01*
X37144405Y38868623D01*
X37083850Y38932812D01*
X37036026Y39021500D01*
X37018978Y39069799D01*
X36997309Y39171930D01*
X36991227Y39248233D01*
X37118558Y39248233D01*
X37132178Y39132475D01*
X37160751Y39041182D01*
X37203768Y38975514D01*
X37260722Y38936633D01*
X37322105Y38925500D01*
X37374126Y38931251D01*
X37413110Y38953443D01*
X37432816Y38972662D01*
X37464097Y39017968D01*
X37489950Y39075296D01*
X37496146Y39095693D01*
X37506442Y39157616D01*
X37512610Y39239105D01*
X37514615Y39329582D01*
X37512425Y39418467D01*
X37506008Y39495181D01*
X37497529Y39541731D01*
X37464943Y39619463D01*
X37418359Y39674748D01*
X37362910Y39706724D01*
X37303729Y39714528D01*
X37245949Y39697298D01*
X37194704Y39654171D01*
X37160903Y39598298D01*
X37140344Y39532440D01*
X37125578Y39444452D01*
X37120398Y39387292D01*
X37118558Y39248233D01*
X36991227Y39248233D01*
X36988141Y39286937D01*
X36991103Y39404719D01*
X37005826Y39515173D01*
X37031938Y39608196D01*
X37039349Y39625699D01*
X37089585Y39711127D01*
X37151030Y39768632D01*
X37227908Y39801266D01*
X37296249Y39811138D01*
X37394985Y39805873D01*
G37*
X37394985Y39805873D02*
X37474852Y39775910D01*
X37538780Y39719634D01*
X37580444Y39654528D01*
X37620661Y39551063D01*
X37644414Y39435349D01*
X37652148Y39314193D01*
X37644308Y39194406D01*
X37621340Y39082796D01*
X37583688Y38986173D01*
X37531863Y38911414D01*
X37454706Y38851731D01*
X37366135Y38821252D01*
X37268478Y38820559D01*
X37215070Y38832110D01*
X37144405Y38868623D01*
X37083850Y38932812D01*
X37036026Y39021500D01*
X37018978Y39069799D01*
X36997309Y39171930D01*
X36991227Y39248233D01*
X37118558Y39248233D01*
X37132178Y39132475D01*
X37160751Y39041182D01*
X37203768Y38975514D01*
X37260722Y38936633D01*
X37322105Y38925500D01*
X37374126Y38931251D01*
X37413110Y38953443D01*
X37432816Y38972662D01*
X37464097Y39017968D01*
X37489950Y39075296D01*
X37496146Y39095693D01*
X37506442Y39157616D01*
X37512610Y39239105D01*
X37514615Y39329582D01*
X37512425Y39418467D01*
X37506008Y39495181D01*
X37497529Y39541731D01*
X37464943Y39619463D01*
X37418359Y39674748D01*
X37362910Y39706724D01*
X37303729Y39714528D01*
X37245949Y39697298D01*
X37194704Y39654171D01*
X37160903Y39598298D01*
X37140344Y39532440D01*
X37125578Y39444452D01*
X37120398Y39387292D01*
X37118558Y39248233D01*
X36991227Y39248233D01*
X36988141Y39286937D01*
X36991103Y39404719D01*
X37005826Y39515173D01*
X37031938Y39608196D01*
X37039349Y39625699D01*
X37089585Y39711127D01*
X37151030Y39768632D01*
X37227908Y39801266D01*
X37296249Y39811138D01*
X37394985Y39805873D01*
G36*
X39477557Y39806063D02*
G01*
X39558086Y39774529D01*
X39623233Y39715858D01*
X39659368Y39660871D01*
X39698784Y39562192D01*
X39722959Y39444657D01*
X39731500Y39317473D01*
X39724014Y39189847D01*
X39700110Y39070988D01*
X39686303Y39029134D01*
X39637376Y38938695D01*
X39569273Y38871933D01*
X39485954Y38830844D01*
X39391378Y38817422D01*
X39295025Y38832024D01*
X39236922Y38862272D01*
X39179984Y38914882D01*
X39132231Y38981213D01*
X39107525Y39034041D01*
X39090410Y39102492D01*
X39078321Y39191495D01*
X39073045Y39271285D01*
X39199689Y39271285D01*
X39208037Y39170049D01*
X39226500Y39082211D01*
X39236258Y39054140D01*
X39262165Y39005120D01*
X39294060Y38964531D01*
X39302545Y38956953D01*
X39358873Y38930950D01*
X39424161Y38927463D01*
X39485017Y38946459D01*
X39501587Y38957452D01*
X39544367Y39010372D01*
X39574732Y39091415D01*
X39592350Y39199339D01*
X39597051Y39314438D01*
X39593147Y39429309D01*
X39581325Y39518631D01*
X39560336Y39587896D01*
X39528933Y39642596D01*
X39519965Y39653862D01*
X39465025Y39697928D01*
X39402776Y39714314D01*
X39340437Y39703570D01*
X39285227Y39666248D01*
X39260170Y39634034D01*
X39231695Y39567294D01*
X39211881Y39478717D01*
X39201091Y39377111D01*
X39199689Y39271285D01*
X39073045Y39271285D01*
X39071796Y39290168D01*
X39071373Y39387631D01*
X39077593Y39473003D01*
X39083935Y39510391D01*
X39117699Y39622450D01*
X39164056Y39706634D01*
X39225031Y39765009D01*
X39302647Y39799640D01*
X39379318Y39811717D01*
X39477557Y39806063D01*
G37*
X39477557Y39806063D02*
X39558086Y39774529D01*
X39623233Y39715858D01*
X39659368Y39660871D01*
X39698784Y39562192D01*
X39722959Y39444657D01*
X39731500Y39317473D01*
X39724014Y39189847D01*
X39700110Y39070988D01*
X39686303Y39029134D01*
X39637376Y38938695D01*
X39569273Y38871933D01*
X39485954Y38830844D01*
X39391378Y38817422D01*
X39295025Y38832024D01*
X39236922Y38862272D01*
X39179984Y38914882D01*
X39132231Y38981213D01*
X39107525Y39034041D01*
X39090410Y39102492D01*
X39078321Y39191495D01*
X39073045Y39271285D01*
X39199689Y39271285D01*
X39208037Y39170049D01*
X39226500Y39082211D01*
X39236258Y39054140D01*
X39262165Y39005120D01*
X39294060Y38964531D01*
X39302545Y38956953D01*
X39358873Y38930950D01*
X39424161Y38927463D01*
X39485017Y38946459D01*
X39501587Y38957452D01*
X39544367Y39010372D01*
X39574732Y39091415D01*
X39592350Y39199339D01*
X39597051Y39314438D01*
X39593147Y39429309D01*
X39581325Y39518631D01*
X39560336Y39587896D01*
X39528933Y39642596D01*
X39519965Y39653862D01*
X39465025Y39697928D01*
X39402776Y39714314D01*
X39340437Y39703570D01*
X39285227Y39666248D01*
X39260170Y39634034D01*
X39231695Y39567294D01*
X39211881Y39478717D01*
X39201091Y39377111D01*
X39199689Y39271285D01*
X39073045Y39271285D01*
X39071796Y39290168D01*
X39071373Y39387631D01*
X39077593Y39473003D01*
X39083935Y39510391D01*
X39117699Y39622450D01*
X39164056Y39706634D01*
X39225031Y39765009D01*
X39302647Y39799640D01*
X39379318Y39811717D01*
X39477557Y39806063D01*
G36*
X29293343Y39796082D02*
G01*
X29403853Y39792369D01*
X29487626Y39785622D01*
X29549651Y39774038D01*
X29594919Y39755815D01*
X29628417Y39729150D01*
X29655136Y39692240D01*
X29672623Y39659043D01*
X29694947Y39582510D01*
X29691052Y39506985D01*
X29662994Y39439740D01*
X29612830Y39388047D01*
X29592577Y39376045D01*
X29571972Y39363884D01*
X29571747Y39352995D01*
X29594808Y39336404D01*
X29613808Y39325072D01*
X29677802Y39274919D01*
X29715832Y39212799D01*
X29730490Y39133434D01*
X29730033Y39088495D01*
X29724245Y39028201D01*
X29712324Y38987294D01*
X29689928Y38953462D01*
X29677577Y38939696D01*
X29640793Y38904871D01*
X29601557Y38879003D01*
X29554210Y38860564D01*
X29493095Y38848024D01*
X29412555Y38839856D01*
X29306932Y38834532D01*
X29285406Y38833778D01*
X29051250Y38825936D01*
X29051250Y39290625D01*
X29178250Y39290625D01*
X29178250Y38941375D01*
X29313697Y38941375D01*
X29394239Y38944424D01*
X29461680Y38952795D01*
X29502919Y38963844D01*
X29556777Y38999196D01*
X29586797Y39052223D01*
X29595329Y39119969D01*
X29584195Y39194945D01*
X29551696Y39249034D01*
X29517071Y39272997D01*
X29484382Y39280794D01*
X29429450Y39286826D01*
X29361768Y39290206D01*
X29328315Y39290625D01*
X29178250Y39290625D01*
X29051250Y39290625D01*
X29051250Y39687500D01*
X29178250Y39687500D01*
X29178250Y39401750D01*
X29302881Y39401750D01*
X29370192Y39403999D01*
X29431583Y39409927D01*
X29474803Y39418305D01*
X29477841Y39419295D01*
X29524318Y39444635D01*
X29550075Y39484637D01*
X29559094Y39546101D01*
X29559250Y39558305D01*
X29553354Y39608106D01*
X29531377Y39642468D01*
X29517421Y39654598D01*
X29492440Y39670596D01*
X29461824Y39680490D01*
X29417676Y39685643D01*
X29352097Y39687421D01*
X29326921Y39687500D01*
X29178250Y39687500D01*
X29051250Y39687500D01*
X29051250Y39801475D01*
X29293343Y39796082D01*
G37*
X29293343Y39796082D02*
X29403853Y39792369D01*
X29487626Y39785622D01*
X29549651Y39774038D01*
X29594919Y39755815D01*
X29628417Y39729150D01*
X29655136Y39692240D01*
X29672623Y39659043D01*
X29694947Y39582510D01*
X29691052Y39506985D01*
X29662994Y39439740D01*
X29612830Y39388047D01*
X29592577Y39376045D01*
X29571972Y39363884D01*
X29571747Y39352995D01*
X29594808Y39336404D01*
X29613808Y39325072D01*
X29677802Y39274919D01*
X29715832Y39212799D01*
X29730490Y39133434D01*
X29730033Y39088495D01*
X29724245Y39028201D01*
X29712324Y38987294D01*
X29689928Y38953462D01*
X29677577Y38939696D01*
X29640793Y38904871D01*
X29601557Y38879003D01*
X29554210Y38860564D01*
X29493095Y38848024D01*
X29412555Y38839856D01*
X29306932Y38834532D01*
X29285406Y38833778D01*
X29051250Y38825936D01*
X29051250Y39290625D01*
X29178250Y39290625D01*
X29178250Y38941375D01*
X29313697Y38941375D01*
X29394239Y38944424D01*
X29461680Y38952795D01*
X29502919Y38963844D01*
X29556777Y38999196D01*
X29586797Y39052223D01*
X29595329Y39119969D01*
X29584195Y39194945D01*
X29551696Y39249034D01*
X29517071Y39272997D01*
X29484382Y39280794D01*
X29429450Y39286826D01*
X29361768Y39290206D01*
X29328315Y39290625D01*
X29178250Y39290625D01*
X29051250Y39290625D01*
X29051250Y39687500D01*
X29178250Y39687500D01*
X29178250Y39401750D01*
X29302881Y39401750D01*
X29370192Y39403999D01*
X29431583Y39409927D01*
X29474803Y39418305D01*
X29477841Y39419295D01*
X29524318Y39444635D01*
X29550075Y39484637D01*
X29559094Y39546101D01*
X29559250Y39558305D01*
X29553354Y39608106D01*
X29531377Y39642468D01*
X29517421Y39654598D01*
X29492440Y39670596D01*
X29461824Y39680490D01*
X29417676Y39685643D01*
X29352097Y39687421D01*
X29326921Y39687500D01*
X29178250Y39687500D01*
X29051250Y39687500D01*
X29051250Y39801475D01*
X29293343Y39796082D01*
G36*
X30226000Y39608125D02*
G01*
X30272092Y39540481D01*
X30312423Y39483455D01*
X30343566Y39441730D01*
X30362095Y39419984D01*
X30365219Y39417929D01*
X30377618Y39430594D01*
X30403823Y39465199D01*
X30440431Y39517004D01*
X30484037Y39581269D01*
X30502035Y39608429D01*
X30627259Y39798625D01*
X30766258Y39798625D01*
X30603285Y39556532D01*
X30440312Y39314438D01*
X30432375Y39076313D01*
X30424437Y38838188D01*
X30368307Y38833464D01*
X30327853Y38833230D01*
X30302425Y38838860D01*
X30300838Y38840078D01*
X30296799Y38859220D01*
X30293394Y38904139D01*
X30290906Y38968865D01*
X30289617Y39047426D01*
X30289500Y39080411D01*
X30289500Y39309405D01*
X30122070Y39554015D01*
X29954641Y39798625D01*
X30098373Y39798625D01*
X30226000Y39608125D01*
G37*
X30226000Y39608125D02*
X30272092Y39540481D01*
X30312423Y39483455D01*
X30343566Y39441730D01*
X30362095Y39419984D01*
X30365219Y39417929D01*
X30377618Y39430594D01*
X30403823Y39465199D01*
X30440431Y39517004D01*
X30484037Y39581269D01*
X30502035Y39608429D01*
X30627259Y39798625D01*
X30766258Y39798625D01*
X30603285Y39556532D01*
X30440312Y39314438D01*
X30432375Y39076313D01*
X30424437Y38838188D01*
X30368307Y38833464D01*
X30327853Y38833230D01*
X30302425Y38838860D01*
X30300838Y38840078D01*
X30296799Y38859220D01*
X30293394Y38904139D01*
X30290906Y38968865D01*
X30289617Y39047426D01*
X30289500Y39080411D01*
X30289500Y39309405D01*
X30122070Y39554015D01*
X29954641Y39798625D01*
X30098373Y39798625D01*
X30226000Y39608125D01*
G36*
X33254330Y39326716D02*
G01*
X33297953Y39211004D01*
X33337716Y39104811D01*
X33372277Y39011775D01*
X33400296Y38935535D01*
X33420430Y38879730D01*
X33431340Y38847999D01*
X33432924Y38842157D01*
X33418730Y38834641D01*
X33383563Y38830519D01*
X33370390Y38830250D01*
X33334843Y38831788D01*
X33312716Y38841177D01*
X33296176Y38865578D01*
X33277388Y38912156D01*
X33275605Y38916916D01*
X33255743Y38972284D01*
X33239504Y39021549D01*
X33233056Y39043916D01*
X33222933Y39084250D01*
X32784500Y39084250D01*
X32756802Y39008844D01*
X32729101Y38933645D01*
X32709070Y38883175D01*
X32693021Y38852517D01*
X32677264Y38836751D01*
X32658112Y38830958D01*
X32631874Y38830221D01*
X32622865Y38830250D01*
X32581732Y38832303D01*
X32565337Y38840719D01*
X32566524Y38858032D01*
X32574287Y38879403D01*
X32591913Y38926537D01*
X32617929Y38995540D01*
X32650862Y39082518D01*
X32689240Y39183576D01*
X32697680Y39205746D01*
X32829500Y39205746D01*
X32844300Y39201561D01*
X32884410Y39198184D01*
X32943392Y39196002D01*
X33002479Y39195375D01*
X33175458Y39195375D01*
X33095361Y39413657D01*
X33066277Y39491806D01*
X33040388Y39559313D01*
X33019910Y39610545D01*
X33007064Y39639871D01*
X33004501Y39644275D01*
X32996528Y39633709D01*
X32980012Y39599459D01*
X32957390Y39547631D01*
X32931100Y39484331D01*
X32903577Y39415667D01*
X32877259Y39347746D01*
X32854584Y39286673D01*
X32837987Y39238555D01*
X32829905Y39209499D01*
X32829500Y39205746D01*
X32697680Y39205746D01*
X32731590Y39294820D01*
X32748150Y39338250D01*
X32920736Y39790688D01*
X32998149Y39795028D01*
X33075562Y39799369D01*
X33254330Y39326716D01*
G37*
X33254330Y39326716D02*
X33297953Y39211004D01*
X33337716Y39104811D01*
X33372277Y39011775D01*
X33400296Y38935535D01*
X33420430Y38879730D01*
X33431340Y38847999D01*
X33432924Y38842157D01*
X33418730Y38834641D01*
X33383563Y38830519D01*
X33370390Y38830250D01*
X33334843Y38831788D01*
X33312716Y38841177D01*
X33296176Y38865578D01*
X33277388Y38912156D01*
X33275605Y38916916D01*
X33255743Y38972284D01*
X33239504Y39021549D01*
X33233056Y39043916D01*
X33222933Y39084250D01*
X32784500Y39084250D01*
X32756802Y39008844D01*
X32729101Y38933645D01*
X32709070Y38883175D01*
X32693021Y38852517D01*
X32677264Y38836751D01*
X32658112Y38830958D01*
X32631874Y38830221D01*
X32622865Y38830250D01*
X32581732Y38832303D01*
X32565337Y38840719D01*
X32566524Y38858032D01*
X32574287Y38879403D01*
X32591913Y38926537D01*
X32617929Y38995540D01*
X32650862Y39082518D01*
X32689240Y39183576D01*
X32697680Y39205746D01*
X32829500Y39205746D01*
X32844300Y39201561D01*
X32884410Y39198184D01*
X32943392Y39196002D01*
X33002479Y39195375D01*
X33175458Y39195375D01*
X33095361Y39413657D01*
X33066277Y39491806D01*
X33040388Y39559313D01*
X33019910Y39610545D01*
X33007064Y39639871D01*
X33004501Y39644275D01*
X32996528Y39633709D01*
X32980012Y39599459D01*
X32957390Y39547631D01*
X32931100Y39484331D01*
X32903577Y39415667D01*
X32877259Y39347746D01*
X32854584Y39286673D01*
X32837987Y39238555D01*
X32829905Y39209499D01*
X32829500Y39205746D01*
X32697680Y39205746D01*
X32731590Y39294820D01*
X32748150Y39338250D01*
X32920736Y39790688D01*
X32998149Y39795028D01*
X33075562Y39799369D01*
X33254330Y39326716D01*
G36*
X36367706Y39794273D02*
G01*
X36446630Y39756594D01*
X36506880Y39701448D01*
X36545132Y39630561D01*
X36558062Y39545655D01*
X36557027Y39523362D01*
X36550481Y39478713D01*
X36536779Y39435560D01*
X36513196Y39389897D01*
X36477008Y39337717D01*
X36425491Y39275015D01*
X36355919Y39197786D01*
X36282691Y39119969D01*
X36112637Y38941375D01*
X36560125Y38941375D01*
X36560125Y38830250D01*
X35956875Y38830250D01*
X35956875Y38887614D01*
X35958666Y38909842D01*
X35966021Y38932382D01*
X35981911Y38959144D01*
X36009309Y38994039D01*
X36051186Y39040977D01*
X36110514Y39103867D01*
X36161566Y39156937D01*
X36236753Y39236873D01*
X36302473Y39310784D01*
X36354947Y39374186D01*
X36390393Y39422595D01*
X36401360Y39441408D01*
X36426556Y39518991D01*
X36421808Y39586463D01*
X36387000Y39644595D01*
X36367867Y39662731D01*
X36307194Y39694043D01*
X36228406Y39704262D01*
X36137148Y39693353D01*
X36047313Y39664741D01*
X35955189Y39626860D01*
X35960000Y39692421D01*
X35964194Y39729792D01*
X35974975Y39752271D01*
X36000081Y39767655D01*
X36047252Y39783747D01*
X36052125Y39785271D01*
X36167129Y39810336D01*
X36273431Y39812762D01*
X36367706Y39794273D01*
G37*
X36367706Y39794273D02*
X36446630Y39756594D01*
X36506880Y39701448D01*
X36545132Y39630561D01*
X36558062Y39545655D01*
X36557027Y39523362D01*
X36550481Y39478713D01*
X36536779Y39435560D01*
X36513196Y39389897D01*
X36477008Y39337717D01*
X36425491Y39275015D01*
X36355919Y39197786D01*
X36282691Y39119969D01*
X36112637Y38941375D01*
X36560125Y38941375D01*
X36560125Y38830250D01*
X35956875Y38830250D01*
X35956875Y38887614D01*
X35958666Y38909842D01*
X35966021Y38932382D01*
X35981911Y38959144D01*
X36009309Y38994039D01*
X36051186Y39040977D01*
X36110514Y39103867D01*
X36161566Y39156937D01*
X36236753Y39236873D01*
X36302473Y39310784D01*
X36354947Y39374186D01*
X36390393Y39422595D01*
X36401360Y39441408D01*
X36426556Y39518991D01*
X36421808Y39586463D01*
X36387000Y39644595D01*
X36367867Y39662731D01*
X36307194Y39694043D01*
X36228406Y39704262D01*
X36137148Y39693353D01*
X36047313Y39664741D01*
X35955189Y39626860D01*
X35960000Y39692421D01*
X35964194Y39729792D01*
X35974975Y39752271D01*
X36000081Y39767655D01*
X36047252Y39783747D01*
X36052125Y39785271D01*
X36167129Y39810336D01*
X36273431Y39812762D01*
X36367706Y39794273D01*
G36*
X38434518Y39799668D02*
G01*
X38511743Y39771178D01*
X38525684Y39762768D01*
X38588258Y39703605D01*
X38626721Y39628330D01*
X38639643Y39543048D01*
X38625596Y39453863D01*
X38608219Y39410142D01*
X38586808Y39377019D01*
X38547515Y39326598D01*
X38494772Y39264170D01*
X38433009Y39195024D01*
X38384628Y39143192D01*
X38192567Y38941375D01*
X38639750Y38941375D01*
X38639750Y38830250D01*
X38036500Y38830250D01*
X38036500Y38888211D01*
X38038193Y38910488D01*
X38045265Y38932782D01*
X38060707Y38958997D01*
X38087508Y38993034D01*
X38128658Y39038794D01*
X38187146Y39100180D01*
X38242692Y39157286D01*
X38334782Y39253748D01*
X38404938Y39332848D01*
X38455308Y39397913D01*
X38488044Y39452271D01*
X38505294Y39499247D01*
X38509209Y39542169D01*
X38506428Y39565407D01*
X38480282Y39629481D01*
X38431693Y39674285D01*
X38364122Y39698907D01*
X38281031Y39702434D01*
X38185882Y39683955D01*
X38130558Y39664444D01*
X38034748Y39625513D01*
X38039592Y39691660D01*
X38043444Y39728037D01*
X38053199Y39750398D01*
X38076207Y39765769D01*
X38119815Y39781179D01*
X38139687Y39787380D01*
X38239299Y39808355D01*
X38340640Y39812255D01*
X38434518Y39799668D01*
G37*
X38434518Y39799668D02*
X38511743Y39771178D01*
X38525684Y39762768D01*
X38588258Y39703605D01*
X38626721Y39628330D01*
X38639643Y39543048D01*
X38625596Y39453863D01*
X38608219Y39410142D01*
X38586808Y39377019D01*
X38547515Y39326598D01*
X38494772Y39264170D01*
X38433009Y39195024D01*
X38384628Y39143192D01*
X38192567Y38941375D01*
X38639750Y38941375D01*
X38639750Y38830250D01*
X38036500Y38830250D01*
X38036500Y38888211D01*
X38038193Y38910488D01*
X38045265Y38932782D01*
X38060707Y38958997D01*
X38087508Y38993034D01*
X38128658Y39038794D01*
X38187146Y39100180D01*
X38242692Y39157286D01*
X38334782Y39253748D01*
X38404938Y39332848D01*
X38455308Y39397913D01*
X38488044Y39452271D01*
X38505294Y39499247D01*
X38509209Y39542169D01*
X38506428Y39565407D01*
X38480282Y39629481D01*
X38431693Y39674285D01*
X38364122Y39698907D01*
X38281031Y39702434D01*
X38185882Y39683955D01*
X38130558Y39664444D01*
X38034748Y39625513D01*
X38039592Y39691660D01*
X38043444Y39728037D01*
X38053199Y39750398D01*
X38076207Y39765769D01*
X38119815Y39781179D01*
X38139687Y39787380D01*
X38239299Y39808355D01*
X38340640Y39812255D01*
X38434518Y39799668D01*
G36*
X28702000Y39147750D02*
G01*
X28350738Y39147750D01*
X28355712Y39199344D01*
X28360687Y39250938D01*
X28531343Y39255444D01*
X28702000Y39259950D01*
X28702000Y39147750D01*
G37*
X28702000Y39147750D02*
X28350738Y39147750D01*
X28355712Y39199344D01*
X28360687Y39250938D01*
X28531343Y39255444D01*
X28702000Y39259950D01*
X28702000Y39147750D01*
G36*
X31218187Y39250938D02*
G01*
X31223162Y39199344D01*
X31228136Y39147750D01*
X30876875Y39147750D01*
X30876875Y39259950D01*
X31218187Y39250938D01*
G37*
X31218187Y39250938D02*
X31223162Y39199344D01*
X31228136Y39147750D01*
X30876875Y39147750D01*
X30876875Y39259950D01*
X31218187Y39250938D01*
G36*
X31264999Y42432265D02*
G01*
X31415822Y42407851D01*
X31548596Y42364952D01*
X31668264Y42301875D01*
X31779768Y42216926D01*
X31802864Y42195911D01*
X31908388Y42075933D01*
X31988852Y41936800D01*
X32044307Y41778365D01*
X32074801Y41600481D01*
X32080387Y41402999D01*
X32079789Y41387054D01*
X32074123Y41291672D01*
X32064902Y41215891D01*
X32050055Y41147594D01*
X32027507Y41074665D01*
X32025190Y41067924D01*
X31957741Y40913534D01*
X31869930Y40779003D01*
X31764097Y40667244D01*
X31642583Y40581172D01*
X31627953Y40573182D01*
X31588218Y40549831D01*
X31563520Y40530945D01*
X31559500Y40524719D01*
X31569595Y40509212D01*
X31597353Y40474806D01*
X31638981Y40426004D01*
X31690683Y40367311D01*
X31713285Y40342130D01*
X31771089Y40278014D01*
X31823668Y40219598D01*
X31866180Y40172270D01*
X31893780Y40141418D01*
X31898615Y40135969D01*
X31930159Y40100250D01*
X31693235Y40100282D01*
X31456312Y40100313D01*
X31302533Y40272446D01*
X31148755Y40444580D01*
X31000908Y40454813D01*
X30828718Y40476465D01*
X30678791Y40517081D01*
X30546639Y40578529D01*
X30427771Y40662674D01*
X30367616Y40718117D01*
X30273244Y40828402D01*
X30201287Y40949851D01*
X30149970Y41086873D01*
X30117518Y41243874D01*
X30104932Y41370250D01*
X30105324Y41449625D01*
X30631294Y41449625D01*
X30632806Y41327929D01*
X30638777Y41231604D01*
X30650559Y41154424D01*
X30669505Y41090162D01*
X30696966Y41032592D01*
X30734225Y40975583D01*
X30808393Y40899020D01*
X30900578Y40844893D01*
X31005225Y40814374D01*
X31116775Y40808632D01*
X31229671Y40828837D01*
X31300802Y40856277D01*
X31356067Y40888129D01*
X31405953Y40926013D01*
X31426371Y40946405D01*
X31487954Y41040994D01*
X31532710Y41155074D01*
X31560725Y41282492D01*
X31572090Y41417093D01*
X31566893Y41552723D01*
X31545223Y41683227D01*
X31507169Y41802452D01*
X31452820Y41904242D01*
X31411796Y41955048D01*
X31328663Y42022520D01*
X31231468Y42064099D01*
X31129029Y42081048D01*
X31006553Y42075427D01*
X30896582Y42041255D01*
X30801610Y41980110D01*
X30724131Y41893572D01*
X30669287Y41790000D01*
X30654665Y41750276D01*
X30644368Y41712251D01*
X30637638Y41669137D01*
X30633719Y41614147D01*
X30631852Y41540493D01*
X30631294Y41449625D01*
X30105324Y41449625D01*
X30105855Y41556702D01*
X30132219Y41731387D01*
X30182851Y41891888D01*
X30256582Y42035787D01*
X30352241Y42160666D01*
X30468656Y42264107D01*
X30567360Y42325367D01*
X30665867Y42372201D01*
X30759441Y42405058D01*
X30857284Y42425950D01*
X30968598Y42436888D01*
X31091187Y42439889D01*
X31264999Y42432265D01*
G37*
X31264999Y42432265D02*
X31415822Y42407851D01*
X31548596Y42364952D01*
X31668264Y42301875D01*
X31779768Y42216926D01*
X31802864Y42195911D01*
X31908388Y42075933D01*
X31988852Y41936800D01*
X32044307Y41778365D01*
X32074801Y41600481D01*
X32080387Y41402999D01*
X32079789Y41387054D01*
X32074123Y41291672D01*
X32064902Y41215891D01*
X32050055Y41147594D01*
X32027507Y41074665D01*
X32025190Y41067924D01*
X31957741Y40913534D01*
X31869930Y40779003D01*
X31764097Y40667244D01*
X31642583Y40581172D01*
X31627953Y40573182D01*
X31588218Y40549831D01*
X31563520Y40530945D01*
X31559500Y40524719D01*
X31569595Y40509212D01*
X31597353Y40474806D01*
X31638981Y40426004D01*
X31690683Y40367311D01*
X31713285Y40342130D01*
X31771089Y40278014D01*
X31823668Y40219598D01*
X31866180Y40172270D01*
X31893780Y40141418D01*
X31898615Y40135969D01*
X31930159Y40100250D01*
X31693235Y40100282D01*
X31456312Y40100313D01*
X31302533Y40272446D01*
X31148755Y40444580D01*
X31000908Y40454813D01*
X30828718Y40476465D01*
X30678791Y40517081D01*
X30546639Y40578529D01*
X30427771Y40662674D01*
X30367616Y40718117D01*
X30273244Y40828402D01*
X30201287Y40949851D01*
X30149970Y41086873D01*
X30117518Y41243874D01*
X30104932Y41370250D01*
X30105324Y41449625D01*
X30631294Y41449625D01*
X30632806Y41327929D01*
X30638777Y41231604D01*
X30650559Y41154424D01*
X30669505Y41090162D01*
X30696966Y41032592D01*
X30734225Y40975583D01*
X30808393Y40899020D01*
X30900578Y40844893D01*
X31005225Y40814374D01*
X31116775Y40808632D01*
X31229671Y40828837D01*
X31300802Y40856277D01*
X31356067Y40888129D01*
X31405953Y40926013D01*
X31426371Y40946405D01*
X31487954Y41040994D01*
X31532710Y41155074D01*
X31560725Y41282492D01*
X31572090Y41417093D01*
X31566893Y41552723D01*
X31545223Y41683227D01*
X31507169Y41802452D01*
X31452820Y41904242D01*
X31411796Y41955048D01*
X31328663Y42022520D01*
X31231468Y42064099D01*
X31129029Y42081048D01*
X31006553Y42075427D01*
X30896582Y42041255D01*
X30801610Y41980110D01*
X30724131Y41893572D01*
X30669287Y41790000D01*
X30654665Y41750276D01*
X30644368Y41712251D01*
X30637638Y41669137D01*
X30633719Y41614147D01*
X30631852Y41540493D01*
X30631294Y41449625D01*
X30105324Y41449625D01*
X30105855Y41556702D01*
X30132219Y41731387D01*
X30182851Y41891888D01*
X30256582Y42035787D01*
X30352241Y42160666D01*
X30468656Y42264107D01*
X30567360Y42325367D01*
X30665867Y42372201D01*
X30759441Y42405058D01*
X30857284Y42425950D01*
X30968598Y42436888D01*
X31091187Y42439889D01*
X31264999Y42432265D01*
G36*
X37107612Y42437844D02*
G01*
X37213582Y42428715D01*
X37299532Y42413480D01*
X37306250Y42411726D01*
X37471306Y42352893D01*
X37613578Y42271958D01*
X37733030Y42168966D01*
X37829628Y42043963D01*
X37903335Y41896993D01*
X37954118Y41728103D01*
X37981941Y41537336D01*
X37981973Y41536938D01*
X37983268Y41351119D01*
X37957256Y41175334D01*
X37905111Y41012124D01*
X37828004Y40864033D01*
X37727110Y40733603D01*
X37603599Y40623376D01*
X37541234Y40581216D01*
X37447854Y40523578D01*
X37501065Y40466696D01*
X37532428Y40432761D01*
X37578864Y40382011D01*
X37634192Y40321218D01*
X37692235Y40257157D01*
X37694156Y40255032D01*
X37834034Y40100250D01*
X37356267Y40100250D01*
X37202172Y40272668D01*
X37048078Y40445085D01*
X36903320Y40454372D01*
X36718860Y40479183D01*
X36553275Y40528322D01*
X36407517Y40601105D01*
X36282542Y40696850D01*
X36179303Y40814873D01*
X36098754Y40954491D01*
X36058058Y41059457D01*
X36028383Y41182476D01*
X36010710Y41323876D01*
X36008832Y41378448D01*
X36517536Y41378448D01*
X36532708Y41248851D01*
X36563322Y41128071D01*
X36609299Y41021928D01*
X36670559Y40936241D01*
X36690206Y40916917D01*
X36781660Y40854838D01*
X36887457Y40817492D01*
X37000891Y40805842D01*
X37115255Y40820853D01*
X37187187Y40845482D01*
X37257430Y40889857D01*
X37325416Y40957212D01*
X37383816Y41039184D01*
X37418682Y41109602D01*
X37433496Y41150047D01*
X37443849Y41188931D01*
X37450537Y41233243D01*
X37454357Y41289976D01*
X37456107Y41366122D01*
X37456544Y41441688D01*
X37456283Y41536989D01*
X37454482Y41607746D01*
X37450326Y41661157D01*
X37443003Y41704420D01*
X37431700Y41744733D01*
X37417999Y41783000D01*
X37361100Y41894465D01*
X37285067Y41981164D01*
X37191679Y42041944D01*
X37082713Y42075649D01*
X36959948Y42081126D01*
X36958845Y42081048D01*
X36845130Y42060804D01*
X36749674Y42016540D01*
X36676078Y41955048D01*
X36612852Y41868642D01*
X36565464Y41761960D01*
X36533835Y41640822D01*
X36517885Y41511045D01*
X36517536Y41378448D01*
X36008832Y41378448D01*
X36005596Y41472424D01*
X36013597Y41616888D01*
X36026160Y41703625D01*
X36072575Y41870696D01*
X36144735Y42019817D01*
X36241206Y42149448D01*
X36360552Y42258050D01*
X36501338Y42344082D01*
X36662129Y42406004D01*
X36687125Y42412917D01*
X36771378Y42428405D01*
X36876330Y42437709D01*
X36991802Y42440849D01*
X37107612Y42437844D01*
G37*
X37107612Y42437844D02*
X37213582Y42428715D01*
X37299532Y42413480D01*
X37306250Y42411726D01*
X37471306Y42352893D01*
X37613578Y42271958D01*
X37733030Y42168966D01*
X37829628Y42043963D01*
X37903335Y41896993D01*
X37954118Y41728103D01*
X37981941Y41537336D01*
X37981973Y41536938D01*
X37983268Y41351119D01*
X37957256Y41175334D01*
X37905111Y41012124D01*
X37828004Y40864033D01*
X37727110Y40733603D01*
X37603599Y40623376D01*
X37541234Y40581216D01*
X37447854Y40523578D01*
X37501065Y40466696D01*
X37532428Y40432761D01*
X37578864Y40382011D01*
X37634192Y40321218D01*
X37692235Y40257157D01*
X37694156Y40255032D01*
X37834034Y40100250D01*
X37356267Y40100250D01*
X37202172Y40272668D01*
X37048078Y40445085D01*
X36903320Y40454372D01*
X36718860Y40479183D01*
X36553275Y40528322D01*
X36407517Y40601105D01*
X36282542Y40696850D01*
X36179303Y40814873D01*
X36098754Y40954491D01*
X36058058Y41059457D01*
X36028383Y41182476D01*
X36010710Y41323876D01*
X36008832Y41378448D01*
X36517536Y41378448D01*
X36532708Y41248851D01*
X36563322Y41128071D01*
X36609299Y41021928D01*
X36670559Y40936241D01*
X36690206Y40916917D01*
X36781660Y40854838D01*
X36887457Y40817492D01*
X37000891Y40805842D01*
X37115255Y40820853D01*
X37187187Y40845482D01*
X37257430Y40889857D01*
X37325416Y40957212D01*
X37383816Y41039184D01*
X37418682Y41109602D01*
X37433496Y41150047D01*
X37443849Y41188931D01*
X37450537Y41233243D01*
X37454357Y41289976D01*
X37456107Y41366122D01*
X37456544Y41441688D01*
X37456283Y41536989D01*
X37454482Y41607746D01*
X37450326Y41661157D01*
X37443003Y41704420D01*
X37431700Y41744733D01*
X37417999Y41783000D01*
X37361100Y41894465D01*
X37285067Y41981164D01*
X37191679Y42041944D01*
X37082713Y42075649D01*
X36959948Y42081126D01*
X36958845Y42081048D01*
X36845130Y42060804D01*
X36749674Y42016540D01*
X36676078Y41955048D01*
X36612852Y41868642D01*
X36565464Y41761960D01*
X36533835Y41640822D01*
X36517885Y41511045D01*
X36517536Y41378448D01*
X36008832Y41378448D01*
X36005596Y41472424D01*
X36013597Y41616888D01*
X36026160Y41703625D01*
X36072575Y41870696D01*
X36144735Y42019817D01*
X36241206Y42149448D01*
X36360552Y42258050D01*
X36501338Y42344082D01*
X36662129Y42406004D01*
X36687125Y42412917D01*
X36771378Y42428405D01*
X36876330Y42437709D01*
X36991802Y42440849D01*
X37107612Y42437844D01*
G36*
X29163232Y42434920D02*
G01*
X29322632Y42417273D01*
X29484002Y42389854D01*
X29547343Y42376304D01*
X29654500Y42351956D01*
X29654500Y41943968D01*
X29529449Y41989606D01*
X29392551Y42032503D01*
X29254893Y42062640D01*
X29122196Y42079572D01*
X29000180Y42082851D01*
X28894567Y42072029D01*
X28811077Y42046661D01*
X28809403Y42045875D01*
X28752448Y42004213D01*
X28718099Y41948664D01*
X28707141Y41886584D01*
X28720360Y41825328D01*
X28758542Y41772252D01*
X28778512Y41756590D01*
X28820312Y41735814D01*
X28880918Y41714343D01*
X28947797Y41696567D01*
X28953137Y41695416D01*
X29120502Y41658362D01*
X29259525Y41623585D01*
X29373426Y41589929D01*
X29465427Y41556238D01*
X29538747Y41521354D01*
X29596609Y41484121D01*
X29635375Y41450433D01*
X29705489Y41358244D01*
X29751618Y41247344D01*
X29772955Y41120722D01*
X29768689Y40981369D01*
X29766599Y40965218D01*
X29735215Y40828755D01*
X29681622Y40714408D01*
X29604980Y40621308D01*
X29504449Y40548585D01*
X29379189Y40495371D01*
X29290476Y40472160D01*
X29234341Y40464133D01*
X29155642Y40457913D01*
X29063527Y40453704D01*
X28967140Y40451711D01*
X28875628Y40452137D01*
X28798138Y40455187D01*
X28749625Y40460075D01*
X28671498Y40474426D01*
X28577261Y40494713D01*
X28481050Y40517667D01*
X28396998Y40540022D01*
X28372593Y40547245D01*
X28273375Y40577776D01*
X28273375Y40785212D01*
X28274076Y40873289D01*
X28276427Y40933345D01*
X28280795Y40969083D01*
X28287548Y40984207D01*
X28293218Y40984807D01*
X28315925Y40975549D01*
X28360268Y40957257D01*
X28418574Y40933104D01*
X28451180Y40919563D01*
X28599531Y40864763D01*
X28735795Y40830067D01*
X28870397Y40813191D01*
X28948062Y40810674D01*
X29068707Y40817403D01*
X29161999Y40838919D01*
X29229019Y40875887D01*
X29270852Y40928971D01*
X29288580Y40998836D01*
X29289375Y41020148D01*
X29282456Y41082943D01*
X29259887Y41125932D01*
X29257164Y41128963D01*
X29235872Y41150106D01*
X29212489Y41168099D01*
X29182930Y41184365D01*
X29143112Y41200328D01*
X29088948Y41217411D01*
X29016356Y41237037D01*
X28921250Y41260632D01*
X28799546Y41289617D01*
X28789312Y41292029D01*
X28633491Y41337965D01*
X28506321Y41396253D01*
X28406716Y41468127D01*
X28333589Y41554819D01*
X28285852Y41657562D01*
X28262417Y41777588D01*
X28260656Y41891438D01*
X28279049Y42027110D01*
X28320406Y42142097D01*
X28386097Y42238174D01*
X28477494Y42317112D01*
X28595967Y42380686D01*
X28657094Y42404272D01*
X28752733Y42427471D01*
X28872694Y42440194D01*
X29011390Y42442619D01*
X29163232Y42434920D01*
G37*
X29163232Y42434920D02*
X29322632Y42417273D01*
X29484002Y42389854D01*
X29547343Y42376304D01*
X29654500Y42351956D01*
X29654500Y41943968D01*
X29529449Y41989606D01*
X29392551Y42032503D01*
X29254893Y42062640D01*
X29122196Y42079572D01*
X29000180Y42082851D01*
X28894567Y42072029D01*
X28811077Y42046661D01*
X28809403Y42045875D01*
X28752448Y42004213D01*
X28718099Y41948664D01*
X28707141Y41886584D01*
X28720360Y41825328D01*
X28758542Y41772252D01*
X28778512Y41756590D01*
X28820312Y41735814D01*
X28880918Y41714343D01*
X28947797Y41696567D01*
X28953137Y41695416D01*
X29120502Y41658362D01*
X29259525Y41623585D01*
X29373426Y41589929D01*
X29465427Y41556238D01*
X29538747Y41521354D01*
X29596609Y41484121D01*
X29635375Y41450433D01*
X29705489Y41358244D01*
X29751618Y41247344D01*
X29772955Y41120722D01*
X29768689Y40981369D01*
X29766599Y40965218D01*
X29735215Y40828755D01*
X29681622Y40714408D01*
X29604980Y40621308D01*
X29504449Y40548585D01*
X29379189Y40495371D01*
X29290476Y40472160D01*
X29234341Y40464133D01*
X29155642Y40457913D01*
X29063527Y40453704D01*
X28967140Y40451711D01*
X28875628Y40452137D01*
X28798138Y40455187D01*
X28749625Y40460075D01*
X28671498Y40474426D01*
X28577261Y40494713D01*
X28481050Y40517667D01*
X28396998Y40540022D01*
X28372593Y40547245D01*
X28273375Y40577776D01*
X28273375Y40785212D01*
X28274076Y40873289D01*
X28276427Y40933345D01*
X28280795Y40969083D01*
X28287548Y40984207D01*
X28293218Y40984807D01*
X28315925Y40975549D01*
X28360268Y40957257D01*
X28418574Y40933104D01*
X28451180Y40919563D01*
X28599531Y40864763D01*
X28735795Y40830067D01*
X28870397Y40813191D01*
X28948062Y40810674D01*
X29068707Y40817403D01*
X29161999Y40838919D01*
X29229019Y40875887D01*
X29270852Y40928971D01*
X29288580Y40998836D01*
X29289375Y41020148D01*
X29282456Y41082943D01*
X29259887Y41125932D01*
X29257164Y41128963D01*
X29235872Y41150106D01*
X29212489Y41168099D01*
X29182930Y41184365D01*
X29143112Y41200328D01*
X29088948Y41217411D01*
X29016356Y41237037D01*
X28921250Y41260632D01*
X28799546Y41289617D01*
X28789312Y41292029D01*
X28633491Y41337965D01*
X28506321Y41396253D01*
X28406716Y41468127D01*
X28333589Y41554819D01*
X28285852Y41657562D01*
X28262417Y41777588D01*
X28260656Y41891438D01*
X28279049Y42027110D01*
X28320406Y42142097D01*
X28386097Y42238174D01*
X28477494Y42317112D01*
X28595967Y42380686D01*
X28657094Y42404272D01*
X28752733Y42427471D01*
X28872694Y42440194D01*
X29011390Y42442619D01*
X29163232Y42434920D01*
G36*
X26539031Y41446715D02*
G01*
X26646795Y41442568D01*
X26728282Y41435803D01*
X26788942Y41424911D01*
X26834227Y41408385D01*
X26869591Y41384716D01*
X26900484Y41352397D01*
X26906306Y41345145D01*
X26940549Y41280165D01*
X26952100Y41207735D01*
X26942047Y41136361D01*
X26911478Y41074547D01*
X26866441Y41033594D01*
X26810680Y41000695D01*
X26869656Y40967191D01*
X26933593Y40915748D01*
X26971520Y40847875D01*
X26984397Y40761583D01*
X26983471Y40731068D01*
X26969325Y40648265D01*
X26936243Y40586387D01*
X26879526Y40537985D01*
X26851662Y40522027D01*
X26822691Y40508924D01*
X26789589Y40499453D01*
X26746303Y40492856D01*
X26686778Y40488372D01*
X26604957Y40485243D01*
X26546968Y40483794D01*
X26304875Y40478401D01*
X26304875Y40941625D01*
X26431875Y40941625D01*
X26431875Y40589485D01*
X26598237Y40594899D01*
X26673762Y40597911D01*
X26724762Y40602160D01*
X26758463Y40609278D01*
X26782088Y40620894D01*
X26802860Y40638635D01*
X26806013Y40641762D01*
X26838898Y40694216D01*
X26850275Y40757162D01*
X26841745Y40821601D01*
X26814906Y40878533D01*
X26771355Y40918962D01*
X26755448Y40926459D01*
X26721680Y40933358D01*
X26666204Y40938615D01*
X26599049Y40941393D01*
X26573716Y40941625D01*
X26431875Y40941625D01*
X26304875Y40941625D01*
X26304875Y41338500D01*
X26431875Y41338500D01*
X26431875Y41049775D01*
X26588996Y41055232D01*
X26666324Y41059060D01*
X26718788Y41065009D01*
X26753264Y41074369D01*
X26776626Y41088428D01*
X26779496Y41090930D01*
X26803018Y41130180D01*
X26813631Y41185749D01*
X26809535Y41244212D01*
X26803013Y41266352D01*
X26774402Y41301030D01*
X26718894Y41324257D01*
X26635323Y41336391D01*
X26567600Y41338500D01*
X26431875Y41338500D01*
X26304875Y41338500D01*
X26304875Y41453086D01*
X26539031Y41446715D01*
G37*
X26539031Y41446715D02*
X26646795Y41442568D01*
X26728282Y41435803D01*
X26788942Y41424911D01*
X26834227Y41408385D01*
X26869591Y41384716D01*
X26900484Y41352397D01*
X26906306Y41345145D01*
X26940549Y41280165D01*
X26952100Y41207735D01*
X26942047Y41136361D01*
X26911478Y41074547D01*
X26866441Y41033594D01*
X26810680Y41000695D01*
X26869656Y40967191D01*
X26933593Y40915748D01*
X26971520Y40847875D01*
X26984397Y40761583D01*
X26983471Y40731068D01*
X26969325Y40648265D01*
X26936243Y40586387D01*
X26879526Y40537985D01*
X26851662Y40522027D01*
X26822691Y40508924D01*
X26789589Y40499453D01*
X26746303Y40492856D01*
X26686778Y40488372D01*
X26604957Y40485243D01*
X26546968Y40483794D01*
X26304875Y40478401D01*
X26304875Y40941625D01*
X26431875Y40941625D01*
X26431875Y40589485D01*
X26598237Y40594899D01*
X26673762Y40597911D01*
X26724762Y40602160D01*
X26758463Y40609278D01*
X26782088Y40620894D01*
X26802860Y40638635D01*
X26806013Y40641762D01*
X26838898Y40694216D01*
X26850275Y40757162D01*
X26841745Y40821601D01*
X26814906Y40878533D01*
X26771355Y40918962D01*
X26755448Y40926459D01*
X26721680Y40933358D01*
X26666204Y40938615D01*
X26599049Y40941393D01*
X26573716Y40941625D01*
X26431875Y40941625D01*
X26304875Y40941625D01*
X26304875Y41338500D01*
X26431875Y41338500D01*
X26431875Y41049775D01*
X26588996Y41055232D01*
X26666324Y41059060D01*
X26718788Y41065009D01*
X26753264Y41074369D01*
X26776626Y41088428D01*
X26779496Y41090930D01*
X26803018Y41130180D01*
X26813631Y41185749D01*
X26809535Y41244212D01*
X26803013Y41266352D01*
X26774402Y41301030D01*
X26718894Y41324257D01*
X26635323Y41336391D01*
X26567600Y41338500D01*
X26431875Y41338500D01*
X26304875Y41338500D01*
X26304875Y41453086D01*
X26539031Y41446715D01*
G36*
X27789397Y41447809D02*
G01*
X27811424Y41443272D01*
X27813000Y41441464D01*
X27804597Y41426323D01*
X27781214Y41389063D01*
X27745582Y41333914D01*
X27700436Y41265105D01*
X27648509Y41186865D01*
X27646312Y41183572D01*
X27479625Y40933843D01*
X27479625Y40481250D01*
X27352625Y40481250D01*
X27352625Y40942646D01*
X27185937Y41186581D01*
X27133359Y41264062D01*
X27087594Y41332528D01*
X27051450Y41387695D01*
X27027733Y41425279D01*
X27019250Y41440984D01*
X27033331Y41446346D01*
X27068761Y41447490D01*
X27086718Y41446570D01*
X27113178Y41443979D01*
X27134671Y41437899D01*
X27155217Y41424294D01*
X27178837Y41399130D01*
X27209550Y41358372D01*
X27251377Y41297985D01*
X27286780Y41245776D01*
X27419372Y41049864D01*
X27552869Y41249745D01*
X27686366Y41449625D01*
X27749683Y41449625D01*
X27789397Y41447809D01*
G37*
X27789397Y41447809D02*
X27811424Y41443272D01*
X27813000Y41441464D01*
X27804597Y41426323D01*
X27781214Y41389063D01*
X27745582Y41333914D01*
X27700436Y41265105D01*
X27648509Y41186865D01*
X27646312Y41183572D01*
X27479625Y40933843D01*
X27479625Y40481250D01*
X27352625Y40481250D01*
X27352625Y40942646D01*
X27185937Y41186581D01*
X27133359Y41264062D01*
X27087594Y41332528D01*
X27051450Y41387695D01*
X27027733Y41425279D01*
X27019250Y41440984D01*
X27033331Y41446346D01*
X27068761Y41447490D01*
X27086718Y41446570D01*
X27113178Y41443979D01*
X27134671Y41437899D01*
X27155217Y41424294D01*
X27178837Y41399130D01*
X27209550Y41358372D01*
X27251377Y41297985D01*
X27286780Y41245776D01*
X27419372Y41049864D01*
X27552869Y41249745D01*
X27686366Y41449625D01*
X27749683Y41449625D01*
X27789397Y41447809D01*
G36*
X33845500Y42121033D02*
G01*
X33473404Y41305110D01*
X33101309Y40489188D01*
X32862217Y40484806D01*
X32779183Y40483951D01*
X32708675Y40484496D01*
X32656167Y40486299D01*
X32627131Y40489214D01*
X32623125Y40491084D01*
X32629506Y40507172D01*
X32647835Y40549424D01*
X32676890Y40615113D01*
X32715450Y40701512D01*
X32762292Y40805896D01*
X32816196Y40925537D01*
X32875939Y41057710D01*
X32940300Y41199687D01*
X32966002Y41256276D01*
X33032073Y41401733D01*
X33094262Y41538760D01*
X33151311Y41664580D01*
X33201964Y41776416D01*
X33244963Y41871489D01*
X33279053Y41947021D01*
X33302975Y42000236D01*
X33315473Y42028355D01*
X33316950Y42031842D01*
X33314239Y42038059D01*
X33298830Y42042975D01*
X33267770Y42046727D01*
X33218103Y42049452D01*
X33146877Y42051286D01*
X33051138Y42052367D01*
X32927930Y42052831D01*
X32862948Y42052875D01*
X32400875Y42052875D01*
X32400875Y42418000D01*
X33845500Y42418000D01*
X33845500Y42121033D01*
G37*
X33845500Y42121033D02*
X33473404Y41305110D01*
X33101309Y40489188D01*
X32862217Y40484806D01*
X32779183Y40483951D01*
X32708675Y40484496D01*
X32656167Y40486299D01*
X32627131Y40489214D01*
X32623125Y40491084D01*
X32629506Y40507172D01*
X32647835Y40549424D01*
X32676890Y40615113D01*
X32715450Y40701512D01*
X32762292Y40805896D01*
X32816196Y40925537D01*
X32875939Y41057710D01*
X32940300Y41199687D01*
X32966002Y41256276D01*
X33032073Y41401733D01*
X33094262Y41538760D01*
X33151311Y41664580D01*
X33201964Y41776416D01*
X33244963Y41871489D01*
X33279053Y41947021D01*
X33302975Y42000236D01*
X33315473Y42028355D01*
X33316950Y42031842D01*
X33314239Y42038059D01*
X33298830Y42042975D01*
X33267770Y42046727D01*
X33218103Y42049452D01*
X33146877Y42051286D01*
X33051138Y42052367D01*
X32927930Y42052831D01*
X32862948Y42052875D01*
X32400875Y42052875D01*
X32400875Y42418000D01*
X33845500Y42418000D01*
X33845500Y42121033D01*
G36*
X35639375Y42037000D02*
G01*
X34798000Y42037000D01*
X34798000Y41671875D01*
X35591750Y41671875D01*
X35591750Y41307305D01*
X35198843Y41303059D01*
X34805937Y41298813D01*
X34801520Y41080532D01*
X34797104Y40862250D01*
X35671125Y40862250D01*
X35671125Y40481250D01*
X34305875Y40481250D01*
X34305875Y42418000D01*
X35639375Y42418000D01*
X35639375Y42037000D01*
G37*
X35639375Y42037000D02*
X34798000Y42037000D01*
X34798000Y41671875D01*
X35591750Y41671875D01*
X35591750Y41307305D01*
X35198843Y41303059D01*
X34805937Y41298813D01*
X34801520Y41080532D01*
X34797104Y40862250D01*
X35671125Y40862250D01*
X35671125Y40481250D01*
X34305875Y40481250D01*
X34305875Y42418000D01*
X35639375Y42418000D01*
X35639375Y42037000D01*
G36*
X39703375Y42037000D02*
G01*
X38862000Y42037000D01*
X38862000Y41671875D01*
X39655750Y41671875D01*
X39655750Y41306750D01*
X38862000Y41306750D01*
X38862000Y40862250D01*
X39735125Y40862250D01*
X39735125Y40481250D01*
X38353754Y40481250D01*
X38357845Y41445657D01*
X38361937Y42410063D01*
X39703375Y42418345D01*
X39703375Y42037000D01*
G37*
X39703375Y42037000D02*
X38862000Y42037000D01*
X38862000Y41671875D01*
X39655750Y41671875D01*
X39655750Y41306750D01*
X38862000Y41306750D01*
X38862000Y40862250D01*
X39735125Y40862250D01*
X39735125Y40481250D01*
X38353754Y40481250D01*
X38357845Y41445657D01*
X38361937Y42410063D01*
X39703375Y42418345D01*
X39703375Y42037000D01*
%TO.C,G2*%
G36*
X47241900Y22808097D02*
G01*
X47353450Y22752478D01*
X47451908Y22650069D01*
X47479023Y22612136D01*
X47508562Y22562500D01*
X47527728Y22508588D01*
X47538693Y22436636D01*
X47543629Y22332878D01*
X47544713Y22195899D01*
X47539818Y22008185D01*
X47522804Y21867242D01*
X47490177Y21762092D01*
X47438442Y21681757D01*
X47364104Y21615259D01*
X47358642Y21611322D01*
X47285380Y21571047D01*
X47197160Y21551120D01*
X47084962Y21546207D01*
X46902567Y21546207D01*
X46902491Y21369143D01*
X46900793Y21270530D01*
X46890450Y21212686D01*
X46863422Y21177994D01*
X46811668Y21148836D01*
X46799239Y21142879D01*
X46741077Y21114961D01*
X46696044Y21097328D01*
X46662559Y21095806D01*
X46639038Y21116219D01*
X46623900Y21164393D01*
X46615563Y21246154D01*
X46612444Y21367328D01*
X46612960Y21533740D01*
X46615529Y21751215D01*
X46616332Y21816264D01*
X46619222Y22040498D01*
X46621812Y22187179D01*
X46902414Y22187179D01*
X46903991Y22062674D01*
X46911000Y21981213D01*
X46926858Y21927485D01*
X46954981Y21886177D01*
X46974075Y21866029D01*
X47052135Y21807079D01*
X47121247Y21802280D01*
X47192560Y21850962D01*
X47194368Y21852759D01*
X47223383Y21890382D01*
X47241033Y21941516D01*
X47249936Y22020262D01*
X47252709Y22140724D01*
X47252759Y22167412D01*
X47246058Y22333417D01*
X47224248Y22448495D01*
X47184765Y22518746D01*
X47125044Y22550271D01*
X47090528Y22553448D01*
X47008611Y22538540D01*
X46952421Y22489452D01*
X46918598Y22399638D01*
X46903780Y22262555D01*
X46902414Y22187179D01*
X46621812Y22187179D01*
X46622287Y22214048D01*
X46626247Y22344618D01*
X46631826Y22439913D01*
X46639746Y22507636D01*
X46650731Y22555493D01*
X46665501Y22591187D01*
X46684782Y22622422D01*
X46693049Y22634176D01*
X46802712Y22745203D01*
X46941365Y22808153D01*
X47101754Y22825703D01*
X47241900Y22808097D01*
G37*
X47241900Y22808097D02*
X47353450Y22752478D01*
X47451908Y22650069D01*
X47479023Y22612136D01*
X47508562Y22562500D01*
X47527728Y22508588D01*
X47538693Y22436636D01*
X47543629Y22332878D01*
X47544713Y22195899D01*
X47539818Y22008185D01*
X47522804Y21867242D01*
X47490177Y21762092D01*
X47438442Y21681757D01*
X47364104Y21615259D01*
X47358642Y21611322D01*
X47285380Y21571047D01*
X47197160Y21551120D01*
X47084962Y21546207D01*
X46902567Y21546207D01*
X46902491Y21369143D01*
X46900793Y21270530D01*
X46890450Y21212686D01*
X46863422Y21177994D01*
X46811668Y21148836D01*
X46799239Y21142879D01*
X46741077Y21114961D01*
X46696044Y21097328D01*
X46662559Y21095806D01*
X46639038Y21116219D01*
X46623900Y21164393D01*
X46615563Y21246154D01*
X46612444Y21367328D01*
X46612960Y21533740D01*
X46615529Y21751215D01*
X46616332Y21816264D01*
X46619222Y22040498D01*
X46621812Y22187179D01*
X46902414Y22187179D01*
X46903991Y22062674D01*
X46911000Y21981213D01*
X46926858Y21927485D01*
X46954981Y21886177D01*
X46974075Y21866029D01*
X47052135Y21807079D01*
X47121247Y21802280D01*
X47192560Y21850962D01*
X47194368Y21852759D01*
X47223383Y21890382D01*
X47241033Y21941516D01*
X47249936Y22020262D01*
X47252709Y22140724D01*
X47252759Y22167412D01*
X47246058Y22333417D01*
X47224248Y22448495D01*
X47184765Y22518746D01*
X47125044Y22550271D01*
X47090528Y22553448D01*
X47008611Y22538540D01*
X46952421Y22489452D01*
X46918598Y22399638D01*
X46903780Y22262555D01*
X46902414Y22187179D01*
X46621812Y22187179D01*
X46622287Y22214048D01*
X46626247Y22344618D01*
X46631826Y22439913D01*
X46639746Y22507636D01*
X46650731Y22555493D01*
X46665501Y22591187D01*
X46684782Y22622422D01*
X46693049Y22634176D01*
X46802712Y22745203D01*
X46941365Y22808153D01*
X47101754Y22825703D01*
X47241900Y22808097D01*
G36*
X49487429Y22792281D02*
G01*
X49581123Y22738086D01*
X49646264Y22684293D01*
X49693907Y22627934D01*
X49726728Y22559013D01*
X49747406Y22467532D01*
X49758620Y22343494D01*
X49763049Y22176902D01*
X49763563Y22057149D01*
X49763563Y21616341D01*
X49639483Y21560717D01*
X49515402Y21505093D01*
X49500805Y21987905D01*
X49494773Y22168221D01*
X49488445Y22299099D01*
X49480606Y22389489D01*
X49470037Y22448336D01*
X49455523Y22484587D01*
X49435848Y22507190D01*
X49429535Y22512083D01*
X49333888Y22550294D01*
X49237207Y22535173D01*
X49179655Y22495057D01*
X49156245Y22466630D01*
X49140039Y22429328D01*
X49129741Y22372777D01*
X49124049Y22286606D01*
X49121664Y22160442D01*
X49121264Y22028958D01*
X49121186Y21864001D01*
X49118361Y21747239D01*
X49108907Y21668490D01*
X49088940Y21617569D01*
X49054576Y21584294D01*
X49001932Y21558480D01*
X48931617Y21531656D01*
X48854820Y21502458D01*
X48863962Y22020654D01*
X48867643Y22207461D01*
X48871950Y22345510D01*
X48878123Y22444432D01*
X48887402Y22513855D01*
X48901027Y22563410D01*
X48920239Y22602727D01*
X48943402Y22637416D01*
X49055152Y22748230D01*
X49191513Y22812311D01*
X49339825Y22827661D01*
X49487429Y22792281D01*
G37*
X49487429Y22792281D02*
X49581123Y22738086D01*
X49646264Y22684293D01*
X49693907Y22627934D01*
X49726728Y22559013D01*
X49747406Y22467532D01*
X49758620Y22343494D01*
X49763049Y22176902D01*
X49763563Y22057149D01*
X49763563Y21616341D01*
X49639483Y21560717D01*
X49515402Y21505093D01*
X49500805Y21987905D01*
X49494773Y22168221D01*
X49488445Y22299099D01*
X49480606Y22389489D01*
X49470037Y22448336D01*
X49455523Y22484587D01*
X49435848Y22507190D01*
X49429535Y22512083D01*
X49333888Y22550294D01*
X49237207Y22535173D01*
X49179655Y22495057D01*
X49156245Y22466630D01*
X49140039Y22429328D01*
X49129741Y22372777D01*
X49124049Y22286606D01*
X49121664Y22160442D01*
X49121264Y22028958D01*
X49121186Y21864001D01*
X49118361Y21747239D01*
X49108907Y21668490D01*
X49088940Y21617569D01*
X49054576Y21584294D01*
X49001932Y21558480D01*
X48931617Y21531656D01*
X48854820Y21502458D01*
X48863962Y22020654D01*
X48867643Y22207461D01*
X48871950Y22345510D01*
X48878123Y22444432D01*
X48887402Y22513855D01*
X48901027Y22563410D01*
X48920239Y22602727D01*
X48943402Y22637416D01*
X49055152Y22748230D01*
X49191513Y22812311D01*
X49339825Y22827661D01*
X49487429Y22792281D01*
G36*
X46118221Y22803985D02*
G01*
X46255061Y22732032D01*
X46356051Y22616234D01*
X46391925Y22541787D01*
X46419839Y22430008D01*
X46434129Y22288773D01*
X46435484Y22134629D01*
X46424595Y21984121D01*
X46402153Y21853795D01*
X46368850Y21760197D01*
X46358615Y21744078D01*
X46237382Y21623751D01*
X46093387Y21551683D01*
X45937139Y21530592D01*
X45779148Y21563198D01*
X45735180Y21582747D01*
X45649556Y21642988D01*
X45574408Y21722865D01*
X45567306Y21732996D01*
X45538439Y21781819D01*
X45519357Y21834010D01*
X45508084Y21902715D01*
X45502645Y22001082D01*
X45501062Y22142256D01*
X45501035Y22173908D01*
X45501107Y22183981D01*
X45792989Y22183981D01*
X45794687Y22050744D01*
X45801372Y21962326D01*
X45815425Y21905215D01*
X45839229Y21865898D01*
X45851379Y21852759D01*
X45921236Y21802828D01*
X45989059Y21805105D01*
X46057635Y21848416D01*
X46098535Y21894654D01*
X46122758Y21962143D01*
X46136361Y22068567D01*
X46137294Y22080980D01*
X46139616Y22273853D01*
X46115350Y22417100D01*
X46064824Y22509840D01*
X45988368Y22551193D01*
X45961076Y22553448D01*
X45889411Y22542107D01*
X45840390Y22502816D01*
X45810418Y22427674D01*
X45795899Y22308778D01*
X45792989Y22183981D01*
X45501107Y22183981D01*
X45502122Y22324341D01*
X45506688Y22429451D01*
X45516688Y22502286D01*
X45534079Y22555892D01*
X45560816Y22603319D01*
X45566724Y22612136D01*
X45666032Y22730993D01*
X45774242Y22799992D01*
X45905981Y22827381D01*
X45950717Y22828719D01*
X46118221Y22803985D01*
G37*
X46118221Y22803985D02*
X46255061Y22732032D01*
X46356051Y22616234D01*
X46391925Y22541787D01*
X46419839Y22430008D01*
X46434129Y22288773D01*
X46435484Y22134629D01*
X46424595Y21984121D01*
X46402153Y21853795D01*
X46368850Y21760197D01*
X46358615Y21744078D01*
X46237382Y21623751D01*
X46093387Y21551683D01*
X45937139Y21530592D01*
X45779148Y21563198D01*
X45735180Y21582747D01*
X45649556Y21642988D01*
X45574408Y21722865D01*
X45567306Y21732996D01*
X45538439Y21781819D01*
X45519357Y21834010D01*
X45508084Y21902715D01*
X45502645Y22001082D01*
X45501062Y22142256D01*
X45501035Y22173908D01*
X45501107Y22183981D01*
X45792989Y22183981D01*
X45794687Y22050744D01*
X45801372Y21962326D01*
X45815425Y21905215D01*
X45839229Y21865898D01*
X45851379Y21852759D01*
X45921236Y21802828D01*
X45989059Y21805105D01*
X46057635Y21848416D01*
X46098535Y21894654D01*
X46122758Y21962143D01*
X46136361Y22068567D01*
X46137294Y22080980D01*
X46139616Y22273853D01*
X46115350Y22417100D01*
X46064824Y22509840D01*
X45988368Y22551193D01*
X45961076Y22553448D01*
X45889411Y22542107D01*
X45840390Y22502816D01*
X45810418Y22427674D01*
X45795899Y22308778D01*
X45792989Y22183981D01*
X45501107Y22183981D01*
X45502122Y22324341D01*
X45506688Y22429451D01*
X45516688Y22502286D01*
X45534079Y22555892D01*
X45560816Y22603319D01*
X45566724Y22612136D01*
X45666032Y22730993D01*
X45774242Y22799992D01*
X45905981Y22827381D01*
X45950717Y22828719D01*
X46118221Y22803985D01*
G36*
X48385552Y22785324D02*
G01*
X48500658Y22707889D01*
X48589611Y22596051D01*
X48642749Y22453735D01*
X48653497Y22348985D01*
X48652276Y22305274D01*
X48642056Y22271806D01*
X48613961Y22241821D01*
X48559116Y22208560D01*
X48468645Y22165262D01*
X48333672Y22105167D01*
X48332989Y22104866D01*
X48208751Y22047963D01*
X48106873Y21997435D01*
X48037767Y21958720D01*
X48011846Y21937260D01*
X48011839Y21937087D01*
X48034685Y21890356D01*
X48088109Y21838846D01*
X48149442Y21801739D01*
X48180515Y21794368D01*
X48265289Y21819862D01*
X48338293Y21883709D01*
X48373913Y21953906D01*
X48408180Y22005657D01*
X48475303Y22064591D01*
X48554208Y22115504D01*
X48623821Y22143191D01*
X48638377Y22144713D01*
X48654763Y22119679D01*
X48655750Y22055689D01*
X48643708Y21969407D01*
X48621007Y21877499D01*
X48590014Y21796631D01*
X48588448Y21793491D01*
X48495181Y21663266D01*
X48374304Y21574689D01*
X48237027Y21531214D01*
X48094560Y21536294D01*
X47958112Y21593384D01*
X47952045Y21597398D01*
X47844710Y21694674D01*
X47774132Y21821591D01*
X47735074Y21988474D01*
X47729832Y22035361D01*
X47720548Y22256671D01*
X47731678Y22359876D01*
X48011839Y22359876D01*
X48015479Y22295497D01*
X48035389Y22276709D01*
X48085026Y22290765D01*
X48163267Y22323991D01*
X48250726Y22365641D01*
X48252899Y22366744D01*
X48327030Y22405735D01*
X48356781Y22431756D01*
X48349445Y22459035D01*
X48318553Y22494879D01*
X48239960Y22546749D01*
X48155323Y22550561D01*
X48079403Y22512811D01*
X48026965Y22439999D01*
X48011839Y22359876D01*
X47731678Y22359876D01*
X47739644Y22433739D01*
X47788634Y22574171D01*
X47856836Y22672553D01*
X47979935Y22771970D01*
X48115528Y22821289D01*
X48253955Y22824432D01*
X48385552Y22785324D01*
G37*
X48385552Y22785324D02*
X48500658Y22707889D01*
X48589611Y22596051D01*
X48642749Y22453735D01*
X48653497Y22348985D01*
X48652276Y22305274D01*
X48642056Y22271806D01*
X48613961Y22241821D01*
X48559116Y22208560D01*
X48468645Y22165262D01*
X48333672Y22105167D01*
X48332989Y22104866D01*
X48208751Y22047963D01*
X48106873Y21997435D01*
X48037767Y21958720D01*
X48011846Y21937260D01*
X48011839Y21937087D01*
X48034685Y21890356D01*
X48088109Y21838846D01*
X48149442Y21801739D01*
X48180515Y21794368D01*
X48265289Y21819862D01*
X48338293Y21883709D01*
X48373913Y21953906D01*
X48408180Y22005657D01*
X48475303Y22064591D01*
X48554208Y22115504D01*
X48623821Y22143191D01*
X48638377Y22144713D01*
X48654763Y22119679D01*
X48655750Y22055689D01*
X48643708Y21969407D01*
X48621007Y21877499D01*
X48590014Y21796631D01*
X48588448Y21793491D01*
X48495181Y21663266D01*
X48374304Y21574689D01*
X48237027Y21531214D01*
X48094560Y21536294D01*
X47958112Y21593384D01*
X47952045Y21597398D01*
X47844710Y21694674D01*
X47774132Y21821591D01*
X47735074Y21988474D01*
X47729832Y22035361D01*
X47720548Y22256671D01*
X47731678Y22359876D01*
X48011839Y22359876D01*
X48015479Y22295497D01*
X48035389Y22276709D01*
X48085026Y22290765D01*
X48163267Y22323991D01*
X48250726Y22365641D01*
X48252899Y22366744D01*
X48327030Y22405735D01*
X48356781Y22431756D01*
X48349445Y22459035D01*
X48318553Y22494879D01*
X48239960Y22546749D01*
X48155323Y22550561D01*
X48079403Y22512811D01*
X48026965Y22439999D01*
X48011839Y22359876D01*
X47731678Y22359876D01*
X47739644Y22433739D01*
X47788634Y22574171D01*
X47856836Y22672553D01*
X47979935Y22771970D01*
X48115528Y22821289D01*
X48253955Y22824432D01*
X48385552Y22785324D01*
G36*
X50814598Y22946143D02*
G01*
X50823154Y22826812D01*
X50832981Y22756494D01*
X50846599Y22725821D01*
X50866527Y22725429D01*
X50872989Y22729090D01*
X50958940Y22755602D01*
X51070745Y22754054D01*
X51184414Y22726801D01*
X51255510Y22691545D01*
X51328405Y22635222D01*
X51381693Y22571481D01*
X51418275Y22490490D01*
X51441050Y22382414D01*
X51452919Y22237420D01*
X51456782Y22045674D01*
X51456851Y22008891D01*
X51456897Y21595712D01*
X51364954Y21563661D01*
X51299652Y21541856D01*
X51263824Y21531703D01*
X51262770Y21531609D01*
X51259242Y21559140D01*
X51256239Y21635077D01*
X51253990Y21749435D01*
X51252724Y21892231D01*
X51252529Y21979049D01*
X51252123Y22150227D01*
X51250032Y22272912D01*
X51244947Y22357000D01*
X51235560Y22412386D01*
X51220561Y22448968D01*
X51198642Y22476641D01*
X51184957Y22489968D01*
X51090949Y22543672D01*
X50988364Y22547693D01*
X50895290Y22502275D01*
X50878078Y22485877D01*
X50852832Y22455043D01*
X50835320Y22418469D01*
X50824142Y22365585D01*
X50817896Y22285823D01*
X50815182Y22168615D01*
X50814598Y22007009D01*
X50814598Y21595712D01*
X50722655Y21563661D01*
X50657353Y21541856D01*
X50621525Y21531703D01*
X50620471Y21531609D01*
X50617775Y21559552D01*
X50615345Y21638370D01*
X50613278Y21760547D01*
X50611671Y21918568D01*
X50610623Y22104917D01*
X50610231Y22312080D01*
X50610230Y22321294D01*
X50610230Y23110980D01*
X50705115Y23151003D01*
X50800000Y23191027D01*
X50814598Y22946143D01*
G37*
X50814598Y22946143D02*
X50823154Y22826812D01*
X50832981Y22756494D01*
X50846599Y22725821D01*
X50866527Y22725429D01*
X50872989Y22729090D01*
X50958940Y22755602D01*
X51070745Y22754054D01*
X51184414Y22726801D01*
X51255510Y22691545D01*
X51328405Y22635222D01*
X51381693Y22571481D01*
X51418275Y22490490D01*
X51441050Y22382414D01*
X51452919Y22237420D01*
X51456782Y22045674D01*
X51456851Y22008891D01*
X51456897Y21595712D01*
X51364954Y21563661D01*
X51299652Y21541856D01*
X51263824Y21531703D01*
X51262770Y21531609D01*
X51259242Y21559140D01*
X51256239Y21635077D01*
X51253990Y21749435D01*
X51252724Y21892231D01*
X51252529Y21979049D01*
X51252123Y22150227D01*
X51250032Y22272912D01*
X51244947Y22357000D01*
X51235560Y22412386D01*
X51220561Y22448968D01*
X51198642Y22476641D01*
X51184957Y22489968D01*
X51090949Y22543672D01*
X50988364Y22547693D01*
X50895290Y22502275D01*
X50878078Y22485877D01*
X50852832Y22455043D01*
X50835320Y22418469D01*
X50824142Y22365585D01*
X50817896Y22285823D01*
X50815182Y22168615D01*
X50814598Y22007009D01*
X50814598Y21595712D01*
X50722655Y21563661D01*
X50657353Y21541856D01*
X50621525Y21531703D01*
X50620471Y21531609D01*
X50617775Y21559552D01*
X50615345Y21638370D01*
X50613278Y21760547D01*
X50611671Y21918568D01*
X50610623Y22104917D01*
X50610231Y22312080D01*
X50610230Y22321294D01*
X50610230Y23110980D01*
X50705115Y23151003D01*
X50800000Y23191027D01*
X50814598Y22946143D01*
G36*
X52149944Y22745640D02*
G01*
X52264343Y22703158D01*
X52265652Y22702342D01*
X52336403Y22650270D01*
X52388636Y22589416D01*
X52425371Y22510113D01*
X52449634Y22402691D01*
X52464445Y22257483D01*
X52472829Y22064821D01*
X52473564Y22037372D01*
X52484120Y21623479D01*
X52395291Y21577544D01*
X52331018Y21546502D01*
X52292210Y21531794D01*
X52290415Y21531609D01*
X52283700Y21558750D01*
X52278365Y21631959D01*
X52275083Y21738919D01*
X52274368Y21825531D01*
X52274351Y21965838D01*
X52267937Y22053949D01*
X52245580Y22095975D01*
X52197732Y22098025D01*
X52114849Y22066210D01*
X51989713Y22007728D01*
X51897697Y21959155D01*
X51850371Y21917014D01*
X51836458Y21871084D01*
X51836437Y21868811D01*
X51859395Y21789689D01*
X51927370Y21746945D01*
X52031398Y21740754D01*
X52106330Y21741828D01*
X52145839Y21720247D01*
X52170478Y21668409D01*
X52184659Y21602368D01*
X52164223Y21564896D01*
X52156528Y21559533D01*
X52084083Y21537994D01*
X51982633Y21534945D01*
X51878157Y21549222D01*
X51804125Y21575312D01*
X51701772Y21662215D01*
X51643591Y21783184D01*
X51632069Y21877692D01*
X51640862Y21962938D01*
X51672680Y22032524D01*
X51735684Y22094328D01*
X51838031Y22156228D01*
X51987882Y22226103D01*
X51997012Y22230052D01*
X52131997Y22292412D01*
X52215294Y22343554D01*
X52250997Y22389512D01*
X52243203Y22436317D01*
X52196007Y22490002D01*
X52181894Y22502356D01*
X52087359Y22550259D01*
X51989406Y22548242D01*
X51904097Y22501276D01*
X51847496Y22414331D01*
X51842237Y22397266D01*
X51791023Y22314496D01*
X51726037Y22274628D01*
X51632069Y22235118D01*
X51632069Y22337342D01*
X51660653Y22485928D01*
X51745495Y22622216D01*
X51789645Y22667809D01*
X51890005Y22726326D01*
X52017635Y22752816D01*
X52149944Y22745640D01*
G37*
X52149944Y22745640D02*
X52264343Y22703158D01*
X52265652Y22702342D01*
X52336403Y22650270D01*
X52388636Y22589416D01*
X52425371Y22510113D01*
X52449634Y22402691D01*
X52464445Y22257483D01*
X52472829Y22064821D01*
X52473564Y22037372D01*
X52484120Y21623479D01*
X52395291Y21577544D01*
X52331018Y21546502D01*
X52292210Y21531794D01*
X52290415Y21531609D01*
X52283700Y21558750D01*
X52278365Y21631959D01*
X52275083Y21738919D01*
X52274368Y21825531D01*
X52274351Y21965838D01*
X52267937Y22053949D01*
X52245580Y22095975D01*
X52197732Y22098025D01*
X52114849Y22066210D01*
X51989713Y22007728D01*
X51897697Y21959155D01*
X51850371Y21917014D01*
X51836458Y21871084D01*
X51836437Y21868811D01*
X51859395Y21789689D01*
X51927370Y21746945D01*
X52031398Y21740754D01*
X52106330Y21741828D01*
X52145839Y21720247D01*
X52170478Y21668409D01*
X52184659Y21602368D01*
X52164223Y21564896D01*
X52156528Y21559533D01*
X52084083Y21537994D01*
X51982633Y21534945D01*
X51878157Y21549222D01*
X51804125Y21575312D01*
X51701772Y21662215D01*
X51643591Y21783184D01*
X51632069Y21877692D01*
X51640862Y21962938D01*
X51672680Y22032524D01*
X51735684Y22094328D01*
X51838031Y22156228D01*
X51987882Y22226103D01*
X51997012Y22230052D01*
X52131997Y22292412D01*
X52215294Y22343554D01*
X52250997Y22389512D01*
X52243203Y22436317D01*
X52196007Y22490002D01*
X52181894Y22502356D01*
X52087359Y22550259D01*
X51989406Y22548242D01*
X51904097Y22501276D01*
X51847496Y22414331D01*
X51842237Y22397266D01*
X51791023Y22314496D01*
X51726037Y22274628D01*
X51632069Y22235118D01*
X51632069Y22337342D01*
X51660653Y22485928D01*
X51745495Y22622216D01*
X51789645Y22667809D01*
X51890005Y22726326D01*
X52017635Y22752816D01*
X52149944Y22745640D01*
G36*
X53135943Y22748080D02*
G01*
X53268565Y22699141D01*
X53376010Y22612581D01*
X53418032Y22551648D01*
X53463843Y22439839D01*
X53462891Y22358994D01*
X53414808Y22304622D01*
X53397017Y22295376D01*
X53320204Y22266550D01*
X53280976Y22273935D01*
X53267689Y22322342D01*
X53267012Y22349080D01*
X53242686Y22447452D01*
X53179281Y22516266D01*
X53091154Y22549502D01*
X52992663Y22541139D01*
X52912602Y22497704D01*
X52885561Y22472928D01*
X52866394Y22442871D01*
X52853446Y22397435D01*
X52845064Y22326524D01*
X52839593Y22220040D01*
X52835378Y22067888D01*
X52834287Y22019713D01*
X52830307Y21854905D01*
X52825781Y21738912D01*
X52818995Y21662167D01*
X52808231Y21615107D01*
X52791773Y21588165D01*
X52767906Y21571777D01*
X52752626Y21564537D01*
X52687733Y21539780D01*
X52649534Y21531609D01*
X52636912Y21558897D01*
X52629208Y21641397D01*
X52626380Y21780059D01*
X52628386Y21975838D01*
X52629011Y22006035D01*
X52633421Y22184651D01*
X52638635Y22315077D01*
X52646055Y22407508D01*
X52657082Y22472142D01*
X52673117Y22519175D01*
X52695561Y22558804D01*
X52707302Y22575785D01*
X52774619Y22650920D01*
X52849910Y22709362D01*
X52859128Y22714464D01*
X52994133Y22754740D01*
X53135943Y22748080D01*
G37*
X53135943Y22748080D02*
X53268565Y22699141D01*
X53376010Y22612581D01*
X53418032Y22551648D01*
X53463843Y22439839D01*
X53462891Y22358994D01*
X53414808Y22304622D01*
X53397017Y22295376D01*
X53320204Y22266550D01*
X53280976Y22273935D01*
X53267689Y22322342D01*
X53267012Y22349080D01*
X53242686Y22447452D01*
X53179281Y22516266D01*
X53091154Y22549502D01*
X52992663Y22541139D01*
X52912602Y22497704D01*
X52885561Y22472928D01*
X52866394Y22442871D01*
X52853446Y22397435D01*
X52845064Y22326524D01*
X52839593Y22220040D01*
X52835378Y22067888D01*
X52834287Y22019713D01*
X52830307Y21854905D01*
X52825781Y21738912D01*
X52818995Y21662167D01*
X52808231Y21615107D01*
X52791773Y21588165D01*
X52767906Y21571777D01*
X52752626Y21564537D01*
X52687733Y21539780D01*
X52649534Y21531609D01*
X52636912Y21558897D01*
X52629208Y21641397D01*
X52626380Y21780059D01*
X52628386Y21975838D01*
X52629011Y22006035D01*
X52633421Y22184651D01*
X52638635Y22315077D01*
X52646055Y22407508D01*
X52657082Y22472142D01*
X52673117Y22519175D01*
X52695561Y22558804D01*
X52707302Y22575785D01*
X52774619Y22650920D01*
X52849910Y22709362D01*
X52859128Y22714464D01*
X52994133Y22754740D01*
X53135943Y22748080D01*
G36*
X54463914Y22515545D02*
G01*
X54463543Y22297339D01*
X54462108Y22129481D01*
X54459002Y22003930D01*
X54453622Y21912645D01*
X54445362Y21847585D01*
X54433616Y21800709D01*
X54417781Y21763976D01*
X54405790Y21743009D01*
X54306490Y21629306D01*
X54180588Y21558035D01*
X54041291Y21532462D01*
X53901805Y21555850D01*
X53818743Y21597881D01*
X53731545Y21670589D01*
X53672117Y21759388D01*
X53636261Y21875680D01*
X53619781Y22030865D01*
X53617447Y22144713D01*
X53617761Y22152894D01*
X53821724Y22152894D01*
X53822970Y22022343D01*
X53828678Y21935920D01*
X53841804Y21879382D01*
X53865306Y21838486D01*
X53893386Y21807638D01*
X53987688Y21748095D01*
X54088940Y21743008D01*
X54184636Y21792721D01*
X54192084Y21799457D01*
X54223874Y21834498D01*
X54243808Y21876189D01*
X54254600Y21938238D01*
X54258965Y22034356D01*
X54259655Y22140621D01*
X54258159Y22274120D01*
X54251964Y22363178D01*
X54238514Y22421707D01*
X54215251Y22463618D01*
X54196175Y22485877D01*
X54107563Y22542015D01*
X54005508Y22548765D01*
X53908095Y22505886D01*
X53889296Y22489968D01*
X53857293Y22454618D01*
X53837318Y22412498D01*
X53826593Y22349749D01*
X53822339Y22252513D01*
X53821724Y22152894D01*
X53617761Y22152894D01*
X53624504Y22328053D01*
X53648472Y22465805D01*
X53693548Y22569368D01*
X53763928Y22650144D01*
X53818743Y22691545D01*
X53918376Y22736272D01*
X54033855Y22757033D01*
X54141199Y22751475D01*
X54201264Y22729057D01*
X54224835Y22722677D01*
X54240477Y22746465D01*
X54251395Y22810212D01*
X54259655Y22907313D01*
X54268699Y23015459D01*
X54281261Y23080525D01*
X54304119Y23117732D01*
X54344051Y23142301D01*
X54369138Y23153181D01*
X54464023Y23192928D01*
X54463914Y22515545D01*
G37*
X54463914Y22515545D02*
X54463543Y22297339D01*
X54462108Y22129481D01*
X54459002Y22003930D01*
X54453622Y21912645D01*
X54445362Y21847585D01*
X54433616Y21800709D01*
X54417781Y21763976D01*
X54405790Y21743009D01*
X54306490Y21629306D01*
X54180588Y21558035D01*
X54041291Y21532462D01*
X53901805Y21555850D01*
X53818743Y21597881D01*
X53731545Y21670589D01*
X53672117Y21759388D01*
X53636261Y21875680D01*
X53619781Y22030865D01*
X53617447Y22144713D01*
X53617761Y22152894D01*
X53821724Y22152894D01*
X53822970Y22022343D01*
X53828678Y21935920D01*
X53841804Y21879382D01*
X53865306Y21838486D01*
X53893386Y21807638D01*
X53987688Y21748095D01*
X54088940Y21743008D01*
X54184636Y21792721D01*
X54192084Y21799457D01*
X54223874Y21834498D01*
X54243808Y21876189D01*
X54254600Y21938238D01*
X54258965Y22034356D01*
X54259655Y22140621D01*
X54258159Y22274120D01*
X54251964Y22363178D01*
X54238514Y22421707D01*
X54215251Y22463618D01*
X54196175Y22485877D01*
X54107563Y22542015D01*
X54005508Y22548765D01*
X53908095Y22505886D01*
X53889296Y22489968D01*
X53857293Y22454618D01*
X53837318Y22412498D01*
X53826593Y22349749D01*
X53822339Y22252513D01*
X53821724Y22152894D01*
X53617761Y22152894D01*
X53624504Y22328053D01*
X53648472Y22465805D01*
X53693548Y22569368D01*
X53763928Y22650144D01*
X53818743Y22691545D01*
X53918376Y22736272D01*
X54033855Y22757033D01*
X54141199Y22751475D01*
X54201264Y22729057D01*
X54224835Y22722677D01*
X54240477Y22746465D01*
X54251395Y22810212D01*
X54259655Y22907313D01*
X54268699Y23015459D01*
X54281261Y23080525D01*
X54304119Y23117732D01*
X54344051Y23142301D01*
X54369138Y23153181D01*
X54464023Y23192928D01*
X54463914Y22515545D01*
G36*
X55650124Y22730160D02*
G01*
X55654579Y22653347D01*
X55658071Y22536609D01*
X55660315Y22389179D01*
X55661035Y22234545D01*
X55661035Y21711273D01*
X55568645Y21618883D01*
X55504978Y21561953D01*
X55449089Y21538893D01*
X55372702Y21540353D01*
X55342380Y21544066D01*
X55247610Y21554874D01*
X55169222Y21561067D01*
X55150115Y21561639D01*
X55085699Y21557898D01*
X54993571Y21548506D01*
X54957850Y21544066D01*
X54870114Y21537199D01*
X54811153Y21552115D01*
X54752690Y21598165D01*
X54731585Y21618883D01*
X54639195Y21711273D01*
X54639195Y22690053D01*
X54713558Y22723934D01*
X54777590Y22749030D01*
X54815052Y22757816D01*
X54824657Y22730050D01*
X54833635Y22652470D01*
X54841386Y22533652D01*
X54847314Y22382172D01*
X54850173Y22254195D01*
X54858161Y21750575D01*
X54927848Y21740722D01*
X54991229Y21747611D01*
X55022286Y21769917D01*
X55030967Y21811621D01*
X55038378Y21900456D01*
X55043931Y22025166D01*
X55047036Y22174493D01*
X55047484Y22251339D01*
X55047931Y22693713D01*
X55139874Y22725765D01*
X55204949Y22747557D01*
X55240347Y22757719D01*
X55241368Y22757816D01*
X55244920Y22730191D01*
X55248823Y22653589D01*
X55252751Y22537421D01*
X55256376Y22391096D01*
X55258908Y22254195D01*
X55266897Y21750575D01*
X55442069Y21750575D01*
X55450107Y22210035D01*
X55458146Y22669495D01*
X55543543Y22713656D01*
X55606593Y22743981D01*
X55643910Y22757742D01*
X55644987Y22757816D01*
X55650124Y22730160D01*
G37*
X55650124Y22730160D02*
X55654579Y22653347D01*
X55658071Y22536609D01*
X55660315Y22389179D01*
X55661035Y22234545D01*
X55661035Y21711273D01*
X55568645Y21618883D01*
X55504978Y21561953D01*
X55449089Y21538893D01*
X55372702Y21540353D01*
X55342380Y21544066D01*
X55247610Y21554874D01*
X55169222Y21561067D01*
X55150115Y21561639D01*
X55085699Y21557898D01*
X54993571Y21548506D01*
X54957850Y21544066D01*
X54870114Y21537199D01*
X54811153Y21552115D01*
X54752690Y21598165D01*
X54731585Y21618883D01*
X54639195Y21711273D01*
X54639195Y22690053D01*
X54713558Y22723934D01*
X54777590Y22749030D01*
X54815052Y22757816D01*
X54824657Y22730050D01*
X54833635Y22652470D01*
X54841386Y22533652D01*
X54847314Y22382172D01*
X54850173Y22254195D01*
X54858161Y21750575D01*
X54927848Y21740722D01*
X54991229Y21747611D01*
X55022286Y21769917D01*
X55030967Y21811621D01*
X55038378Y21900456D01*
X55043931Y22025166D01*
X55047036Y22174493D01*
X55047484Y22251339D01*
X55047931Y22693713D01*
X55139874Y22725765D01*
X55204949Y22747557D01*
X55240347Y22757719D01*
X55241368Y22757816D01*
X55244920Y22730191D01*
X55248823Y22653589D01*
X55252751Y22537421D01*
X55256376Y22391096D01*
X55258908Y22254195D01*
X55266897Y21750575D01*
X55442069Y21750575D01*
X55450107Y22210035D01*
X55458146Y22669495D01*
X55543543Y22713656D01*
X55606593Y22743981D01*
X55643910Y22757742D01*
X55644987Y22757816D01*
X55650124Y22730160D01*
G36*
X56384406Y22734844D02*
G01*
X56468469Y22696607D01*
X56534450Y22650274D01*
X56582794Y22598468D01*
X56616172Y22531637D01*
X56637253Y22440231D01*
X56648707Y22314699D01*
X56653203Y22145492D01*
X56653678Y22034067D01*
X56653678Y21599373D01*
X56579316Y21565491D01*
X56520746Y21540728D01*
X56491730Y21531609D01*
X56486179Y21558743D01*
X56481775Y21631906D01*
X56479078Y21738737D01*
X56478506Y21823563D01*
X56476046Y21946113D01*
X56469412Y22043332D01*
X56459726Y22102866D01*
X56452032Y22115517D01*
X56400311Y22102598D01*
X56319117Y22069461D01*
X56225102Y22024539D01*
X56134917Y21976265D01*
X56065215Y21933072D01*
X56032648Y21903392D01*
X56032519Y21903071D01*
X56035320Y21848143D01*
X56060439Y21795708D01*
X56104541Y21753119D01*
X56168909Y21738874D01*
X56223921Y21740534D01*
X56301835Y21741755D01*
X56342732Y21723502D01*
X56367295Y21675274D01*
X56370392Y21666180D01*
X56381040Y21597402D01*
X56352565Y21555640D01*
X56278344Y21535737D01*
X56198168Y21532056D01*
X56053890Y21559342D01*
X55979203Y21598310D01*
X55886963Y21689852D01*
X55838043Y21802218D01*
X55833654Y21920949D01*
X55875001Y22031589D01*
X55937197Y22100920D01*
X55999294Y22139735D01*
X56096895Y22188875D01*
X56210632Y22238708D01*
X56229590Y22246323D01*
X56354521Y22301455D01*
X56426539Y22350046D01*
X56449700Y22398353D01*
X56428064Y22452630D01*
X56390920Y22495057D01*
X56303127Y22547298D01*
X56206530Y22551216D01*
X56117944Y22510959D01*
X56054186Y22430674D01*
X56045817Y22409960D01*
X55997096Y22333775D01*
X55925965Y22277215D01*
X55836207Y22230799D01*
X55836207Y22362416D01*
X55841490Y22442832D01*
X55864142Y22506214D01*
X55914367Y22573837D01*
X55962582Y22625924D01*
X56037554Y22699678D01*
X56095806Y22739298D01*
X56158372Y22755190D01*
X56229193Y22757816D01*
X56384406Y22734844D01*
G37*
X56384406Y22734844D02*
X56468469Y22696607D01*
X56534450Y22650274D01*
X56582794Y22598468D01*
X56616172Y22531637D01*
X56637253Y22440231D01*
X56648707Y22314699D01*
X56653203Y22145492D01*
X56653678Y22034067D01*
X56653678Y21599373D01*
X56579316Y21565491D01*
X56520746Y21540728D01*
X56491730Y21531609D01*
X56486179Y21558743D01*
X56481775Y21631906D01*
X56479078Y21738737D01*
X56478506Y21823563D01*
X56476046Y21946113D01*
X56469412Y22043332D01*
X56459726Y22102866D01*
X56452032Y22115517D01*
X56400311Y22102598D01*
X56319117Y22069461D01*
X56225102Y22024539D01*
X56134917Y21976265D01*
X56065215Y21933072D01*
X56032648Y21903392D01*
X56032519Y21903071D01*
X56035320Y21848143D01*
X56060439Y21795708D01*
X56104541Y21753119D01*
X56168909Y21738874D01*
X56223921Y21740534D01*
X56301835Y21741755D01*
X56342732Y21723502D01*
X56367295Y21675274D01*
X56370392Y21666180D01*
X56381040Y21597402D01*
X56352565Y21555640D01*
X56278344Y21535737D01*
X56198168Y21532056D01*
X56053890Y21559342D01*
X55979203Y21598310D01*
X55886963Y21689852D01*
X55838043Y21802218D01*
X55833654Y21920949D01*
X55875001Y22031589D01*
X55937197Y22100920D01*
X55999294Y22139735D01*
X56096895Y22188875D01*
X56210632Y22238708D01*
X56229590Y22246323D01*
X56354521Y22301455D01*
X56426539Y22350046D01*
X56449700Y22398353D01*
X56428064Y22452630D01*
X56390920Y22495057D01*
X56303127Y22547298D01*
X56206530Y22551216D01*
X56117944Y22510959D01*
X56054186Y22430674D01*
X56045817Y22409960D01*
X55997096Y22333775D01*
X55925965Y22277215D01*
X55836207Y22230799D01*
X55836207Y22362416D01*
X55841490Y22442832D01*
X55864142Y22506214D01*
X55914367Y22573837D01*
X55962582Y22625924D01*
X56037554Y22699678D01*
X56095806Y22739298D01*
X56158372Y22755190D01*
X56229193Y22757816D01*
X56384406Y22734844D01*
G36*
X57405690Y22729982D02*
G01*
X57440585Y22714731D01*
X57523877Y22648765D01*
X57595103Y22553382D01*
X57639153Y22451594D01*
X57646322Y22401413D01*
X57622285Y22331353D01*
X57569561Y22294283D01*
X57513031Y22271836D01*
X57487146Y22267700D01*
X57474542Y22297717D01*
X57449654Y22363039D01*
X57438735Y22392555D01*
X57377508Y22494652D01*
X57288861Y22545577D01*
X57175193Y22544011D01*
X57166774Y22542006D01*
X57106088Y22513233D01*
X57061474Y22457141D01*
X57031002Y22366837D01*
X57012744Y22235429D01*
X57004771Y22056026D01*
X57004023Y21960567D01*
X57003652Y21810087D01*
X57001223Y21707505D01*
X56994760Y21642328D01*
X56982288Y21604062D01*
X56961833Y21582215D01*
X56931419Y21566293D01*
X56929661Y21565491D01*
X56871091Y21540728D01*
X56842075Y21531609D01*
X56837616Y21559178D01*
X56833799Y21635380D01*
X56830899Y21750459D01*
X56829191Y21894659D01*
X56828851Y22000186D01*
X56830588Y22204387D01*
X56837382Y22359303D01*
X56851607Y22473976D01*
X56875638Y22557449D01*
X56911848Y22618764D01*
X56962612Y22666966D01*
X57012739Y22700607D01*
X57133275Y22745381D01*
X57273557Y22755479D01*
X57405690Y22729982D01*
G37*
X57405690Y22729982D02*
X57440585Y22714731D01*
X57523877Y22648765D01*
X57595103Y22553382D01*
X57639153Y22451594D01*
X57646322Y22401413D01*
X57622285Y22331353D01*
X57569561Y22294283D01*
X57513031Y22271836D01*
X57487146Y22267700D01*
X57474542Y22297717D01*
X57449654Y22363039D01*
X57438735Y22392555D01*
X57377508Y22494652D01*
X57288861Y22545577D01*
X57175193Y22544011D01*
X57166774Y22542006D01*
X57106088Y22513233D01*
X57061474Y22457141D01*
X57031002Y22366837D01*
X57012744Y22235429D01*
X57004771Y22056026D01*
X57004023Y21960567D01*
X57003652Y21810087D01*
X57001223Y21707505D01*
X56994760Y21642328D01*
X56982288Y21604062D01*
X56961833Y21582215D01*
X56931419Y21566293D01*
X56929661Y21565491D01*
X56871091Y21540728D01*
X56842075Y21531609D01*
X56837616Y21559178D01*
X56833799Y21635380D01*
X56830899Y21750459D01*
X56829191Y21894659D01*
X56828851Y22000186D01*
X56830588Y22204387D01*
X56837382Y22359303D01*
X56851607Y22473976D01*
X56875638Y22557449D01*
X56911848Y22618764D01*
X56962612Y22666966D01*
X57012739Y22700607D01*
X57133275Y22745381D01*
X57273557Y22755479D01*
X57405690Y22729982D01*
G36*
X58413439Y22713460D02*
G01*
X58528950Y22637966D01*
X58584664Y22570383D01*
X58628804Y22447745D01*
X58632309Y22350702D01*
X58624368Y22220944D01*
X58325115Y22089961D01*
X58179611Y22023042D01*
X58084537Y21969210D01*
X58035101Y21922584D01*
X58026511Y21877280D01*
X58053972Y21827418D01*
X58084253Y21794368D01*
X58172363Y21741367D01*
X58268196Y21737653D01*
X58356212Y21778959D01*
X58420869Y21861017D01*
X58432433Y21889992D01*
X58487825Y21980491D01*
X58551553Y22019060D01*
X58638966Y22052054D01*
X58638966Y21926966D01*
X58631238Y21841844D01*
X58600966Y21770062D01*
X58537518Y21687644D01*
X58528088Y21676934D01*
X58457513Y21603609D01*
X58396847Y21564258D01*
X58320950Y21546155D01*
X58258030Y21540226D01*
X58145487Y21538749D01*
X58065370Y21557465D01*
X58015390Y21585253D01*
X57936838Y21646359D01*
X57882463Y21712446D01*
X57848052Y21795559D01*
X57829388Y21907746D01*
X57822256Y22061054D01*
X57821687Y22138864D01*
X57823622Y22232147D01*
X57999899Y22232147D01*
X58001944Y22182104D01*
X58007039Y22173908D01*
X58040666Y22185042D01*
X58113030Y22214507D01*
X58209747Y22256399D01*
X58229973Y22265403D01*
X58352203Y22327558D01*
X58419547Y22382185D01*
X58434348Y22433351D01*
X58398947Y22485124D01*
X58369711Y22508000D01*
X58264216Y22553750D01*
X58165476Y22546192D01*
X58082812Y22490349D01*
X58025548Y22391247D01*
X58007188Y22312586D01*
X57999899Y22232147D01*
X57823622Y22232147D01*
X57825459Y22320649D01*
X57839359Y22455147D01*
X57866894Y22553084D01*
X57911572Y22625189D01*
X57976901Y22682187D01*
X58005383Y22700607D01*
X58134763Y22748578D01*
X58276412Y22751597D01*
X58413439Y22713460D01*
G37*
X58413439Y22713460D02*
X58528950Y22637966D01*
X58584664Y22570383D01*
X58628804Y22447745D01*
X58632309Y22350702D01*
X58624368Y22220944D01*
X58325115Y22089961D01*
X58179611Y22023042D01*
X58084537Y21969210D01*
X58035101Y21922584D01*
X58026511Y21877280D01*
X58053972Y21827418D01*
X58084253Y21794368D01*
X58172363Y21741367D01*
X58268196Y21737653D01*
X58356212Y21778959D01*
X58420869Y21861017D01*
X58432433Y21889992D01*
X58487825Y21980491D01*
X58551553Y22019060D01*
X58638966Y22052054D01*
X58638966Y21926966D01*
X58631238Y21841844D01*
X58600966Y21770062D01*
X58537518Y21687644D01*
X58528088Y21676934D01*
X58457513Y21603609D01*
X58396847Y21564258D01*
X58320950Y21546155D01*
X58258030Y21540226D01*
X58145487Y21538749D01*
X58065370Y21557465D01*
X58015390Y21585253D01*
X57936838Y21646359D01*
X57882463Y21712446D01*
X57848052Y21795559D01*
X57829388Y21907746D01*
X57822256Y22061054D01*
X57821687Y22138864D01*
X57823622Y22232147D01*
X57999899Y22232147D01*
X58001944Y22182104D01*
X58007039Y22173908D01*
X58040666Y22185042D01*
X58113030Y22214507D01*
X58209747Y22256399D01*
X58229973Y22265403D01*
X58352203Y22327558D01*
X58419547Y22382185D01*
X58434348Y22433351D01*
X58398947Y22485124D01*
X58369711Y22508000D01*
X58264216Y22553750D01*
X58165476Y22546192D01*
X58082812Y22490349D01*
X58025548Y22391247D01*
X58007188Y22312586D01*
X57999899Y22232147D01*
X57823622Y22232147D01*
X57825459Y22320649D01*
X57839359Y22455147D01*
X57866894Y22553084D01*
X57911572Y22625189D01*
X57976901Y22682187D01*
X58005383Y22700607D01*
X58134763Y22748578D01*
X58276412Y22751597D01*
X58413439Y22713460D01*
G36*
X52279014Y32217002D02*
G01*
X52437006Y32216137D01*
X52551347Y32213795D01*
X52629407Y32209238D01*
X52678554Y32201730D01*
X52706159Y32190534D01*
X52719592Y32174912D01*
X52726221Y32154127D01*
X52726865Y32151437D01*
X52736935Y32102887D01*
X52755575Y32007095D01*
X52780845Y31874257D01*
X52810807Y31714569D01*
X52843522Y31538226D01*
X52844664Y31532033D01*
X52877433Y31359218D01*
X52908093Y31206531D01*
X52934664Y31083129D01*
X52955167Y30998169D01*
X52967626Y30960810D01*
X52968220Y30960148D01*
X53004919Y30941905D01*
X53080586Y30911503D01*
X53178878Y30875507D01*
X53179425Y30875315D01*
X53303233Y30828778D01*
X53449196Y30769496D01*
X53586781Y30709891D01*
X53593293Y30706944D01*
X53817390Y30605235D01*
X54313619Y30944103D01*
X54465846Y31047408D01*
X54603741Y31139763D01*
X54719315Y31215916D01*
X54804579Y31270615D01*
X54851544Y31298607D01*
X54856004Y31300683D01*
X54890134Y31291440D01*
X54953881Y31246844D01*
X55049731Y31164791D01*
X55180169Y31043179D01*
X55313328Y30913795D01*
X55441694Y30786298D01*
X55556581Y30669954D01*
X55651073Y30571948D01*
X55718253Y30499464D01*
X55751206Y30459687D01*
X55752432Y30457639D01*
X55756074Y30430344D01*
X55742350Y30385766D01*
X55707869Y30317888D01*
X55649239Y30220689D01*
X55563070Y30088149D01*
X55448200Y29917524D01*
X55346254Y29767345D01*
X55255123Y29632650D01*
X55180073Y29521260D01*
X55126369Y29440995D01*
X55099280Y29399675D01*
X55097574Y29396870D01*
X55100882Y29357279D01*
X55125953Y29280331D01*
X55167798Y29180568D01*
X55182712Y29148709D01*
X55247786Y29006774D01*
X55317212Y28845727D01*
X55373609Y28706379D01*
X55414247Y28602956D01*
X55446526Y28524358D01*
X55465178Y28483280D01*
X55467497Y28480115D01*
X55501803Y28474872D01*
X55582669Y28460506D01*
X55699343Y28439063D01*
X55841075Y28412587D01*
X55997110Y28383123D01*
X56156698Y28352717D01*
X56309085Y28323412D01*
X56443521Y28297255D01*
X56549252Y28276290D01*
X56615526Y28262561D01*
X56631782Y28258680D01*
X56648573Y28249100D01*
X56661249Y28227464D01*
X56670378Y28186469D01*
X56676531Y28118811D01*
X56680280Y28017188D01*
X56682192Y27874297D01*
X56682840Y27682835D01*
X56682874Y27604355D01*
X56682874Y26966094D01*
X56529598Y26935840D01*
X56444322Y26919436D01*
X56317070Y26895491D01*
X56163315Y26866893D01*
X55998534Y26836533D01*
X55952989Y26828194D01*
X55800932Y26798630D01*
X55668468Y26769558D01*
X55566714Y26743671D01*
X55506788Y26723663D01*
X55496805Y26717699D01*
X55472293Y26675466D01*
X55437148Y26593630D01*
X55398173Y26488317D01*
X55390442Y26465632D01*
X55339360Y26324982D01*
X55275954Y26166286D01*
X55213904Y26023775D01*
X55213598Y26023114D01*
X55110267Y25799560D01*
X55789961Y24799768D01*
X55353621Y24362700D01*
X55221649Y24232619D01*
X55101279Y24117952D01*
X54999273Y24024819D01*
X54922391Y23959342D01*
X54877393Y23927643D01*
X54870938Y23925632D01*
X54833040Y23941471D01*
X54755708Y23985504D01*
X54647389Y24052510D01*
X54516532Y24137266D01*
X54375052Y24232184D01*
X54231461Y24329002D01*
X54103435Y24413249D01*
X53999105Y24479742D01*
X53926600Y24523298D01*
X53894158Y24538736D01*
X53854576Y24525672D01*
X53779519Y24491250D01*
X53684468Y24442620D01*
X53674392Y24437215D01*
X53546391Y24373020D01*
X53458618Y24341537D01*
X53404028Y24341202D01*
X53375575Y24370452D01*
X53375410Y24370862D01*
X53361188Y24405502D01*
X53327269Y24487731D01*
X53276284Y24611186D01*
X53210862Y24769502D01*
X53133634Y24956314D01*
X53047229Y25165258D01*
X52963551Y25367554D01*
X52871588Y25590800D01*
X52787150Y25797608D01*
X52712769Y25981638D01*
X52650974Y26136549D01*
X52604297Y26256004D01*
X52575268Y26333661D01*
X52566322Y26362644D01*
X52588756Y26395890D01*
X52647439Y26448877D01*
X52725689Y26507296D01*
X52948534Y26692048D01*
X53122718Y26903818D01*
X53246154Y27138144D01*
X53316754Y27390566D01*
X53332431Y27656623D01*
X53321036Y27779425D01*
X53258950Y28034207D01*
X53152023Y28259199D01*
X53006889Y28452183D01*
X52830178Y28610939D01*
X52628522Y28733250D01*
X52408554Y28816895D01*
X52176906Y28859656D01*
X51940209Y28859313D01*
X51705095Y28813648D01*
X51478196Y28720441D01*
X51266144Y28577473D01*
X51177636Y28496617D01*
X51007889Y28288993D01*
X50889699Y28062105D01*
X50822278Y27822567D01*
X50804840Y27576993D01*
X50836598Y27331997D01*
X50916765Y27094192D01*
X51044555Y26870193D01*
X51219180Y26666613D01*
X51414312Y26507296D01*
X51495591Y26446398D01*
X51553009Y26393985D01*
X51573678Y26362594D01*
X51562856Y26328361D01*
X51532077Y26246581D01*
X51483874Y26123593D01*
X51420778Y25965737D01*
X51345322Y25779351D01*
X51260038Y25570774D01*
X51176219Y25367504D01*
X51083745Y25144067D01*
X50998089Y24937016D01*
X50921882Y24752714D01*
X50857753Y24597525D01*
X50808332Y24477812D01*
X50776248Y24399939D01*
X50764359Y24370862D01*
X50736274Y24341323D01*
X50681949Y24341409D01*
X50594395Y24372674D01*
X50466619Y24436671D01*
X50465608Y24437215D01*
X50369402Y24486879D01*
X50291631Y24523055D01*
X50247777Y24538592D01*
X50245842Y24538736D01*
X50212829Y24522976D01*
X50139946Y24479150D01*
X50035322Y24412443D01*
X49907090Y24328036D01*
X49764948Y24232184D01*
X49620233Y24135133D01*
X49489804Y24050730D01*
X49382110Y23984199D01*
X49305598Y23940762D01*
X49269062Y23925632D01*
X49235418Y23945518D01*
X49167776Y24001097D01*
X49072893Y24086246D01*
X48957530Y24194847D01*
X48828445Y24320779D01*
X48786229Y24362851D01*
X48349739Y24800069D01*
X48681977Y25287660D01*
X48782946Y25437395D01*
X48871562Y25571780D01*
X48942854Y25683031D01*
X48991850Y25763361D01*
X49013578Y25804986D01*
X49014215Y25807947D01*
X49002760Y25847182D01*
X48971949Y25926105D01*
X48927116Y26031491D01*
X48895647Y26102046D01*
X48836808Y26237124D01*
X48781396Y26373591D01*
X48738436Y26488897D01*
X48726766Y26524023D01*
X48693611Y26617826D01*
X48661201Y26690306D01*
X48643399Y26717699D01*
X48604114Y26734464D01*
X48518374Y26758230D01*
X48397303Y26786303D01*
X48252027Y26815991D01*
X48187012Y26828194D01*
X48021913Y26858532D01*
X47863552Y26887907D01*
X47727404Y26913431D01*
X47628943Y26932215D01*
X47610402Y26935840D01*
X47457127Y26966094D01*
X47457127Y27604355D01*
X47457471Y27814230D01*
X47458884Y27973020D01*
X47461936Y28088027D01*
X47467197Y28166554D01*
X47475237Y28215904D01*
X47486627Y28243381D01*
X47501937Y28256287D01*
X47508218Y28258680D01*
X47546104Y28267167D01*
X47629805Y28284100D01*
X47748567Y28307434D01*
X47891639Y28335125D01*
X48048268Y28365127D01*
X48207703Y28395396D01*
X48359191Y28423885D01*
X48491981Y28448551D01*
X48595319Y28467349D01*
X48658455Y28478233D01*
X48672503Y28480115D01*
X48685230Y28505296D01*
X48713400Y28572378D01*
X48751748Y28668667D01*
X48766391Y28706379D01*
X48825452Y28852079D01*
X48895000Y29013049D01*
X48957288Y29148709D01*
X49003121Y29252439D01*
X49033613Y29337674D01*
X49043792Y29389874D01*
X49042169Y29396870D01*
X49020657Y29429898D01*
X48971535Y29503357D01*
X48900077Y29609423D01*
X48811555Y29740274D01*
X48711241Y29888088D01*
X48691406Y29917266D01*
X48575012Y30090137D01*
X48489452Y30221774D01*
X48431316Y30318239D01*
X48397192Y30385592D01*
X48383669Y30429894D01*
X48387336Y30457206D01*
X48387430Y30457380D01*
X48416293Y30493254D01*
X48480133Y30562609D01*
X48572031Y30658255D01*
X48685067Y30773001D01*
X48812321Y30899659D01*
X48826672Y30913795D01*
X48987043Y31069097D01*
X49110805Y31183130D01*
X49200445Y31257998D01*
X49258448Y31295804D01*
X49283996Y31300683D01*
X49321282Y31279397D01*
X49398657Y31230227D01*
X49508133Y31158425D01*
X49641720Y31069245D01*
X49791430Y30967937D01*
X49826382Y30944103D01*
X50322610Y30605235D01*
X50546707Y30706944D01*
X50682989Y30766217D01*
X50829276Y30825830D01*
X50955035Y30873360D01*
X50960575Y30875315D01*
X51058943Y30911323D01*
X51134771Y30941771D01*
X51171718Y30960095D01*
X51171780Y30960148D01*
X51183504Y30993271D01*
X51203432Y31074733D01*
X51229587Y31195375D01*
X51259990Y31346041D01*
X51292663Y31517572D01*
X51295336Y31532033D01*
X51328110Y31708765D01*
X51358198Y31869190D01*
X51383661Y32003112D01*
X51402559Y32100337D01*
X51412953Y32150668D01*
X51413135Y32151437D01*
X51419461Y32172847D01*
X51431761Y32189012D01*
X51457406Y32200669D01*
X51503765Y32208555D01*
X51578208Y32213407D01*
X51688105Y32215961D01*
X51840825Y32216955D01*
X52043738Y32217126D01*
X52070000Y32217126D01*
X52279014Y32217002D01*
G37*
X52279014Y32217002D02*
X52437006Y32216137D01*
X52551347Y32213795D01*
X52629407Y32209238D01*
X52678554Y32201730D01*
X52706159Y32190534D01*
X52719592Y32174912D01*
X52726221Y32154127D01*
X52726865Y32151437D01*
X52736935Y32102887D01*
X52755575Y32007095D01*
X52780845Y31874257D01*
X52810807Y31714569D01*
X52843522Y31538226D01*
X52844664Y31532033D01*
X52877433Y31359218D01*
X52908093Y31206531D01*
X52934664Y31083129D01*
X52955167Y30998169D01*
X52967626Y30960810D01*
X52968220Y30960148D01*
X53004919Y30941905D01*
X53080586Y30911503D01*
X53178878Y30875507D01*
X53179425Y30875315D01*
X53303233Y30828778D01*
X53449196Y30769496D01*
X53586781Y30709891D01*
X53593293Y30706944D01*
X53817390Y30605235D01*
X54313619Y30944103D01*
X54465846Y31047408D01*
X54603741Y31139763D01*
X54719315Y31215916D01*
X54804579Y31270615D01*
X54851544Y31298607D01*
X54856004Y31300683D01*
X54890134Y31291440D01*
X54953881Y31246844D01*
X55049731Y31164791D01*
X55180169Y31043179D01*
X55313328Y30913795D01*
X55441694Y30786298D01*
X55556581Y30669954D01*
X55651073Y30571948D01*
X55718253Y30499464D01*
X55751206Y30459687D01*
X55752432Y30457639D01*
X55756074Y30430344D01*
X55742350Y30385766D01*
X55707869Y30317888D01*
X55649239Y30220689D01*
X55563070Y30088149D01*
X55448200Y29917524D01*
X55346254Y29767345D01*
X55255123Y29632650D01*
X55180073Y29521260D01*
X55126369Y29440995D01*
X55099280Y29399675D01*
X55097574Y29396870D01*
X55100882Y29357279D01*
X55125953Y29280331D01*
X55167798Y29180568D01*
X55182712Y29148709D01*
X55247786Y29006774D01*
X55317212Y28845727D01*
X55373609Y28706379D01*
X55414247Y28602956D01*
X55446526Y28524358D01*
X55465178Y28483280D01*
X55467497Y28480115D01*
X55501803Y28474872D01*
X55582669Y28460506D01*
X55699343Y28439063D01*
X55841075Y28412587D01*
X55997110Y28383123D01*
X56156698Y28352717D01*
X56309085Y28323412D01*
X56443521Y28297255D01*
X56549252Y28276290D01*
X56615526Y28262561D01*
X56631782Y28258680D01*
X56648573Y28249100D01*
X56661249Y28227464D01*
X56670378Y28186469D01*
X56676531Y28118811D01*
X56680280Y28017188D01*
X56682192Y27874297D01*
X56682840Y27682835D01*
X56682874Y27604355D01*
X56682874Y26966094D01*
X56529598Y26935840D01*
X56444322Y26919436D01*
X56317070Y26895491D01*
X56163315Y26866893D01*
X55998534Y26836533D01*
X55952989Y26828194D01*
X55800932Y26798630D01*
X55668468Y26769558D01*
X55566714Y26743671D01*
X55506788Y26723663D01*
X55496805Y26717699D01*
X55472293Y26675466D01*
X55437148Y26593630D01*
X55398173Y26488317D01*
X55390442Y26465632D01*
X55339360Y26324982D01*
X55275954Y26166286D01*
X55213904Y26023775D01*
X55213598Y26023114D01*
X55110267Y25799560D01*
X55789961Y24799768D01*
X55353621Y24362700D01*
X55221649Y24232619D01*
X55101279Y24117952D01*
X54999273Y24024819D01*
X54922391Y23959342D01*
X54877393Y23927643D01*
X54870938Y23925632D01*
X54833040Y23941471D01*
X54755708Y23985504D01*
X54647389Y24052510D01*
X54516532Y24137266D01*
X54375052Y24232184D01*
X54231461Y24329002D01*
X54103435Y24413249D01*
X53999105Y24479742D01*
X53926600Y24523298D01*
X53894158Y24538736D01*
X53854576Y24525672D01*
X53779519Y24491250D01*
X53684468Y24442620D01*
X53674392Y24437215D01*
X53546391Y24373020D01*
X53458618Y24341537D01*
X53404028Y24341202D01*
X53375575Y24370452D01*
X53375410Y24370862D01*
X53361188Y24405502D01*
X53327269Y24487731D01*
X53276284Y24611186D01*
X53210862Y24769502D01*
X53133634Y24956314D01*
X53047229Y25165258D01*
X52963551Y25367554D01*
X52871588Y25590800D01*
X52787150Y25797608D01*
X52712769Y25981638D01*
X52650974Y26136549D01*
X52604297Y26256004D01*
X52575268Y26333661D01*
X52566322Y26362644D01*
X52588756Y26395890D01*
X52647439Y26448877D01*
X52725689Y26507296D01*
X52948534Y26692048D01*
X53122718Y26903818D01*
X53246154Y27138144D01*
X53316754Y27390566D01*
X53332431Y27656623D01*
X53321036Y27779425D01*
X53258950Y28034207D01*
X53152023Y28259199D01*
X53006889Y28452183D01*
X52830178Y28610939D01*
X52628522Y28733250D01*
X52408554Y28816895D01*
X52176906Y28859656D01*
X51940209Y28859313D01*
X51705095Y28813648D01*
X51478196Y28720441D01*
X51266144Y28577473D01*
X51177636Y28496617D01*
X51007889Y28288993D01*
X50889699Y28062105D01*
X50822278Y27822567D01*
X50804840Y27576993D01*
X50836598Y27331997D01*
X50916765Y27094192D01*
X51044555Y26870193D01*
X51219180Y26666613D01*
X51414312Y26507296D01*
X51495591Y26446398D01*
X51553009Y26393985D01*
X51573678Y26362594D01*
X51562856Y26328361D01*
X51532077Y26246581D01*
X51483874Y26123593D01*
X51420778Y25965737D01*
X51345322Y25779351D01*
X51260038Y25570774D01*
X51176219Y25367504D01*
X51083745Y25144067D01*
X50998089Y24937016D01*
X50921882Y24752714D01*
X50857753Y24597525D01*
X50808332Y24477812D01*
X50776248Y24399939D01*
X50764359Y24370862D01*
X50736274Y24341323D01*
X50681949Y24341409D01*
X50594395Y24372674D01*
X50466619Y24436671D01*
X50465608Y24437215D01*
X50369402Y24486879D01*
X50291631Y24523055D01*
X50247777Y24538592D01*
X50245842Y24538736D01*
X50212829Y24522976D01*
X50139946Y24479150D01*
X50035322Y24412443D01*
X49907090Y24328036D01*
X49764948Y24232184D01*
X49620233Y24135133D01*
X49489804Y24050730D01*
X49382110Y23984199D01*
X49305598Y23940762D01*
X49269062Y23925632D01*
X49235418Y23945518D01*
X49167776Y24001097D01*
X49072893Y24086246D01*
X48957530Y24194847D01*
X48828445Y24320779D01*
X48786229Y24362851D01*
X48349739Y24800069D01*
X48681977Y25287660D01*
X48782946Y25437395D01*
X48871562Y25571780D01*
X48942854Y25683031D01*
X48991850Y25763361D01*
X49013578Y25804986D01*
X49014215Y25807947D01*
X49002760Y25847182D01*
X48971949Y25926105D01*
X48927116Y26031491D01*
X48895647Y26102046D01*
X48836808Y26237124D01*
X48781396Y26373591D01*
X48738436Y26488897D01*
X48726766Y26524023D01*
X48693611Y26617826D01*
X48661201Y26690306D01*
X48643399Y26717699D01*
X48604114Y26734464D01*
X48518374Y26758230D01*
X48397303Y26786303D01*
X48252027Y26815991D01*
X48187012Y26828194D01*
X48021913Y26858532D01*
X47863552Y26887907D01*
X47727404Y26913431D01*
X47628943Y26932215D01*
X47610402Y26935840D01*
X47457127Y26966094D01*
X47457127Y27604355D01*
X47457471Y27814230D01*
X47458884Y27973020D01*
X47461936Y28088027D01*
X47467197Y28166554D01*
X47475237Y28215904D01*
X47486627Y28243381D01*
X47501937Y28256287D01*
X47508218Y28258680D01*
X47546104Y28267167D01*
X47629805Y28284100D01*
X47748567Y28307434D01*
X47891639Y28335125D01*
X48048268Y28365127D01*
X48207703Y28395396D01*
X48359191Y28423885D01*
X48491981Y28448551D01*
X48595319Y28467349D01*
X48658455Y28478233D01*
X48672503Y28480115D01*
X48685230Y28505296D01*
X48713400Y28572378D01*
X48751748Y28668667D01*
X48766391Y28706379D01*
X48825452Y28852079D01*
X48895000Y29013049D01*
X48957288Y29148709D01*
X49003121Y29252439D01*
X49033613Y29337674D01*
X49043792Y29389874D01*
X49042169Y29396870D01*
X49020657Y29429898D01*
X48971535Y29503357D01*
X48900077Y29609423D01*
X48811555Y29740274D01*
X48711241Y29888088D01*
X48691406Y29917266D01*
X48575012Y30090137D01*
X48489452Y30221774D01*
X48431316Y30318239D01*
X48397192Y30385592D01*
X48383669Y30429894D01*
X48387336Y30457206D01*
X48387430Y30457380D01*
X48416293Y30493254D01*
X48480133Y30562609D01*
X48572031Y30658255D01*
X48685067Y30773001D01*
X48812321Y30899659D01*
X48826672Y30913795D01*
X48987043Y31069097D01*
X49110805Y31183130D01*
X49200445Y31257998D01*
X49258448Y31295804D01*
X49283996Y31300683D01*
X49321282Y31279397D01*
X49398657Y31230227D01*
X49508133Y31158425D01*
X49641720Y31069245D01*
X49791430Y30967937D01*
X49826382Y30944103D01*
X50322610Y30605235D01*
X50546707Y30706944D01*
X50682989Y30766217D01*
X50829276Y30825830D01*
X50955035Y30873360D01*
X50960575Y30875315D01*
X51058943Y30911323D01*
X51134771Y30941771D01*
X51171718Y30960095D01*
X51171780Y30960148D01*
X51183504Y30993271D01*
X51203432Y31074733D01*
X51229587Y31195375D01*
X51259990Y31346041D01*
X51292663Y31517572D01*
X51295336Y31532033D01*
X51328110Y31708765D01*
X51358198Y31869190D01*
X51383661Y32003112D01*
X51402559Y32100337D01*
X51412953Y32150668D01*
X51413135Y32151437D01*
X51419461Y32172847D01*
X51431761Y32189012D01*
X51457406Y32200669D01*
X51503765Y32208555D01*
X51578208Y32213407D01*
X51688105Y32215961D01*
X51840825Y32216955D01*
X52043738Y32217126D01*
X52070000Y32217126D01*
X52279014Y32217002D01*
D11*
%TO.C,J1*%
X10100000Y18990000D02*
X15300000Y18990000D01*
X10100000Y31750000D02*
X10100000Y18990000D01*
X15300000Y34350000D02*
X15300000Y18990000D01*
X10100000Y31750000D02*
X12700000Y31750000D01*
X12700000Y31750000D02*
X12700000Y34350000D01*
X12700000Y34350000D02*
X15300000Y34350000D01*
X10100000Y33020000D02*
X10100000Y34350000D01*
X10100000Y34350000D02*
X11430000Y34350000D01*
%TO.C,R1*%
X19990000Y33020000D02*
X20940000Y33020000D01*
X25730000Y33020000D02*
X24780000Y33020000D01*
X20940000Y32100000D02*
X24780000Y32100000D01*
X20940000Y33940000D02*
X20940000Y32100000D01*
X24780000Y33940000D02*
X20940000Y33940000D01*
X24780000Y32100000D02*
X24780000Y33940000D01*
%TO.C,R2*%
X24780000Y29560000D02*
X24780000Y31400000D01*
X24780000Y31400000D02*
X20940000Y31400000D01*
X20940000Y31400000D02*
X20940000Y29560000D01*
X20940000Y29560000D02*
X24780000Y29560000D01*
X25730000Y30480000D02*
X24780000Y30480000D01*
X19990000Y30480000D02*
X20940000Y30480000D01*
%TO.C,R3*%
X19990000Y27940000D02*
X20940000Y27940000D01*
X25730000Y27940000D02*
X24780000Y27940000D01*
X20940000Y27020000D02*
X24780000Y27020000D01*
X20940000Y28860000D02*
X20940000Y27020000D01*
X24780000Y28860000D02*
X20940000Y28860000D01*
X24780000Y27020000D02*
X24780000Y28860000D01*
%TO.C,R4*%
X24780000Y24480000D02*
X24780000Y26320000D01*
X24780000Y26320000D02*
X20940000Y26320000D01*
X20940000Y26320000D02*
X20940000Y24480000D01*
X20940000Y24480000D02*
X24780000Y24480000D01*
X25730000Y25400000D02*
X24780000Y25400000D01*
X19990000Y25400000D02*
X20940000Y25400000D01*
%TO.C,R5*%
X19990000Y22860000D02*
X20940000Y22860000D01*
X25730000Y22860000D02*
X24780000Y22860000D01*
X20940000Y21940000D02*
X24780000Y21940000D01*
X20940000Y23780000D02*
X20940000Y21940000D01*
X24780000Y23780000D02*
X20940000Y23780000D01*
X24780000Y21940000D02*
X24780000Y23780000D01*
%TO.C,R6*%
X24780000Y19400000D02*
X24780000Y21240000D01*
X24780000Y21240000D02*
X20940000Y21240000D01*
X20940000Y21240000D02*
X20940000Y19400000D01*
X20940000Y19400000D02*
X24780000Y19400000D01*
X25730000Y20320000D02*
X24780000Y20320000D01*
X19990000Y20320000D02*
X20940000Y20320000D01*
%TO.C,P1*%
D10*
X36091904Y4627620D02*
X36091904Y5627620D01*
X36472857Y5627620D01*
X36568095Y5580000D01*
X36615714Y5532381D01*
X36663333Y5437143D01*
X36663333Y5294286D01*
X36615714Y5199048D01*
X36568095Y5151429D01*
X36472857Y5103810D01*
X36091904Y5103810D01*
X37615714Y4627620D02*
X37044285Y4627620D01*
X37330000Y4627620D02*
X37330000Y5627620D01*
X37234761Y5484762D01*
X37139523Y5389524D01*
X37044285Y5341905D01*
%TO.C,P2*%
X56665904Y4627620D02*
X56665904Y5627620D01*
X57046857Y5627620D01*
X57142095Y5580000D01*
X57189714Y5532381D01*
X57237333Y5437143D01*
X57237333Y5294286D01*
X57189714Y5199048D01*
X57142095Y5151429D01*
X57046857Y5103810D01*
X56665904Y5103810D01*
X57618285Y5532381D02*
X57665904Y5580000D01*
X57761142Y5627620D01*
X57999238Y5627620D01*
X58094476Y5580000D01*
X58142095Y5532381D01*
X58189714Y5437143D01*
X58189714Y5341905D01*
X58142095Y5199048D01*
X57570666Y4627620D01*
X58189714Y4627620D01*
%TO.C,P3*%
X29487904Y47553620D02*
X29487904Y48553620D01*
X29868857Y48553620D01*
X29964095Y48506000D01*
X30011714Y48458381D01*
X30059333Y48363143D01*
X30059333Y48220286D01*
X30011714Y48125048D01*
X29964095Y48077429D01*
X29868857Y48029810D01*
X29487904Y48029810D01*
X30392666Y48553620D02*
X31011714Y48553620D01*
X30678380Y48172667D01*
X30821238Y48172667D01*
X30916476Y48125048D01*
X30964095Y48077429D01*
X31011714Y47982191D01*
X31011714Y47744096D01*
X30964095Y47648858D01*
X30916476Y47601239D01*
X30821238Y47553620D01*
X30535523Y47553620D01*
X30440285Y47601239D01*
X30392666Y47648858D01*
%TO.C,P4*%
X53871904Y47553620D02*
X53871904Y48553620D01*
X54252857Y48553620D01*
X54348095Y48506000D01*
X54395714Y48458381D01*
X54443333Y48363143D01*
X54443333Y48220286D01*
X54395714Y48125048D01*
X54348095Y48077429D01*
X54252857Y48029810D01*
X53871904Y48029810D01*
X55300476Y48220286D02*
X55300476Y47553620D01*
X55062380Y48601239D02*
X54824285Y47886953D01*
X55443333Y47886953D01*
%TO.C,C1*%
X41743333Y32662858D02*
X41695714Y32615239D01*
X41552857Y32567620D01*
X41457619Y32567620D01*
X41314761Y32615239D01*
X41219523Y32710477D01*
X41171904Y32805715D01*
X41124285Y32996191D01*
X41124285Y33139048D01*
X41171904Y33329524D01*
X41219523Y33424762D01*
X41314761Y33520000D01*
X41457619Y33567620D01*
X41552857Y33567620D01*
X41695714Y33520000D01*
X41743333Y33472381D01*
X42695714Y32567620D02*
X42124285Y32567620D01*
X42410000Y32567620D02*
X42410000Y33567620D01*
X42314761Y33424762D01*
X42219523Y33329524D01*
X42124285Y33281905D01*
%TO.C,C2*%
X41743333Y30122858D02*
X41695714Y30075239D01*
X41552857Y30027620D01*
X41457619Y30027620D01*
X41314761Y30075239D01*
X41219523Y30170477D01*
X41171904Y30265715D01*
X41124285Y30456191D01*
X41124285Y30599048D01*
X41171904Y30789524D01*
X41219523Y30884762D01*
X41314761Y30980000D01*
X41457619Y31027620D01*
X41552857Y31027620D01*
X41695714Y30980000D01*
X41743333Y30932381D01*
X42124285Y30932381D02*
X42171904Y30980000D01*
X42267142Y31027620D01*
X42505238Y31027620D01*
X42600476Y30980000D01*
X42648095Y30932381D01*
X42695714Y30837143D01*
X42695714Y30741905D01*
X42648095Y30599048D01*
X42076666Y30027620D01*
X42695714Y30027620D01*
%TO.C,C3*%
X41743333Y27582858D02*
X41695714Y27535239D01*
X41552857Y27487620D01*
X41457619Y27487620D01*
X41314761Y27535239D01*
X41219523Y27630477D01*
X41171904Y27725715D01*
X41124285Y27916191D01*
X41124285Y28059048D01*
X41171904Y28249524D01*
X41219523Y28344762D01*
X41314761Y28440000D01*
X41457619Y28487620D01*
X41552857Y28487620D01*
X41695714Y28440000D01*
X41743333Y28392381D01*
X42076666Y28487620D02*
X42695714Y28487620D01*
X42362380Y28106667D01*
X42505238Y28106667D01*
X42600476Y28059048D01*
X42648095Y28011429D01*
X42695714Y27916191D01*
X42695714Y27678096D01*
X42648095Y27582858D01*
X42600476Y27535239D01*
X42505238Y27487620D01*
X42219523Y27487620D01*
X42124285Y27535239D01*
X42076666Y27582858D01*
%TO.C,C4*%
X41743333Y25042858D02*
X41695714Y24995239D01*
X41552857Y24947620D01*
X41457619Y24947620D01*
X41314761Y24995239D01*
X41219523Y25090477D01*
X41171904Y25185715D01*
X41124285Y25376191D01*
X41124285Y25519048D01*
X41171904Y25709524D01*
X41219523Y25804762D01*
X41314761Y25900000D01*
X41457619Y25947620D01*
X41552857Y25947620D01*
X41695714Y25900000D01*
X41743333Y25852381D01*
X42600476Y25614286D02*
X42600476Y24947620D01*
X42362380Y25995239D02*
X42124285Y25280953D01*
X42743333Y25280953D01*
%TO.C,C5*%
X41743333Y22502858D02*
X41695714Y22455239D01*
X41552857Y22407620D01*
X41457619Y22407620D01*
X41314761Y22455239D01*
X41219523Y22550477D01*
X41171904Y22645715D01*
X41124285Y22836191D01*
X41124285Y22979048D01*
X41171904Y23169524D01*
X41219523Y23264762D01*
X41314761Y23360000D01*
X41457619Y23407620D01*
X41552857Y23407620D01*
X41695714Y23360000D01*
X41743333Y23312381D01*
X42648095Y23407620D02*
X42171904Y23407620D01*
X42124285Y22931429D01*
X42171904Y22979048D01*
X42267142Y23026667D01*
X42505238Y23026667D01*
X42600476Y22979048D01*
X42648095Y22931429D01*
X42695714Y22836191D01*
X42695714Y22598096D01*
X42648095Y22502858D01*
X42600476Y22455239D01*
X42505238Y22407620D01*
X42267142Y22407620D01*
X42171904Y22455239D01*
X42124285Y22502858D01*
%TO.C,C6*%
X41743333Y19962858D02*
X41695714Y19915239D01*
X41552857Y19867620D01*
X41457619Y19867620D01*
X41314761Y19915239D01*
X41219523Y20010477D01*
X41171904Y20105715D01*
X41124285Y20296191D01*
X41124285Y20439048D01*
X41171904Y20629524D01*
X41219523Y20724762D01*
X41314761Y20820000D01*
X41457619Y20867620D01*
X41552857Y20867620D01*
X41695714Y20820000D01*
X41743333Y20772381D01*
X42600476Y20867620D02*
X42410000Y20867620D01*
X42314761Y20820000D01*
X42267142Y20772381D01*
X42171904Y20629524D01*
X42124285Y20439048D01*
X42124285Y20058096D01*
X42171904Y19962858D01*
X42219523Y19915239D01*
X42314761Y19867620D01*
X42505238Y19867620D01*
X42600476Y19915239D01*
X42648095Y19962858D01*
X42695714Y20058096D01*
X42695714Y20296191D01*
X42648095Y20391429D01*
X42600476Y20439048D01*
X42505238Y20486667D01*
X42314761Y20486667D01*
X42219523Y20439048D01*
X42171904Y20391429D01*
X42124285Y20296191D01*
%TO.C,J1*%
X12366666Y35897620D02*
X12366666Y35183334D01*
X12319047Y35040477D01*
X12223809Y34945239D01*
X12080952Y34897620D01*
X11985714Y34897620D01*
X13366666Y34897620D02*
X12795238Y34897620D01*
X13080952Y34897620D02*
X13080952Y35897620D01*
X12985714Y35754762D01*
X12890476Y35659524D01*
X12795238Y35611905D01*
%TO.C,R1*%
X29043333Y32567620D02*
X28710000Y33043810D01*
X28471904Y32567620D02*
X28471904Y33567620D01*
X28852857Y33567620D01*
X28948095Y33520000D01*
X28995714Y33472381D01*
X29043333Y33377143D01*
X29043333Y33234286D01*
X28995714Y33139048D01*
X28948095Y33091429D01*
X28852857Y33043810D01*
X28471904Y33043810D01*
X29995714Y32567620D02*
X29424285Y32567620D01*
X29710000Y32567620D02*
X29710000Y33567620D01*
X29614761Y33424762D01*
X29519523Y33329524D01*
X29424285Y33281905D01*
%TO.C,R2*%
X29043333Y30027620D02*
X28710000Y30503810D01*
X28471904Y30027620D02*
X28471904Y31027620D01*
X28852857Y31027620D01*
X28948095Y30980000D01*
X28995714Y30932381D01*
X29043333Y30837143D01*
X29043333Y30694286D01*
X28995714Y30599048D01*
X28948095Y30551429D01*
X28852857Y30503810D01*
X28471904Y30503810D01*
X29424285Y30932381D02*
X29471904Y30980000D01*
X29567142Y31027620D01*
X29805238Y31027620D01*
X29900476Y30980000D01*
X29948095Y30932381D01*
X29995714Y30837143D01*
X29995714Y30741905D01*
X29948095Y30599048D01*
X29376666Y30027620D01*
X29995714Y30027620D01*
%TO.C,R3*%
X29043333Y27487620D02*
X28710000Y27963810D01*
X28471904Y27487620D02*
X28471904Y28487620D01*
X28852857Y28487620D01*
X28948095Y28440000D01*
X28995714Y28392381D01*
X29043333Y28297143D01*
X29043333Y28154286D01*
X28995714Y28059048D01*
X28948095Y28011429D01*
X28852857Y27963810D01*
X28471904Y27963810D01*
X29376666Y28487620D02*
X29995714Y28487620D01*
X29662380Y28106667D01*
X29805238Y28106667D01*
X29900476Y28059048D01*
X29948095Y28011429D01*
X29995714Y27916191D01*
X29995714Y27678096D01*
X29948095Y27582858D01*
X29900476Y27535239D01*
X29805238Y27487620D01*
X29519523Y27487620D01*
X29424285Y27535239D01*
X29376666Y27582858D01*
%TO.C,R4*%
X29043333Y24947620D02*
X28710000Y25423810D01*
X28471904Y24947620D02*
X28471904Y25947620D01*
X28852857Y25947620D01*
X28948095Y25900000D01*
X28995714Y25852381D01*
X29043333Y25757143D01*
X29043333Y25614286D01*
X28995714Y25519048D01*
X28948095Y25471429D01*
X28852857Y25423810D01*
X28471904Y25423810D01*
X29900476Y25614286D02*
X29900476Y24947620D01*
X29662380Y25995239D02*
X29424285Y25280953D01*
X30043333Y25280953D01*
%TO.C,R5*%
X29043333Y22407620D02*
X28710000Y22883810D01*
X28471904Y22407620D02*
X28471904Y23407620D01*
X28852857Y23407620D01*
X28948095Y23360000D01*
X28995714Y23312381D01*
X29043333Y23217143D01*
X29043333Y23074286D01*
X28995714Y22979048D01*
X28948095Y22931429D01*
X28852857Y22883810D01*
X28471904Y22883810D01*
X29948095Y23407620D02*
X29471904Y23407620D01*
X29424285Y22931429D01*
X29471904Y22979048D01*
X29567142Y23026667D01*
X29805238Y23026667D01*
X29900476Y22979048D01*
X29948095Y22931429D01*
X29995714Y22836191D01*
X29995714Y22598096D01*
X29948095Y22502858D01*
X29900476Y22455239D01*
X29805238Y22407620D01*
X29567142Y22407620D01*
X29471904Y22455239D01*
X29424285Y22502858D01*
%TO.C,R6*%
X29043333Y19867620D02*
X28710000Y20343810D01*
X28471904Y19867620D02*
X28471904Y20867620D01*
X28852857Y20867620D01*
X28948095Y20820000D01*
X28995714Y20772381D01*
X29043333Y20677143D01*
X29043333Y20534286D01*
X28995714Y20439048D01*
X28948095Y20391429D01*
X28852857Y20343810D01*
X28471904Y20343810D01*
X29900476Y20867620D02*
X29710000Y20867620D01*
X29614761Y20820000D01*
X29567142Y20772381D01*
X29471904Y20629524D01*
X29424285Y20439048D01*
X29424285Y20058096D01*
X29471904Y19962858D01*
X29519523Y19915239D01*
X29614761Y19867620D01*
X29805238Y19867620D01*
X29900476Y19915239D01*
X29948095Y19962858D01*
X29995714Y20058096D01*
X29995714Y20296191D01*
X29948095Y20391429D01*
X29900476Y20439048D01*
X29805238Y20486667D01*
X29614761Y20486667D01*
X29519523Y20439048D01*
X29471904Y20391429D01*
X29424285Y20296191D01*
%TD*%
%LPC*%
D13*
%TO.C,P1*%
X27940000Y2540000D03*
X30480000Y2540000D03*
X33020000Y2540000D03*
X35560000Y2540000D03*
X38100000Y2540000D03*
X40640000Y2540000D03*
X43180000Y2540000D03*
X45720000Y2540000D03*
%TD*%
%TO.C,P2*%
X50800000Y2540000D03*
X53340000Y2540000D03*
X55880000Y2540000D03*
X58420000Y2540000D03*
X60960000Y2540000D03*
X63500000Y2540000D03*
%TD*%
%TO.C,P3*%
X18796000Y50800000D03*
X21336000Y50800000D03*
X23876000Y50800000D03*
X26416000Y50800000D03*
X28956000Y50800000D03*
X31496000Y50800000D03*
X34036000Y50800000D03*
X36576000Y50800000D03*
X39116000Y50800000D03*
X41656000Y50800000D03*
%TD*%
%TO.C,P4*%
X45720000Y50800000D03*
X48260000Y50800000D03*
X50800000Y50800000D03*
X53340000Y50800000D03*
X55880000Y50800000D03*
X58420000Y50800000D03*
X60960000Y50800000D03*
X63500000Y50800000D03*
%TD*%
D14*
%TO.C,P5*%
X13970000Y2540000D03*
%TD*%
%TO.C,P6*%
X66040000Y7620000D03*
%TD*%
%TO.C,P7*%
X15240000Y50800000D03*
%TD*%
%TO.C,P8*%
X66040000Y35560000D03*
%TD*%
D15*
%TO.C,C1*%
X34290000Y33020000D03*
X39290000Y33020000D03*
%TD*%
%TO.C,C2*%
X39290000Y30480000D03*
X34290000Y30480000D03*
%TD*%
%TO.C,C3*%
X34290000Y27940000D03*
X39290000Y27940000D03*
%TD*%
%TO.C,C4*%
X39290000Y25400000D03*
X34290000Y25400000D03*
%TD*%
%TO.C,C5*%
X34290000Y22860000D03*
X39290000Y22860000D03*
%TD*%
%TO.C,C6*%
X39290000Y20320000D03*
X34290000Y20320000D03*
%TD*%
D16*
%TO.C,J1*%
X11430000Y33020000D03*
D17*
X13970000Y33020000D03*
X11430000Y30480000D03*
X13970000Y30480000D03*
X11430000Y27940000D03*
X13970000Y27940000D03*
X11430000Y25400000D03*
X13970000Y25400000D03*
X11430000Y22860000D03*
X13970000Y22860000D03*
X11430000Y20320000D03*
X13970000Y20320000D03*
%TD*%
D18*
%TO.C,R1*%
X19050000Y33020000D03*
D19*
X26670000Y33020000D03*
%TD*%
%TO.C,R2*%
X26670000Y30480000D03*
D18*
X19050000Y30480000D03*
%TD*%
%TO.C,R3*%
X19050000Y27940000D03*
D19*
X26670000Y27940000D03*
%TD*%
%TO.C,R4*%
X26670000Y25400000D03*
D18*
X19050000Y25400000D03*
%TD*%
%TO.C,R5*%
X19050000Y22860000D03*
D19*
X26670000Y22860000D03*
%TD*%
%TO.C,R6*%
X26670000Y20320000D03*
D18*
X19050000Y20320000D03*
%TD*%
M02*
