%TF.GenerationSoftware,KiCad,Pcbnew,5.1.6-c6e7f7d~87~ubuntu18.04.1*%
%TF.CreationDate,2020-08-10T15:18:34+02:00*%
%TF.ProjectId,uno-analog-input,756e6f2d-616e-4616-9c6f-672d696e7075,1.0*%
%TF.SameCoordinates,PX69db1f0PY7882d48*%
%TF.FileFunction,Copper,L2,Bot*%
%TF.FilePolarity,Positive*%
%FSLAX46Y46*%
G04 Gerber Fmt 4.6, Leading zero omitted, Abs format (unit mm)*
G04 Created by KiCad (PCBNEW 5.1.6-c6e7f7d~87~ubuntu18.04.1) date 2020-08-10 15:18:34*
%MOMM*%
%LPD*%
G01*
G04 APERTURE LIST*
%TA.AperFunction,ComponentPad*%
%ADD10O,1.400000X1.400000*%
%TD*%
%TA.AperFunction,ComponentPad*%
%ADD11C,1.400000*%
%TD*%
%TA.AperFunction,ComponentPad*%
%ADD12O,1.727200X2.032000*%
%TD*%
%TA.AperFunction,ComponentPad*%
%ADD13C,4.064000*%
%TD*%
%TA.AperFunction,ComponentPad*%
%ADD14R,1.700000X1.700000*%
%TD*%
%TA.AperFunction,ComponentPad*%
%ADD15O,1.700000X1.700000*%
%TD*%
%TA.AperFunction,Conductor*%
%ADD16C,0.500000*%
%TD*%
G04 APERTURE END LIST*
D10*
%TO.P,R12,2*%
%TO.N,Net-(J1-Pad12)*%
X35560000Y20320000D03*
D11*
%TO.P,R12,1*%
%TO.N,/A0*%
X43180000Y20320000D03*
%TD*%
D10*
%TO.P,R10,2*%
%TO.N,Net-(J1-Pad8)*%
X35560000Y25400000D03*
D11*
%TO.P,R10,1*%
%TO.N,/A2*%
X43180000Y25400000D03*
%TD*%
D10*
%TO.P,R9,2*%
%TO.N,Net-(J1-Pad6)*%
X35560000Y27940000D03*
D11*
%TO.P,R9,1*%
%TO.N,/A3*%
X43180000Y27940000D03*
%TD*%
D10*
%TO.P,R8,2*%
%TO.N,Net-(J1-Pad4)*%
X35560000Y30480000D03*
D11*
%TO.P,R8,1*%
%TO.N,/A4(SDA)*%
X43180000Y30480000D03*
%TD*%
D10*
%TO.P,R7,2*%
%TO.N,Net-(J1-Pad2)*%
X35560000Y33020000D03*
D11*
%TO.P,R7,1*%
%TO.N,/A5(SCL)*%
X43180000Y33020000D03*
%TD*%
D10*
%TO.P,R6,2*%
%TO.N,Net-(J1-Pad12)*%
X20320000Y20320000D03*
D11*
%TO.P,R6,1*%
%TO.N,GND*%
X27940000Y20320000D03*
%TD*%
D10*
%TO.P,R5,2*%
%TO.N,Net-(J1-Pad10)*%
X20320000Y22860000D03*
D11*
%TO.P,R5,1*%
%TO.N,GND*%
X27940000Y22860000D03*
%TD*%
D10*
%TO.P,R4,2*%
%TO.N,Net-(J1-Pad8)*%
X20320000Y25400000D03*
D11*
%TO.P,R4,1*%
%TO.N,GND*%
X27940000Y25400000D03*
%TD*%
D10*
%TO.P,R3,2*%
%TO.N,Net-(J1-Pad6)*%
X20320000Y27940000D03*
D11*
%TO.P,R3,1*%
%TO.N,GND*%
X27940000Y27940000D03*
%TD*%
D10*
%TO.P,R2,2*%
%TO.N,Net-(J1-Pad4)*%
X20320000Y30480000D03*
D11*
%TO.P,R2,1*%
%TO.N,GND*%
X27940000Y30480000D03*
%TD*%
D10*
%TO.P,R1,2*%
%TO.N,Net-(J1-Pad2)*%
X20320000Y33020000D03*
D11*
%TO.P,R1,1*%
%TO.N,GND*%
X27940000Y33020000D03*
%TD*%
D12*
%TO.P,P1,1*%
%TO.N,Net-(P1-Pad1)*%
X27940000Y2540000D03*
%TO.P,P1,2*%
%TO.N,/IOREF*%
X30480000Y2540000D03*
%TO.P,P1,3*%
%TO.N,/Reset*%
X33020000Y2540000D03*
%TO.P,P1,4*%
%TO.N,+3V3*%
X35560000Y2540000D03*
%TO.P,P1,5*%
%TO.N,+5V*%
X38100000Y2540000D03*
%TO.P,P1,6*%
%TO.N,GND*%
X40640000Y2540000D03*
%TO.P,P1,7*%
X43180000Y2540000D03*
%TO.P,P1,8*%
%TO.N,/Vin*%
X45720000Y2540000D03*
%TD*%
%TO.P,P2,1*%
%TO.N,/A0*%
X50800000Y2540000D03*
%TO.P,P2,2*%
%TO.N,/A1*%
X53340000Y2540000D03*
%TO.P,P2,3*%
%TO.N,/A2*%
X55880000Y2540000D03*
%TO.P,P2,4*%
%TO.N,/A3*%
X58420000Y2540000D03*
%TO.P,P2,5*%
%TO.N,/A4(SDA)*%
X60960000Y2540000D03*
%TO.P,P2,6*%
%TO.N,/A5(SCL)*%
X63500000Y2540000D03*
%TD*%
%TO.P,P3,1*%
%TO.N,/A5(SCL)*%
X18796000Y50800000D03*
%TO.P,P3,2*%
%TO.N,/A4(SDA)*%
X21336000Y50800000D03*
%TO.P,P3,3*%
%TO.N,/AREF*%
X23876000Y50800000D03*
%TO.P,P3,4*%
%TO.N,GND*%
X26416000Y50800000D03*
%TO.P,P3,5*%
%TO.N,/13(SCK)*%
X28956000Y50800000D03*
%TO.P,P3,6*%
%TO.N,/12(MISO)*%
X31496000Y50800000D03*
%TO.P,P3,7*%
%TO.N,/11(\u002A\u002A/MOSI)*%
X34036000Y50800000D03*
%TO.P,P3,8*%
%TO.N,/10(\u002A\u002A/SS)*%
X36576000Y50800000D03*
%TO.P,P3,9*%
%TO.N,/9(\u002A\u002A)*%
X39116000Y50800000D03*
%TO.P,P3,10*%
%TO.N,/8*%
X41656000Y50800000D03*
%TD*%
%TO.P,P4,1*%
%TO.N,/7*%
X45720000Y50800000D03*
%TO.P,P4,2*%
%TO.N,/6(\u002A\u002A)*%
X48260000Y50800000D03*
%TO.P,P4,3*%
%TO.N,/5(\u002A\u002A)*%
X50800000Y50800000D03*
%TO.P,P4,4*%
%TO.N,/4*%
X53340000Y50800000D03*
%TO.P,P4,5*%
%TO.N,/3(\u002A\u002A)*%
X55880000Y50800000D03*
%TO.P,P4,6*%
%TO.N,/2*%
X58420000Y50800000D03*
%TO.P,P4,7*%
%TO.N,/1(Tx)*%
X60960000Y50800000D03*
%TO.P,P4,8*%
%TO.N,/0(Rx)*%
X63500000Y50800000D03*
%TD*%
D13*
%TO.P,P5,1*%
%TO.N,Net-(P5-Pad1)*%
X13970000Y2540000D03*
%TD*%
%TO.P,P6,1*%
%TO.N,Net-(P6-Pad1)*%
X66040000Y7620000D03*
%TD*%
%TO.P,P7,1*%
%TO.N,Net-(P7-Pad1)*%
X15240000Y50800000D03*
%TD*%
%TO.P,P8,1*%
%TO.N,Net-(P8-Pad1)*%
X66040000Y35560000D03*
%TD*%
D14*
%TO.P,J1,1*%
%TO.N,GND*%
X11430000Y33020000D03*
D15*
%TO.P,J1,2*%
%TO.N,Net-(J1-Pad2)*%
X13970000Y33020000D03*
%TO.P,J1,3*%
%TO.N,GND*%
X11430000Y30480000D03*
%TO.P,J1,4*%
%TO.N,Net-(J1-Pad4)*%
X13970000Y30480000D03*
%TO.P,J1,5*%
%TO.N,GND*%
X11430000Y27940000D03*
%TO.P,J1,6*%
%TO.N,Net-(J1-Pad6)*%
X13970000Y27940000D03*
%TO.P,J1,7*%
%TO.N,GND*%
X11430000Y25400000D03*
%TO.P,J1,8*%
%TO.N,Net-(J1-Pad8)*%
X13970000Y25400000D03*
%TO.P,J1,9*%
%TO.N,GND*%
X11430000Y22860000D03*
%TO.P,J1,10*%
%TO.N,Net-(J1-Pad10)*%
X13970000Y22860000D03*
%TO.P,J1,11*%
%TO.N,GND*%
X11430000Y20320000D03*
%TO.P,J1,12*%
%TO.N,Net-(J1-Pad12)*%
X13970000Y20320000D03*
%TD*%
D10*
%TO.P,R11,2*%
%TO.N,Net-(J1-Pad10)*%
X35560000Y22860000D03*
D11*
%TO.P,R11,1*%
%TO.N,/A1*%
X43180000Y22860000D03*
%TD*%
D16*
%TO.N,GND*%
X27940000Y33020000D02*
X27940000Y20320000D01*
X11430000Y33020000D02*
X11430000Y20320000D01*
X24160001Y19019999D02*
X40640000Y2540000D01*
X12730001Y19019999D02*
X24160001Y19019999D01*
X11430000Y20320000D02*
X12730001Y19019999D01*
X40640000Y2540000D02*
X43180000Y2540000D01*
X25460002Y20320000D02*
X24160001Y19019999D01*
X27940000Y20320000D02*
X25460002Y20320000D01*
%TO.N,/A0*%
X43180000Y10160000D02*
X50800000Y2540000D01*
X43180000Y20320000D02*
X43180000Y10160000D01*
%TO.N,/A1*%
X53340000Y12700000D02*
X53340000Y2540000D01*
X43180000Y22860000D02*
X53340000Y12700000D01*
%TO.N,/A2*%
X55880000Y12700000D02*
X55880000Y2540000D01*
X43180000Y25400000D02*
X55880000Y12700000D01*
%TO.N,/A3*%
X58420000Y12700000D02*
X58420000Y2540000D01*
X43180000Y27940000D02*
X58420000Y12700000D01*
%TO.N,/A4(SDA)*%
X60960000Y12700000D02*
X60960000Y2540000D01*
X43180000Y30480000D02*
X60960000Y12700000D01*
X41656000Y30480000D02*
X43180000Y30480000D01*
X21336000Y50800000D02*
X41656000Y30480000D01*
%TO.N,/A5(SCL)*%
X63500000Y12700000D02*
X63500000Y2540000D01*
X43180000Y33020000D02*
X63500000Y12700000D01*
%TO.N,Net-(J1-Pad2)*%
X13970000Y33020000D02*
X20320000Y33020000D01*
%TO.N,Net-(J1-Pad4)*%
X13970000Y30480000D02*
X20320000Y30480000D01*
%TO.N,Net-(J1-Pad6)*%
X13970000Y27940000D02*
X20320000Y27940000D01*
%TO.N,Net-(J1-Pad8)*%
X13970000Y25400000D02*
X20320000Y25400000D01*
%TO.N,Net-(J1-Pad10)*%
X13970000Y22860000D02*
X20320000Y22860000D01*
%TO.N,Net-(J1-Pad12)*%
X13970000Y20320000D02*
X20320000Y20320000D01*
%TD*%
M02*
