%TF.GenerationSoftware,KiCad,Pcbnew,5.1.6-c6e7f7d~87~ubuntu18.04.1*%
%TF.CreationDate,2020-08-09T15:00:25+02:00*%
%TF.ProjectId,uno-analog-input,756e6f2d-616e-4616-9c6f-672d696e7075,rev?*%
%TF.SameCoordinates,PX69db1f0PY7882d48*%
%TF.FileFunction,Other,Fab,Top*%
%FSLAX46Y46*%
G04 Gerber Fmt 4.6, Leading zero omitted, Abs format (unit mm)*
G04 Created by KiCad (PCBNEW 5.1.6-c6e7f7d~87~ubuntu18.04.1) date 2020-08-09 15:00:25*
%MOMM*%
%LPD*%
G01*
G04 APERTURE LIST*
%ADD10C,0.100000*%
%ADD11C,0.150000*%
%ADD12C,0.129000*%
%ADD13C,0.108000*%
G04 APERTURE END LIST*
D10*
%TO.C,C1*%
X34640000Y33970000D02*
X34640000Y32070000D01*
X34640000Y32070000D02*
X38940000Y32070000D01*
X38940000Y32070000D02*
X38940000Y33970000D01*
X38940000Y33970000D02*
X34640000Y33970000D01*
%TO.C,C2*%
X38940000Y31430000D02*
X34640000Y31430000D01*
X38940000Y29530000D02*
X38940000Y31430000D01*
X34640000Y29530000D02*
X38940000Y29530000D01*
X34640000Y31430000D02*
X34640000Y29530000D01*
%TO.C,C3*%
X34640000Y28890000D02*
X34640000Y26990000D01*
X34640000Y26990000D02*
X38940000Y26990000D01*
X38940000Y26990000D02*
X38940000Y28890000D01*
X38940000Y28890000D02*
X34640000Y28890000D01*
%TO.C,C4*%
X38940000Y26350000D02*
X34640000Y26350000D01*
X38940000Y24450000D02*
X38940000Y26350000D01*
X34640000Y24450000D02*
X38940000Y24450000D01*
X34640000Y26350000D02*
X34640000Y24450000D01*
%TO.C,C5*%
X34640000Y23810000D02*
X34640000Y21910000D01*
X34640000Y21910000D02*
X38940000Y21910000D01*
X38940000Y21910000D02*
X38940000Y23810000D01*
X38940000Y23810000D02*
X34640000Y23810000D01*
%TO.C,C6*%
X38940000Y21270000D02*
X34640000Y21270000D01*
X38940000Y19370000D02*
X38940000Y21270000D01*
X34640000Y19370000D02*
X38940000Y19370000D01*
X34640000Y21270000D02*
X34640000Y19370000D01*
%TO.C,J1*%
X11430000Y34290000D02*
X15240000Y34290000D01*
X15240000Y34290000D02*
X15240000Y19050000D01*
X15240000Y19050000D02*
X10160000Y19050000D01*
X10160000Y19050000D02*
X10160000Y33020000D01*
X10160000Y33020000D02*
X11430000Y34290000D01*
%TO.C,R1*%
X19050000Y33020000D02*
X21060000Y33020000D01*
X26670000Y33020000D02*
X24660000Y33020000D01*
X21060000Y32220000D02*
X24660000Y32220000D01*
X21060000Y33820000D02*
X21060000Y32220000D01*
X24660000Y33820000D02*
X21060000Y33820000D01*
X24660000Y32220000D02*
X24660000Y33820000D01*
%TO.C,R2*%
X24660000Y29680000D02*
X24660000Y31280000D01*
X24660000Y31280000D02*
X21060000Y31280000D01*
X21060000Y31280000D02*
X21060000Y29680000D01*
X21060000Y29680000D02*
X24660000Y29680000D01*
X26670000Y30480000D02*
X24660000Y30480000D01*
X19050000Y30480000D02*
X21060000Y30480000D01*
%TO.C,R3*%
X19050000Y27940000D02*
X21060000Y27940000D01*
X26670000Y27940000D02*
X24660000Y27940000D01*
X21060000Y27140000D02*
X24660000Y27140000D01*
X21060000Y28740000D02*
X21060000Y27140000D01*
X24660000Y28740000D02*
X21060000Y28740000D01*
X24660000Y27140000D02*
X24660000Y28740000D01*
%TO.C,R4*%
X24660000Y24600000D02*
X24660000Y26200000D01*
X24660000Y26200000D02*
X21060000Y26200000D01*
X21060000Y26200000D02*
X21060000Y24600000D01*
X21060000Y24600000D02*
X24660000Y24600000D01*
X26670000Y25400000D02*
X24660000Y25400000D01*
X19050000Y25400000D02*
X21060000Y25400000D01*
%TO.C,R5*%
X19050000Y22860000D02*
X21060000Y22860000D01*
X26670000Y22860000D02*
X24660000Y22860000D01*
X21060000Y22060000D02*
X24660000Y22060000D01*
X21060000Y23660000D02*
X21060000Y22060000D01*
X24660000Y23660000D02*
X21060000Y23660000D01*
X24660000Y22060000D02*
X24660000Y23660000D01*
%TO.C,R6*%
X24660000Y19520000D02*
X24660000Y21120000D01*
X24660000Y21120000D02*
X21060000Y21120000D01*
X21060000Y21120000D02*
X21060000Y19520000D01*
X21060000Y19520000D02*
X24660000Y19520000D01*
X26670000Y20320000D02*
X24660000Y20320000D01*
X19050000Y20320000D02*
X21060000Y20320000D01*
%TD*%
%TO.C,P1*%
D11*
X34853809Y6151620D02*
X34853809Y7151620D01*
X35234761Y7151620D01*
X35330000Y7104000D01*
X35377619Y7056381D01*
X35425238Y6961143D01*
X35425238Y6818286D01*
X35377619Y6723048D01*
X35330000Y6675429D01*
X35234761Y6627810D01*
X34853809Y6627810D01*
X35996666Y6151620D02*
X35901428Y6199239D01*
X35853809Y6246858D01*
X35806190Y6342096D01*
X35806190Y6627810D01*
X35853809Y6723048D01*
X35901428Y6770667D01*
X35996666Y6818286D01*
X36139523Y6818286D01*
X36234761Y6770667D01*
X36282380Y6723048D01*
X36330000Y6627810D01*
X36330000Y6342096D01*
X36282380Y6246858D01*
X36234761Y6199239D01*
X36139523Y6151620D01*
X35996666Y6151620D01*
X36663333Y6818286D02*
X36853809Y6151620D01*
X37044285Y6627810D01*
X37234761Y6151620D01*
X37425238Y6818286D01*
X38187142Y6199239D02*
X38091904Y6151620D01*
X37901428Y6151620D01*
X37806190Y6199239D01*
X37758571Y6294477D01*
X37758571Y6675429D01*
X37806190Y6770667D01*
X37901428Y6818286D01*
X38091904Y6818286D01*
X38187142Y6770667D01*
X38234761Y6675429D01*
X38234761Y6580191D01*
X37758571Y6484953D01*
X38663333Y6151620D02*
X38663333Y6818286D01*
X38663333Y6627810D02*
X38710952Y6723048D01*
X38758571Y6770667D01*
X38853809Y6818286D01*
X38949047Y6818286D01*
%TO.C,P2*%
X55094476Y6437334D02*
X55570666Y6437334D01*
X54999238Y6151620D02*
X55332571Y7151620D01*
X55665904Y6151620D01*
X55999238Y6818286D02*
X55999238Y6151620D01*
X55999238Y6723048D02*
X56046857Y6770667D01*
X56142095Y6818286D01*
X56284952Y6818286D01*
X56380190Y6770667D01*
X56427809Y6675429D01*
X56427809Y6151620D01*
X57332571Y6151620D02*
X57332571Y6675429D01*
X57284952Y6770667D01*
X57189714Y6818286D01*
X56999238Y6818286D01*
X56904000Y6770667D01*
X57332571Y6199239D02*
X57237333Y6151620D01*
X56999238Y6151620D01*
X56904000Y6199239D01*
X56856380Y6294477D01*
X56856380Y6389715D01*
X56904000Y6484953D01*
X56999238Y6532572D01*
X57237333Y6532572D01*
X57332571Y6580191D01*
X57951619Y6151620D02*
X57856380Y6199239D01*
X57808761Y6294477D01*
X57808761Y7151620D01*
X58475428Y6151620D02*
X58380190Y6199239D01*
X58332571Y6246858D01*
X58284952Y6342096D01*
X58284952Y6627810D01*
X58332571Y6723048D01*
X58380190Y6770667D01*
X58475428Y6818286D01*
X58618285Y6818286D01*
X58713523Y6770667D01*
X58761142Y6723048D01*
X58808761Y6627810D01*
X58808761Y6342096D01*
X58761142Y6246858D01*
X58713523Y6199239D01*
X58618285Y6151620D01*
X58475428Y6151620D01*
X59665904Y6818286D02*
X59665904Y6008762D01*
X59618285Y5913524D01*
X59570666Y5865905D01*
X59475428Y5818286D01*
X59332571Y5818286D01*
X59237333Y5865905D01*
X59665904Y6199239D02*
X59570666Y6151620D01*
X59380190Y6151620D01*
X59284952Y6199239D01*
X59237333Y6246858D01*
X59189714Y6342096D01*
X59189714Y6627810D01*
X59237333Y6723048D01*
X59284952Y6770667D01*
X59380190Y6818286D01*
X59570666Y6818286D01*
X59665904Y6770667D01*
%TO.C,P3*%
X28035523Y46029620D02*
X28035523Y47029620D01*
X28273619Y47029620D01*
X28416476Y46982000D01*
X28511714Y46886762D01*
X28559333Y46791524D01*
X28606952Y46601048D01*
X28606952Y46458191D01*
X28559333Y46267715D01*
X28511714Y46172477D01*
X28416476Y46077239D01*
X28273619Y46029620D01*
X28035523Y46029620D01*
X29035523Y46029620D02*
X29035523Y46696286D01*
X29035523Y47029620D02*
X28987904Y46982000D01*
X29035523Y46934381D01*
X29083142Y46982000D01*
X29035523Y47029620D01*
X29035523Y46934381D01*
X29940285Y46696286D02*
X29940285Y45886762D01*
X29892666Y45791524D01*
X29845047Y45743905D01*
X29749809Y45696286D01*
X29606952Y45696286D01*
X29511714Y45743905D01*
X29940285Y46077239D02*
X29845047Y46029620D01*
X29654571Y46029620D01*
X29559333Y46077239D01*
X29511714Y46124858D01*
X29464095Y46220096D01*
X29464095Y46505810D01*
X29511714Y46601048D01*
X29559333Y46648667D01*
X29654571Y46696286D01*
X29845047Y46696286D01*
X29940285Y46648667D01*
X30416476Y46029620D02*
X30416476Y46696286D01*
X30416476Y47029620D02*
X30368857Y46982000D01*
X30416476Y46934381D01*
X30464095Y46982000D01*
X30416476Y47029620D01*
X30416476Y46934381D01*
X30749809Y46696286D02*
X31130761Y46696286D01*
X30892666Y47029620D02*
X30892666Y46172477D01*
X30940285Y46077239D01*
X31035523Y46029620D01*
X31130761Y46029620D01*
X31892666Y46029620D02*
X31892666Y46553429D01*
X31845047Y46648667D01*
X31749809Y46696286D01*
X31559333Y46696286D01*
X31464095Y46648667D01*
X31892666Y46077239D02*
X31797428Y46029620D01*
X31559333Y46029620D01*
X31464095Y46077239D01*
X31416476Y46172477D01*
X31416476Y46267715D01*
X31464095Y46362953D01*
X31559333Y46410572D01*
X31797428Y46410572D01*
X31892666Y46458191D01*
X32511714Y46029620D02*
X32416476Y46077239D01*
X32368857Y46172477D01*
X32368857Y47029620D01*
%TO.C,P4*%
X52419523Y46029620D02*
X52419523Y47029620D01*
X52657619Y47029620D01*
X52800476Y46982000D01*
X52895714Y46886762D01*
X52943333Y46791524D01*
X52990952Y46601048D01*
X52990952Y46458191D01*
X52943333Y46267715D01*
X52895714Y46172477D01*
X52800476Y46077239D01*
X52657619Y46029620D01*
X52419523Y46029620D01*
X53419523Y46029620D02*
X53419523Y46696286D01*
X53419523Y47029620D02*
X53371904Y46982000D01*
X53419523Y46934381D01*
X53467142Y46982000D01*
X53419523Y47029620D01*
X53419523Y46934381D01*
X54324285Y46696286D02*
X54324285Y45886762D01*
X54276666Y45791524D01*
X54229047Y45743905D01*
X54133809Y45696286D01*
X53990952Y45696286D01*
X53895714Y45743905D01*
X54324285Y46077239D02*
X54229047Y46029620D01*
X54038571Y46029620D01*
X53943333Y46077239D01*
X53895714Y46124858D01*
X53848095Y46220096D01*
X53848095Y46505810D01*
X53895714Y46601048D01*
X53943333Y46648667D01*
X54038571Y46696286D01*
X54229047Y46696286D01*
X54324285Y46648667D01*
X54800476Y46029620D02*
X54800476Y46696286D01*
X54800476Y47029620D02*
X54752857Y46982000D01*
X54800476Y46934381D01*
X54848095Y46982000D01*
X54800476Y47029620D01*
X54800476Y46934381D01*
X55133809Y46696286D02*
X55514761Y46696286D01*
X55276666Y47029620D02*
X55276666Y46172477D01*
X55324285Y46077239D01*
X55419523Y46029620D01*
X55514761Y46029620D01*
X56276666Y46029620D02*
X56276666Y46553429D01*
X56229047Y46648667D01*
X56133809Y46696286D01*
X55943333Y46696286D01*
X55848095Y46648667D01*
X56276666Y46077239D02*
X56181428Y46029620D01*
X55943333Y46029620D01*
X55848095Y46077239D01*
X55800476Y46172477D01*
X55800476Y46267715D01*
X55848095Y46362953D01*
X55943333Y46410572D01*
X56181428Y46410572D01*
X56276666Y46458191D01*
X56895714Y46029620D02*
X56800476Y46077239D01*
X56752857Y46172477D01*
X56752857Y47029620D01*
%TO.C,C1*%
X30535714Y33472381D02*
X30583333Y33520000D01*
X30678571Y33567620D01*
X30916666Y33567620D01*
X31011904Y33520000D01*
X31059523Y33472381D01*
X31107142Y33377143D01*
X31107142Y33281905D01*
X31059523Y33139048D01*
X30488095Y32567620D01*
X31107142Y32567620D01*
X31488095Y33472381D02*
X31535714Y33520000D01*
X31630952Y33567620D01*
X31869047Y33567620D01*
X31964285Y33520000D01*
X32011904Y33472381D01*
X32059523Y33377143D01*
X32059523Y33281905D01*
X32011904Y33139048D01*
X31440476Y32567620D01*
X32059523Y32567620D01*
X32488095Y33234286D02*
X32488095Y32234286D01*
X32488095Y33186667D02*
X32583333Y33234286D01*
X32773809Y33234286D01*
X32869047Y33186667D01*
X32916666Y33139048D01*
X32964285Y33043810D01*
X32964285Y32758096D01*
X32916666Y32662858D01*
X32869047Y32615239D01*
X32773809Y32567620D01*
X32583333Y32567620D01*
X32488095Y32615239D01*
D12*
X36686666Y32712858D02*
X36645714Y32671905D01*
X36522857Y32630953D01*
X36440952Y32630953D01*
X36318095Y32671905D01*
X36236190Y32753810D01*
X36195238Y32835715D01*
X36154285Y32999524D01*
X36154285Y33122381D01*
X36195238Y33286191D01*
X36236190Y33368096D01*
X36318095Y33450000D01*
X36440952Y33490953D01*
X36522857Y33490953D01*
X36645714Y33450000D01*
X36686666Y33409048D01*
X37505714Y32630953D02*
X37014285Y32630953D01*
X37260000Y32630953D02*
X37260000Y33490953D01*
X37178095Y33368096D01*
X37096190Y33286191D01*
X37014285Y33245239D01*
%TO.C,C2*%
D11*
X30535714Y30932381D02*
X30583333Y30980000D01*
X30678571Y31027620D01*
X30916666Y31027620D01*
X31011904Y30980000D01*
X31059523Y30932381D01*
X31107142Y30837143D01*
X31107142Y30741905D01*
X31059523Y30599048D01*
X30488095Y30027620D01*
X31107142Y30027620D01*
X31488095Y30932381D02*
X31535714Y30980000D01*
X31630952Y31027620D01*
X31869047Y31027620D01*
X31964285Y30980000D01*
X32011904Y30932381D01*
X32059523Y30837143D01*
X32059523Y30741905D01*
X32011904Y30599048D01*
X31440476Y30027620D01*
X32059523Y30027620D01*
X32488095Y30694286D02*
X32488095Y29694286D01*
X32488095Y30646667D02*
X32583333Y30694286D01*
X32773809Y30694286D01*
X32869047Y30646667D01*
X32916666Y30599048D01*
X32964285Y30503810D01*
X32964285Y30218096D01*
X32916666Y30122858D01*
X32869047Y30075239D01*
X32773809Y30027620D01*
X32583333Y30027620D01*
X32488095Y30075239D01*
D12*
X36646666Y30172858D02*
X36605714Y30131905D01*
X36482857Y30090953D01*
X36400952Y30090953D01*
X36278095Y30131905D01*
X36196190Y30213810D01*
X36155238Y30295715D01*
X36114285Y30459524D01*
X36114285Y30582381D01*
X36155238Y30746191D01*
X36196190Y30828096D01*
X36278095Y30910000D01*
X36400952Y30950953D01*
X36482857Y30950953D01*
X36605714Y30910000D01*
X36646666Y30869048D01*
X36974285Y30869048D02*
X37015238Y30910000D01*
X37097142Y30950953D01*
X37301904Y30950953D01*
X37383809Y30910000D01*
X37424761Y30869048D01*
X37465714Y30787143D01*
X37465714Y30705239D01*
X37424761Y30582381D01*
X36933333Y30090953D01*
X37465714Y30090953D01*
%TO.C,C3*%
D11*
X30535714Y28392381D02*
X30583333Y28440000D01*
X30678571Y28487620D01*
X30916666Y28487620D01*
X31011904Y28440000D01*
X31059523Y28392381D01*
X31107142Y28297143D01*
X31107142Y28201905D01*
X31059523Y28059048D01*
X30488095Y27487620D01*
X31107142Y27487620D01*
X31488095Y28392381D02*
X31535714Y28440000D01*
X31630952Y28487620D01*
X31869047Y28487620D01*
X31964285Y28440000D01*
X32011904Y28392381D01*
X32059523Y28297143D01*
X32059523Y28201905D01*
X32011904Y28059048D01*
X31440476Y27487620D01*
X32059523Y27487620D01*
X32488095Y28154286D02*
X32488095Y27154286D01*
X32488095Y28106667D02*
X32583333Y28154286D01*
X32773809Y28154286D01*
X32869047Y28106667D01*
X32916666Y28059048D01*
X32964285Y27963810D01*
X32964285Y27678096D01*
X32916666Y27582858D01*
X32869047Y27535239D01*
X32773809Y27487620D01*
X32583333Y27487620D01*
X32488095Y27535239D01*
D12*
X36646666Y27632858D02*
X36605714Y27591905D01*
X36482857Y27550953D01*
X36400952Y27550953D01*
X36278095Y27591905D01*
X36196190Y27673810D01*
X36155238Y27755715D01*
X36114285Y27919524D01*
X36114285Y28042381D01*
X36155238Y28206191D01*
X36196190Y28288096D01*
X36278095Y28370000D01*
X36400952Y28410953D01*
X36482857Y28410953D01*
X36605714Y28370000D01*
X36646666Y28329048D01*
X36933333Y28410953D02*
X37465714Y28410953D01*
X37179047Y28083334D01*
X37301904Y28083334D01*
X37383809Y28042381D01*
X37424761Y28001429D01*
X37465714Y27919524D01*
X37465714Y27714762D01*
X37424761Y27632858D01*
X37383809Y27591905D01*
X37301904Y27550953D01*
X37056190Y27550953D01*
X36974285Y27591905D01*
X36933333Y27632858D01*
%TO.C,C4*%
D11*
X30535714Y25852381D02*
X30583333Y25900000D01*
X30678571Y25947620D01*
X30916666Y25947620D01*
X31011904Y25900000D01*
X31059523Y25852381D01*
X31107142Y25757143D01*
X31107142Y25661905D01*
X31059523Y25519048D01*
X30488095Y24947620D01*
X31107142Y24947620D01*
X31488095Y25852381D02*
X31535714Y25900000D01*
X31630952Y25947620D01*
X31869047Y25947620D01*
X31964285Y25900000D01*
X32011904Y25852381D01*
X32059523Y25757143D01*
X32059523Y25661905D01*
X32011904Y25519048D01*
X31440476Y24947620D01*
X32059523Y24947620D01*
X32488095Y25614286D02*
X32488095Y24614286D01*
X32488095Y25566667D02*
X32583333Y25614286D01*
X32773809Y25614286D01*
X32869047Y25566667D01*
X32916666Y25519048D01*
X32964285Y25423810D01*
X32964285Y25138096D01*
X32916666Y25042858D01*
X32869047Y24995239D01*
X32773809Y24947620D01*
X32583333Y24947620D01*
X32488095Y24995239D01*
D12*
X36646666Y25092858D02*
X36605714Y25051905D01*
X36482857Y25010953D01*
X36400952Y25010953D01*
X36278095Y25051905D01*
X36196190Y25133810D01*
X36155238Y25215715D01*
X36114285Y25379524D01*
X36114285Y25502381D01*
X36155238Y25666191D01*
X36196190Y25748096D01*
X36278095Y25830000D01*
X36400952Y25870953D01*
X36482857Y25870953D01*
X36605714Y25830000D01*
X36646666Y25789048D01*
X37383809Y25584286D02*
X37383809Y25010953D01*
X37179047Y25911905D02*
X36974285Y25297620D01*
X37506666Y25297620D01*
%TO.C,C5*%
D11*
X30535714Y20772381D02*
X30583333Y20820000D01*
X30678571Y20867620D01*
X30916666Y20867620D01*
X31011904Y20820000D01*
X31059523Y20772381D01*
X31107142Y20677143D01*
X31107142Y20581905D01*
X31059523Y20439048D01*
X30488095Y19867620D01*
X31107142Y19867620D01*
X31488095Y20772381D02*
X31535714Y20820000D01*
X31630952Y20867620D01*
X31869047Y20867620D01*
X31964285Y20820000D01*
X32011904Y20772381D01*
X32059523Y20677143D01*
X32059523Y20581905D01*
X32011904Y20439048D01*
X31440476Y19867620D01*
X32059523Y19867620D01*
X32488095Y20534286D02*
X32488095Y19534286D01*
X32488095Y20486667D02*
X32583333Y20534286D01*
X32773809Y20534286D01*
X32869047Y20486667D01*
X32916666Y20439048D01*
X32964285Y20343810D01*
X32964285Y20058096D01*
X32916666Y19962858D01*
X32869047Y19915239D01*
X32773809Y19867620D01*
X32583333Y19867620D01*
X32488095Y19915239D01*
D12*
X36646666Y22552858D02*
X36605714Y22511905D01*
X36482857Y22470953D01*
X36400952Y22470953D01*
X36278095Y22511905D01*
X36196190Y22593810D01*
X36155238Y22675715D01*
X36114285Y22839524D01*
X36114285Y22962381D01*
X36155238Y23126191D01*
X36196190Y23208096D01*
X36278095Y23290000D01*
X36400952Y23330953D01*
X36482857Y23330953D01*
X36605714Y23290000D01*
X36646666Y23249048D01*
X37424761Y23330953D02*
X37015238Y23330953D01*
X36974285Y22921429D01*
X37015238Y22962381D01*
X37097142Y23003334D01*
X37301904Y23003334D01*
X37383809Y22962381D01*
X37424761Y22921429D01*
X37465714Y22839524D01*
X37465714Y22634762D01*
X37424761Y22552858D01*
X37383809Y22511905D01*
X37301904Y22470953D01*
X37097142Y22470953D01*
X37015238Y22511905D01*
X36974285Y22552858D01*
%TO.C,C6*%
D11*
X30535714Y23312381D02*
X30583333Y23360000D01*
X30678571Y23407620D01*
X30916666Y23407620D01*
X31011904Y23360000D01*
X31059523Y23312381D01*
X31107142Y23217143D01*
X31107142Y23121905D01*
X31059523Y22979048D01*
X30488095Y22407620D01*
X31107142Y22407620D01*
X31488095Y23312381D02*
X31535714Y23360000D01*
X31630952Y23407620D01*
X31869047Y23407620D01*
X31964285Y23360000D01*
X32011904Y23312381D01*
X32059523Y23217143D01*
X32059523Y23121905D01*
X32011904Y22979048D01*
X31440476Y22407620D01*
X32059523Y22407620D01*
X32488095Y23074286D02*
X32488095Y22074286D01*
X32488095Y23026667D02*
X32583333Y23074286D01*
X32773809Y23074286D01*
X32869047Y23026667D01*
X32916666Y22979048D01*
X32964285Y22883810D01*
X32964285Y22598096D01*
X32916666Y22502858D01*
X32869047Y22455239D01*
X32773809Y22407620D01*
X32583333Y22407620D01*
X32488095Y22455239D01*
D12*
X36646666Y20012858D02*
X36605714Y19971905D01*
X36482857Y19930953D01*
X36400952Y19930953D01*
X36278095Y19971905D01*
X36196190Y20053810D01*
X36155238Y20135715D01*
X36114285Y20299524D01*
X36114285Y20422381D01*
X36155238Y20586191D01*
X36196190Y20668096D01*
X36278095Y20750000D01*
X36400952Y20790953D01*
X36482857Y20790953D01*
X36605714Y20750000D01*
X36646666Y20709048D01*
X37383809Y20790953D02*
X37220000Y20790953D01*
X37138095Y20750000D01*
X37097142Y20709048D01*
X37015238Y20586191D01*
X36974285Y20422381D01*
X36974285Y20094762D01*
X37015238Y20012858D01*
X37056190Y19971905D01*
X37138095Y19930953D01*
X37301904Y19930953D01*
X37383809Y19971905D01*
X37424761Y20012858D01*
X37465714Y20094762D01*
X37465714Y20299524D01*
X37424761Y20381429D01*
X37383809Y20422381D01*
X37301904Y20463334D01*
X37138095Y20463334D01*
X37056190Y20422381D01*
X37015238Y20381429D01*
X36974285Y20299524D01*
%TO.C,J1*%
D11*
X3080952Y17537620D02*
X3080952Y18537620D01*
X3461904Y18537620D01*
X3557142Y18490000D01*
X3604761Y18442381D01*
X3652380Y18347143D01*
X3652380Y18204286D01*
X3604761Y18109048D01*
X3557142Y18061429D01*
X3461904Y18013810D01*
X3080952Y18013810D01*
X4080952Y17537620D02*
X4080952Y18204286D01*
X4080952Y18537620D02*
X4033333Y18490000D01*
X4080952Y18442381D01*
X4128571Y18490000D01*
X4080952Y18537620D01*
X4080952Y18442381D01*
X4557142Y18204286D02*
X4557142Y17537620D01*
X4557142Y18109048D02*
X4604761Y18156667D01*
X4700000Y18204286D01*
X4842857Y18204286D01*
X4938095Y18156667D01*
X4985714Y18061429D01*
X4985714Y17537620D01*
X5461904Y17537620D02*
X5461904Y18537620D01*
X5461904Y18061429D02*
X6033333Y18061429D01*
X6033333Y17537620D02*
X6033333Y18537620D01*
X6890476Y17585239D02*
X6795238Y17537620D01*
X6604761Y17537620D01*
X6509523Y17585239D01*
X6461904Y17680477D01*
X6461904Y18061429D01*
X6509523Y18156667D01*
X6604761Y18204286D01*
X6795238Y18204286D01*
X6890476Y18156667D01*
X6938095Y18061429D01*
X6938095Y17966191D01*
X6461904Y17870953D01*
X7795238Y17537620D02*
X7795238Y18061429D01*
X7747619Y18156667D01*
X7652380Y18204286D01*
X7461904Y18204286D01*
X7366666Y18156667D01*
X7795238Y17585239D02*
X7700000Y17537620D01*
X7461904Y17537620D01*
X7366666Y17585239D01*
X7319047Y17680477D01*
X7319047Y17775715D01*
X7366666Y17870953D01*
X7461904Y17918572D01*
X7700000Y17918572D01*
X7795238Y17966191D01*
X8700000Y17537620D02*
X8700000Y18537620D01*
X8700000Y17585239D02*
X8604761Y17537620D01*
X8414285Y17537620D01*
X8319047Y17585239D01*
X8271428Y17632858D01*
X8223809Y17728096D01*
X8223809Y18013810D01*
X8271428Y18109048D01*
X8319047Y18156667D01*
X8414285Y18204286D01*
X8604761Y18204286D01*
X8700000Y18156667D01*
X9557142Y17585239D02*
X9461904Y17537620D01*
X9271428Y17537620D01*
X9176190Y17585239D01*
X9128571Y17680477D01*
X9128571Y18061429D01*
X9176190Y18156667D01*
X9271428Y18204286D01*
X9461904Y18204286D01*
X9557142Y18156667D01*
X9604761Y18061429D01*
X9604761Y17966191D01*
X9128571Y17870953D01*
X10033333Y17537620D02*
X10033333Y18204286D01*
X10033333Y18013810D02*
X10080952Y18109048D01*
X10128571Y18156667D01*
X10223809Y18204286D01*
X10319047Y18204286D01*
X10414285Y17442381D02*
X11176190Y17442381D01*
X11604761Y18537620D02*
X11700000Y18537620D01*
X11795238Y18490000D01*
X11842857Y18442381D01*
X11890476Y18347143D01*
X11938095Y18156667D01*
X11938095Y17918572D01*
X11890476Y17728096D01*
X11842857Y17632858D01*
X11795238Y17585239D01*
X11700000Y17537620D01*
X11604761Y17537620D01*
X11509523Y17585239D01*
X11461904Y17632858D01*
X11414285Y17728096D01*
X11366666Y17918572D01*
X11366666Y18156667D01*
X11414285Y18347143D01*
X11461904Y18442381D01*
X11509523Y18490000D01*
X11604761Y18537620D01*
X12319047Y18442381D02*
X12366666Y18490000D01*
X12461904Y18537620D01*
X12700000Y18537620D01*
X12795238Y18490000D01*
X12842857Y18442381D01*
X12890476Y18347143D01*
X12890476Y18251905D01*
X12842857Y18109048D01*
X12271428Y17537620D01*
X12890476Y17537620D01*
X13223809Y17537620D02*
X13747619Y18204286D01*
X13223809Y18204286D02*
X13747619Y17537620D01*
X14319047Y18537620D02*
X14414285Y18537620D01*
X14509523Y18490000D01*
X14557142Y18442381D01*
X14604761Y18347143D01*
X14652380Y18156667D01*
X14652380Y17918572D01*
X14604761Y17728096D01*
X14557142Y17632858D01*
X14509523Y17585239D01*
X14414285Y17537620D01*
X14319047Y17537620D01*
X14223809Y17585239D01*
X14176190Y17632858D01*
X14128571Y17728096D01*
X14080952Y17918572D01*
X14080952Y18156667D01*
X14128571Y18347143D01*
X14176190Y18442381D01*
X14223809Y18490000D01*
X14319047Y18537620D01*
X15509523Y18537620D02*
X15319047Y18537620D01*
X15223809Y18490000D01*
X15176190Y18442381D01*
X15080952Y18299524D01*
X15033333Y18109048D01*
X15033333Y17728096D01*
X15080952Y17632858D01*
X15128571Y17585239D01*
X15223809Y17537620D01*
X15414285Y17537620D01*
X15509523Y17585239D01*
X15557142Y17632858D01*
X15604761Y17728096D01*
X15604761Y17966191D01*
X15557142Y18061429D01*
X15509523Y18109048D01*
X15414285Y18156667D01*
X15223809Y18156667D01*
X15128571Y18109048D01*
X15080952Y18061429D01*
X15033333Y17966191D01*
X15795238Y17442381D02*
X16557142Y17442381D01*
X16747619Y18442381D02*
X16795238Y18490000D01*
X16890476Y18537620D01*
X17128571Y18537620D01*
X17223809Y18490000D01*
X17271428Y18442381D01*
X17319047Y18347143D01*
X17319047Y18251905D01*
X17271428Y18109048D01*
X16700000Y17537620D01*
X17319047Y17537620D01*
X17747619Y17632858D02*
X17795238Y17585239D01*
X17747619Y17537620D01*
X17700000Y17585239D01*
X17747619Y17632858D01*
X17747619Y17537620D01*
X18700000Y18537620D02*
X18223809Y18537620D01*
X18176190Y18061429D01*
X18223809Y18109048D01*
X18319047Y18156667D01*
X18557142Y18156667D01*
X18652380Y18109048D01*
X18700000Y18061429D01*
X18747619Y17966191D01*
X18747619Y17728096D01*
X18700000Y17632858D01*
X18652380Y17585239D01*
X18557142Y17537620D01*
X18319047Y17537620D01*
X18223809Y17585239D01*
X18176190Y17632858D01*
X19604761Y18204286D02*
X19604761Y17537620D01*
X19366666Y18585239D02*
X19128571Y17870953D01*
X19747619Y17870953D01*
X20128571Y17537620D02*
X20128571Y18204286D01*
X20128571Y18109048D02*
X20176190Y18156667D01*
X20271428Y18204286D01*
X20414285Y18204286D01*
X20509523Y18156667D01*
X20557142Y18061429D01*
X20557142Y17537620D01*
X20557142Y18061429D02*
X20604761Y18156667D01*
X20700000Y18204286D01*
X20842857Y18204286D01*
X20938095Y18156667D01*
X20985714Y18061429D01*
X20985714Y17537620D01*
X21461904Y17537620D02*
X21461904Y18204286D01*
X21461904Y18109048D02*
X21509523Y18156667D01*
X21604761Y18204286D01*
X21747619Y18204286D01*
X21842857Y18156667D01*
X21890476Y18061429D01*
X21890476Y17537620D01*
X21890476Y18061429D02*
X21938095Y18156667D01*
X22033333Y18204286D01*
X22176190Y18204286D01*
X22271428Y18156667D01*
X22319047Y18061429D01*
X22319047Y17537620D01*
X12152380Y26336667D02*
X12866666Y26336667D01*
X13009523Y26289048D01*
X13104761Y26193810D01*
X13152380Y26050953D01*
X13152380Y25955715D01*
X13152380Y27336667D02*
X13152380Y26765239D01*
X13152380Y27050953D02*
X12152380Y27050953D01*
X12295238Y26955715D01*
X12390476Y26860477D01*
X12438095Y26765239D01*
%TO.C,R1*%
X16859285Y32567620D02*
X16287857Y32567620D01*
X16573571Y32567620D02*
X16573571Y33567620D01*
X16478333Y33424762D01*
X16383095Y33329524D01*
X16287857Y33281905D01*
X17287857Y32567620D02*
X17287857Y33567620D01*
X17621190Y32853334D01*
X17954523Y33567620D01*
X17954523Y32567620D01*
D13*
X22740000Y32694286D02*
X22500000Y33037143D01*
X22328571Y32694286D02*
X22328571Y33414286D01*
X22602857Y33414286D01*
X22671428Y33380000D01*
X22705714Y33345715D01*
X22740000Y33277143D01*
X22740000Y33174286D01*
X22705714Y33105715D01*
X22671428Y33071429D01*
X22602857Y33037143D01*
X22328571Y33037143D01*
X23425714Y32694286D02*
X23014285Y32694286D01*
X23220000Y32694286D02*
X23220000Y33414286D01*
X23151428Y33311429D01*
X23082857Y33242858D01*
X23014285Y33208572D01*
%TO.C,R2*%
D11*
X16859285Y30027620D02*
X16287857Y30027620D01*
X16573571Y30027620D02*
X16573571Y31027620D01*
X16478333Y30884762D01*
X16383095Y30789524D01*
X16287857Y30741905D01*
X17287857Y30027620D02*
X17287857Y31027620D01*
X17621190Y30313334D01*
X17954523Y31027620D01*
X17954523Y30027620D01*
D13*
X22740000Y30154286D02*
X22500000Y30497143D01*
X22328571Y30154286D02*
X22328571Y30874286D01*
X22602857Y30874286D01*
X22671428Y30840000D01*
X22705714Y30805715D01*
X22740000Y30737143D01*
X22740000Y30634286D01*
X22705714Y30565715D01*
X22671428Y30531429D01*
X22602857Y30497143D01*
X22328571Y30497143D01*
X23014285Y30805715D02*
X23048571Y30840000D01*
X23117142Y30874286D01*
X23288571Y30874286D01*
X23357142Y30840000D01*
X23391428Y30805715D01*
X23425714Y30737143D01*
X23425714Y30668572D01*
X23391428Y30565715D01*
X22980000Y30154286D01*
X23425714Y30154286D01*
%TO.C,R3*%
D11*
X16859285Y27487620D02*
X16287857Y27487620D01*
X16573571Y27487620D02*
X16573571Y28487620D01*
X16478333Y28344762D01*
X16383095Y28249524D01*
X16287857Y28201905D01*
X17287857Y27487620D02*
X17287857Y28487620D01*
X17621190Y27773334D01*
X17954523Y28487620D01*
X17954523Y27487620D01*
D13*
X22740000Y27614286D02*
X22500000Y27957143D01*
X22328571Y27614286D02*
X22328571Y28334286D01*
X22602857Y28334286D01*
X22671428Y28300000D01*
X22705714Y28265715D01*
X22740000Y28197143D01*
X22740000Y28094286D01*
X22705714Y28025715D01*
X22671428Y27991429D01*
X22602857Y27957143D01*
X22328571Y27957143D01*
X22980000Y28334286D02*
X23425714Y28334286D01*
X23185714Y28060000D01*
X23288571Y28060000D01*
X23357142Y28025715D01*
X23391428Y27991429D01*
X23425714Y27922858D01*
X23425714Y27751429D01*
X23391428Y27682858D01*
X23357142Y27648572D01*
X23288571Y27614286D01*
X23082857Y27614286D01*
X23014285Y27648572D01*
X22980000Y27682858D01*
%TO.C,R4*%
D11*
X16859285Y24947620D02*
X16287857Y24947620D01*
X16573571Y24947620D02*
X16573571Y25947620D01*
X16478333Y25804762D01*
X16383095Y25709524D01*
X16287857Y25661905D01*
X17287857Y24947620D02*
X17287857Y25947620D01*
X17621190Y25233334D01*
X17954523Y25947620D01*
X17954523Y24947620D01*
D13*
X22740000Y25074286D02*
X22500000Y25417143D01*
X22328571Y25074286D02*
X22328571Y25794286D01*
X22602857Y25794286D01*
X22671428Y25760000D01*
X22705714Y25725715D01*
X22740000Y25657143D01*
X22740000Y25554286D01*
X22705714Y25485715D01*
X22671428Y25451429D01*
X22602857Y25417143D01*
X22328571Y25417143D01*
X23357142Y25554286D02*
X23357142Y25074286D01*
X23185714Y25828572D02*
X23014285Y25314286D01*
X23460000Y25314286D01*
%TO.C,R5*%
D11*
X16859285Y22407620D02*
X16287857Y22407620D01*
X16573571Y22407620D02*
X16573571Y23407620D01*
X16478333Y23264762D01*
X16383095Y23169524D01*
X16287857Y23121905D01*
X17287857Y22407620D02*
X17287857Y23407620D01*
X17621190Y22693334D01*
X17954523Y23407620D01*
X17954523Y22407620D01*
D13*
X22740000Y22534286D02*
X22500000Y22877143D01*
X22328571Y22534286D02*
X22328571Y23254286D01*
X22602857Y23254286D01*
X22671428Y23220000D01*
X22705714Y23185715D01*
X22740000Y23117143D01*
X22740000Y23014286D01*
X22705714Y22945715D01*
X22671428Y22911429D01*
X22602857Y22877143D01*
X22328571Y22877143D01*
X23391428Y23254286D02*
X23048571Y23254286D01*
X23014285Y22911429D01*
X23048571Y22945715D01*
X23117142Y22980000D01*
X23288571Y22980000D01*
X23357142Y22945715D01*
X23391428Y22911429D01*
X23425714Y22842858D01*
X23425714Y22671429D01*
X23391428Y22602858D01*
X23357142Y22568572D01*
X23288571Y22534286D01*
X23117142Y22534286D01*
X23048571Y22568572D01*
X23014285Y22602858D01*
%TO.C,R6*%
D11*
X16859285Y19867620D02*
X16287857Y19867620D01*
X16573571Y19867620D02*
X16573571Y20867620D01*
X16478333Y20724762D01*
X16383095Y20629524D01*
X16287857Y20581905D01*
X17287857Y19867620D02*
X17287857Y20867620D01*
X17621190Y20153334D01*
X17954523Y20867620D01*
X17954523Y19867620D01*
D13*
X22740000Y19994286D02*
X22500000Y20337143D01*
X22328571Y19994286D02*
X22328571Y20714286D01*
X22602857Y20714286D01*
X22671428Y20680000D01*
X22705714Y20645715D01*
X22740000Y20577143D01*
X22740000Y20474286D01*
X22705714Y20405715D01*
X22671428Y20371429D01*
X22602857Y20337143D01*
X22328571Y20337143D01*
X23357142Y20714286D02*
X23220000Y20714286D01*
X23151428Y20680000D01*
X23117142Y20645715D01*
X23048571Y20542858D01*
X23014285Y20405715D01*
X23014285Y20131429D01*
X23048571Y20062858D01*
X23082857Y20028572D01*
X23151428Y19994286D01*
X23288571Y19994286D01*
X23357142Y20028572D01*
X23391428Y20062858D01*
X23425714Y20131429D01*
X23425714Y20302858D01*
X23391428Y20371429D01*
X23357142Y20405715D01*
X23288571Y20440000D01*
X23151428Y20440000D01*
X23082857Y20405715D01*
X23048571Y20371429D01*
X23014285Y20302858D01*
%TD*%
M02*
