%TF.GenerationSoftware,KiCad,Pcbnew,5.1.6-c6e7f7d~87~ubuntu18.04.1*%
%TF.CreationDate,2020-08-10T15:18:34+02:00*%
%TF.ProjectId,uno-analog-input,756e6f2d-616e-4616-9c6f-672d696e7075,1.0*%
%TF.SameCoordinates,PX69db1f0PY7882d48*%
%TF.FileFunction,Other,Fab,Top*%
%FSLAX46Y46*%
G04 Gerber Fmt 4.6, Leading zero omitted, Abs format (unit mm)*
G04 Created by KiCad (PCBNEW 5.1.6-c6e7f7d~87~ubuntu18.04.1) date 2020-08-10 15:18:34*
%MOMM*%
%LPD*%
G01*
G04 APERTURE LIST*
%ADD10C,0.100000*%
%ADD11C,0.150000*%
%ADD12C,0.108000*%
G04 APERTURE END LIST*
D10*
%TO.C,R12*%
X41170000Y19520000D02*
X41170000Y21120000D01*
X41170000Y21120000D02*
X37570000Y21120000D01*
X37570000Y21120000D02*
X37570000Y19520000D01*
X37570000Y19520000D02*
X41170000Y19520000D01*
X43180000Y20320000D02*
X41170000Y20320000D01*
X35560000Y20320000D02*
X37570000Y20320000D01*
%TO.C,R10*%
X41170000Y24600000D02*
X41170000Y26200000D01*
X41170000Y26200000D02*
X37570000Y26200000D01*
X37570000Y26200000D02*
X37570000Y24600000D01*
X37570000Y24600000D02*
X41170000Y24600000D01*
X43180000Y25400000D02*
X41170000Y25400000D01*
X35560000Y25400000D02*
X37570000Y25400000D01*
%TO.C,R9*%
X41170000Y27140000D02*
X41170000Y28740000D01*
X41170000Y28740000D02*
X37570000Y28740000D01*
X37570000Y28740000D02*
X37570000Y27140000D01*
X37570000Y27140000D02*
X41170000Y27140000D01*
X43180000Y27940000D02*
X41170000Y27940000D01*
X35560000Y27940000D02*
X37570000Y27940000D01*
%TO.C,R8*%
X41170000Y29680000D02*
X41170000Y31280000D01*
X41170000Y31280000D02*
X37570000Y31280000D01*
X37570000Y31280000D02*
X37570000Y29680000D01*
X37570000Y29680000D02*
X41170000Y29680000D01*
X43180000Y30480000D02*
X41170000Y30480000D01*
X35560000Y30480000D02*
X37570000Y30480000D01*
%TO.C,R7*%
X41170000Y32220000D02*
X41170000Y33820000D01*
X41170000Y33820000D02*
X37570000Y33820000D01*
X37570000Y33820000D02*
X37570000Y32220000D01*
X37570000Y32220000D02*
X41170000Y32220000D01*
X43180000Y33020000D02*
X41170000Y33020000D01*
X35560000Y33020000D02*
X37570000Y33020000D01*
%TO.C,R6*%
X25930000Y19520000D02*
X25930000Y21120000D01*
X25930000Y21120000D02*
X22330000Y21120000D01*
X22330000Y21120000D02*
X22330000Y19520000D01*
X22330000Y19520000D02*
X25930000Y19520000D01*
X27940000Y20320000D02*
X25930000Y20320000D01*
X20320000Y20320000D02*
X22330000Y20320000D01*
%TO.C,R5*%
X25930000Y22060000D02*
X25930000Y23660000D01*
X25930000Y23660000D02*
X22330000Y23660000D01*
X22330000Y23660000D02*
X22330000Y22060000D01*
X22330000Y22060000D02*
X25930000Y22060000D01*
X27940000Y22860000D02*
X25930000Y22860000D01*
X20320000Y22860000D02*
X22330000Y22860000D01*
%TO.C,R4*%
X25930000Y24600000D02*
X25930000Y26200000D01*
X25930000Y26200000D02*
X22330000Y26200000D01*
X22330000Y26200000D02*
X22330000Y24600000D01*
X22330000Y24600000D02*
X25930000Y24600000D01*
X27940000Y25400000D02*
X25930000Y25400000D01*
X20320000Y25400000D02*
X22330000Y25400000D01*
%TO.C,R3*%
X25930000Y27140000D02*
X25930000Y28740000D01*
X25930000Y28740000D02*
X22330000Y28740000D01*
X22330000Y28740000D02*
X22330000Y27140000D01*
X22330000Y27140000D02*
X25930000Y27140000D01*
X27940000Y27940000D02*
X25930000Y27940000D01*
X20320000Y27940000D02*
X22330000Y27940000D01*
%TO.C,R2*%
X25930000Y29680000D02*
X25930000Y31280000D01*
X25930000Y31280000D02*
X22330000Y31280000D01*
X22330000Y31280000D02*
X22330000Y29680000D01*
X22330000Y29680000D02*
X25930000Y29680000D01*
X27940000Y30480000D02*
X25930000Y30480000D01*
X20320000Y30480000D02*
X22330000Y30480000D01*
%TO.C,R1*%
X25930000Y32220000D02*
X25930000Y33820000D01*
X25930000Y33820000D02*
X22330000Y33820000D01*
X22330000Y33820000D02*
X22330000Y32220000D01*
X22330000Y32220000D02*
X25930000Y32220000D01*
X27940000Y33020000D02*
X25930000Y33020000D01*
X20320000Y33020000D02*
X22330000Y33020000D01*
%TO.C,J1*%
X11430000Y34290000D02*
X15240000Y34290000D01*
X15240000Y34290000D02*
X15240000Y19050000D01*
X15240000Y19050000D02*
X10160000Y19050000D01*
X10160000Y19050000D02*
X10160000Y33020000D01*
X10160000Y33020000D02*
X11430000Y34290000D01*
%TO.C,R11*%
X35560000Y22860000D02*
X37570000Y22860000D01*
X43180000Y22860000D02*
X41170000Y22860000D01*
X37570000Y22060000D02*
X41170000Y22060000D01*
X37570000Y23660000D02*
X37570000Y22060000D01*
X41170000Y23660000D02*
X37570000Y23660000D01*
X41170000Y22060000D02*
X41170000Y23660000D01*
%TD*%
%TO.C,R12*%
D11*
X45434285Y19867620D02*
X44862857Y19867620D01*
X45148571Y19867620D02*
X45148571Y20867620D01*
X45053333Y20724762D01*
X44958095Y20629524D01*
X44862857Y20581905D01*
X45862857Y19867620D02*
X45862857Y20867620D01*
X46196190Y20153334D01*
X46529523Y20867620D01*
X46529523Y19867620D01*
D12*
X38907142Y19994286D02*
X38667142Y20337143D01*
X38495714Y19994286D02*
X38495714Y20714286D01*
X38770000Y20714286D01*
X38838571Y20680000D01*
X38872857Y20645715D01*
X38907142Y20577143D01*
X38907142Y20474286D01*
X38872857Y20405715D01*
X38838571Y20371429D01*
X38770000Y20337143D01*
X38495714Y20337143D01*
X39592857Y19994286D02*
X39181428Y19994286D01*
X39387142Y19994286D02*
X39387142Y20714286D01*
X39318571Y20611429D01*
X39250000Y20542858D01*
X39181428Y20508572D01*
X39867142Y20645715D02*
X39901428Y20680000D01*
X39970000Y20714286D01*
X40141428Y20714286D01*
X40210000Y20680000D01*
X40244285Y20645715D01*
X40278571Y20577143D01*
X40278571Y20508572D01*
X40244285Y20405715D01*
X39832857Y19994286D01*
X40278571Y19994286D01*
%TO.C,R10*%
D11*
X45434285Y24947620D02*
X44862857Y24947620D01*
X45148571Y24947620D02*
X45148571Y25947620D01*
X45053333Y25804762D01*
X44958095Y25709524D01*
X44862857Y25661905D01*
X45862857Y24947620D02*
X45862857Y25947620D01*
X46196190Y25233334D01*
X46529523Y25947620D01*
X46529523Y24947620D01*
D12*
X38907142Y25074286D02*
X38667142Y25417143D01*
X38495714Y25074286D02*
X38495714Y25794286D01*
X38770000Y25794286D01*
X38838571Y25760000D01*
X38872857Y25725715D01*
X38907142Y25657143D01*
X38907142Y25554286D01*
X38872857Y25485715D01*
X38838571Y25451429D01*
X38770000Y25417143D01*
X38495714Y25417143D01*
X39592857Y25074286D02*
X39181428Y25074286D01*
X39387142Y25074286D02*
X39387142Y25794286D01*
X39318571Y25691429D01*
X39250000Y25622858D01*
X39181428Y25588572D01*
X40038571Y25794286D02*
X40107142Y25794286D01*
X40175714Y25760000D01*
X40210000Y25725715D01*
X40244285Y25657143D01*
X40278571Y25520000D01*
X40278571Y25348572D01*
X40244285Y25211429D01*
X40210000Y25142858D01*
X40175714Y25108572D01*
X40107142Y25074286D01*
X40038571Y25074286D01*
X39970000Y25108572D01*
X39935714Y25142858D01*
X39901428Y25211429D01*
X39867142Y25348572D01*
X39867142Y25520000D01*
X39901428Y25657143D01*
X39935714Y25725715D01*
X39970000Y25760000D01*
X40038571Y25794286D01*
%TO.C,R9*%
D11*
X45434285Y27487620D02*
X44862857Y27487620D01*
X45148571Y27487620D02*
X45148571Y28487620D01*
X45053333Y28344762D01*
X44958095Y28249524D01*
X44862857Y28201905D01*
X45862857Y27487620D02*
X45862857Y28487620D01*
X46196190Y27773334D01*
X46529523Y28487620D01*
X46529523Y27487620D01*
D12*
X39250000Y27614286D02*
X39010000Y27957143D01*
X38838571Y27614286D02*
X38838571Y28334286D01*
X39112857Y28334286D01*
X39181428Y28300000D01*
X39215714Y28265715D01*
X39250000Y28197143D01*
X39250000Y28094286D01*
X39215714Y28025715D01*
X39181428Y27991429D01*
X39112857Y27957143D01*
X38838571Y27957143D01*
X39592857Y27614286D02*
X39730000Y27614286D01*
X39798571Y27648572D01*
X39832857Y27682858D01*
X39901428Y27785715D01*
X39935714Y27922858D01*
X39935714Y28197143D01*
X39901428Y28265715D01*
X39867142Y28300000D01*
X39798571Y28334286D01*
X39661428Y28334286D01*
X39592857Y28300000D01*
X39558571Y28265715D01*
X39524285Y28197143D01*
X39524285Y28025715D01*
X39558571Y27957143D01*
X39592857Y27922858D01*
X39661428Y27888572D01*
X39798571Y27888572D01*
X39867142Y27922858D01*
X39901428Y27957143D01*
X39935714Y28025715D01*
%TO.C,R8*%
D11*
X45434285Y30027620D02*
X44862857Y30027620D01*
X45148571Y30027620D02*
X45148571Y31027620D01*
X45053333Y30884762D01*
X44958095Y30789524D01*
X44862857Y30741905D01*
X45862857Y30027620D02*
X45862857Y31027620D01*
X46196190Y30313334D01*
X46529523Y31027620D01*
X46529523Y30027620D01*
D12*
X39250000Y30154286D02*
X39010000Y30497143D01*
X38838571Y30154286D02*
X38838571Y30874286D01*
X39112857Y30874286D01*
X39181428Y30840000D01*
X39215714Y30805715D01*
X39250000Y30737143D01*
X39250000Y30634286D01*
X39215714Y30565715D01*
X39181428Y30531429D01*
X39112857Y30497143D01*
X38838571Y30497143D01*
X39661428Y30565715D02*
X39592857Y30600000D01*
X39558571Y30634286D01*
X39524285Y30702858D01*
X39524285Y30737143D01*
X39558571Y30805715D01*
X39592857Y30840000D01*
X39661428Y30874286D01*
X39798571Y30874286D01*
X39867142Y30840000D01*
X39901428Y30805715D01*
X39935714Y30737143D01*
X39935714Y30702858D01*
X39901428Y30634286D01*
X39867142Y30600000D01*
X39798571Y30565715D01*
X39661428Y30565715D01*
X39592857Y30531429D01*
X39558571Y30497143D01*
X39524285Y30428572D01*
X39524285Y30291429D01*
X39558571Y30222858D01*
X39592857Y30188572D01*
X39661428Y30154286D01*
X39798571Y30154286D01*
X39867142Y30188572D01*
X39901428Y30222858D01*
X39935714Y30291429D01*
X39935714Y30428572D01*
X39901428Y30497143D01*
X39867142Y30531429D01*
X39798571Y30565715D01*
%TO.C,R7*%
D11*
X45434285Y32567620D02*
X44862857Y32567620D01*
X45148571Y32567620D02*
X45148571Y33567620D01*
X45053333Y33424762D01*
X44958095Y33329524D01*
X44862857Y33281905D01*
X45862857Y32567620D02*
X45862857Y33567620D01*
X46196190Y32853334D01*
X46529523Y33567620D01*
X46529523Y32567620D01*
D12*
X39250000Y32694286D02*
X39010000Y33037143D01*
X38838571Y32694286D02*
X38838571Y33414286D01*
X39112857Y33414286D01*
X39181428Y33380000D01*
X39215714Y33345715D01*
X39250000Y33277143D01*
X39250000Y33174286D01*
X39215714Y33105715D01*
X39181428Y33071429D01*
X39112857Y33037143D01*
X38838571Y33037143D01*
X39490000Y33414286D02*
X39970000Y33414286D01*
X39661428Y32694286D01*
%TO.C,R6*%
D11*
X30194285Y19867620D02*
X29622857Y19867620D01*
X29908571Y19867620D02*
X29908571Y20867620D01*
X29813333Y20724762D01*
X29718095Y20629524D01*
X29622857Y20581905D01*
X30622857Y19867620D02*
X30622857Y20867620D01*
X30956190Y20153334D01*
X31289523Y20867620D01*
X31289523Y19867620D01*
D12*
X24010000Y19994286D02*
X23770000Y20337143D01*
X23598571Y19994286D02*
X23598571Y20714286D01*
X23872857Y20714286D01*
X23941428Y20680000D01*
X23975714Y20645715D01*
X24010000Y20577143D01*
X24010000Y20474286D01*
X23975714Y20405715D01*
X23941428Y20371429D01*
X23872857Y20337143D01*
X23598571Y20337143D01*
X24627142Y20714286D02*
X24490000Y20714286D01*
X24421428Y20680000D01*
X24387142Y20645715D01*
X24318571Y20542858D01*
X24284285Y20405715D01*
X24284285Y20131429D01*
X24318571Y20062858D01*
X24352857Y20028572D01*
X24421428Y19994286D01*
X24558571Y19994286D01*
X24627142Y20028572D01*
X24661428Y20062858D01*
X24695714Y20131429D01*
X24695714Y20302858D01*
X24661428Y20371429D01*
X24627142Y20405715D01*
X24558571Y20440000D01*
X24421428Y20440000D01*
X24352857Y20405715D01*
X24318571Y20371429D01*
X24284285Y20302858D01*
%TO.C,R5*%
D11*
X30194285Y22407620D02*
X29622857Y22407620D01*
X29908571Y22407620D02*
X29908571Y23407620D01*
X29813333Y23264762D01*
X29718095Y23169524D01*
X29622857Y23121905D01*
X30622857Y22407620D02*
X30622857Y23407620D01*
X30956190Y22693334D01*
X31289523Y23407620D01*
X31289523Y22407620D01*
D12*
X24010000Y22534286D02*
X23770000Y22877143D01*
X23598571Y22534286D02*
X23598571Y23254286D01*
X23872857Y23254286D01*
X23941428Y23220000D01*
X23975714Y23185715D01*
X24010000Y23117143D01*
X24010000Y23014286D01*
X23975714Y22945715D01*
X23941428Y22911429D01*
X23872857Y22877143D01*
X23598571Y22877143D01*
X24661428Y23254286D02*
X24318571Y23254286D01*
X24284285Y22911429D01*
X24318571Y22945715D01*
X24387142Y22980000D01*
X24558571Y22980000D01*
X24627142Y22945715D01*
X24661428Y22911429D01*
X24695714Y22842858D01*
X24695714Y22671429D01*
X24661428Y22602858D01*
X24627142Y22568572D01*
X24558571Y22534286D01*
X24387142Y22534286D01*
X24318571Y22568572D01*
X24284285Y22602858D01*
%TO.C,R4*%
D11*
X30194285Y24947620D02*
X29622857Y24947620D01*
X29908571Y24947620D02*
X29908571Y25947620D01*
X29813333Y25804762D01*
X29718095Y25709524D01*
X29622857Y25661905D01*
X30622857Y24947620D02*
X30622857Y25947620D01*
X30956190Y25233334D01*
X31289523Y25947620D01*
X31289523Y24947620D01*
D12*
X24010000Y25074286D02*
X23770000Y25417143D01*
X23598571Y25074286D02*
X23598571Y25794286D01*
X23872857Y25794286D01*
X23941428Y25760000D01*
X23975714Y25725715D01*
X24010000Y25657143D01*
X24010000Y25554286D01*
X23975714Y25485715D01*
X23941428Y25451429D01*
X23872857Y25417143D01*
X23598571Y25417143D01*
X24627142Y25554286D02*
X24627142Y25074286D01*
X24455714Y25828572D02*
X24284285Y25314286D01*
X24730000Y25314286D01*
%TO.C,R3*%
D11*
X30194285Y27487620D02*
X29622857Y27487620D01*
X29908571Y27487620D02*
X29908571Y28487620D01*
X29813333Y28344762D01*
X29718095Y28249524D01*
X29622857Y28201905D01*
X30622857Y27487620D02*
X30622857Y28487620D01*
X30956190Y27773334D01*
X31289523Y28487620D01*
X31289523Y27487620D01*
D12*
X24010000Y27614286D02*
X23770000Y27957143D01*
X23598571Y27614286D02*
X23598571Y28334286D01*
X23872857Y28334286D01*
X23941428Y28300000D01*
X23975714Y28265715D01*
X24010000Y28197143D01*
X24010000Y28094286D01*
X23975714Y28025715D01*
X23941428Y27991429D01*
X23872857Y27957143D01*
X23598571Y27957143D01*
X24250000Y28334286D02*
X24695714Y28334286D01*
X24455714Y28060000D01*
X24558571Y28060000D01*
X24627142Y28025715D01*
X24661428Y27991429D01*
X24695714Y27922858D01*
X24695714Y27751429D01*
X24661428Y27682858D01*
X24627142Y27648572D01*
X24558571Y27614286D01*
X24352857Y27614286D01*
X24284285Y27648572D01*
X24250000Y27682858D01*
%TO.C,R2*%
D11*
X30194285Y30027620D02*
X29622857Y30027620D01*
X29908571Y30027620D02*
X29908571Y31027620D01*
X29813333Y30884762D01*
X29718095Y30789524D01*
X29622857Y30741905D01*
X30622857Y30027620D02*
X30622857Y31027620D01*
X30956190Y30313334D01*
X31289523Y31027620D01*
X31289523Y30027620D01*
D12*
X24010000Y30154286D02*
X23770000Y30497143D01*
X23598571Y30154286D02*
X23598571Y30874286D01*
X23872857Y30874286D01*
X23941428Y30840000D01*
X23975714Y30805715D01*
X24010000Y30737143D01*
X24010000Y30634286D01*
X23975714Y30565715D01*
X23941428Y30531429D01*
X23872857Y30497143D01*
X23598571Y30497143D01*
X24284285Y30805715D02*
X24318571Y30840000D01*
X24387142Y30874286D01*
X24558571Y30874286D01*
X24627142Y30840000D01*
X24661428Y30805715D01*
X24695714Y30737143D01*
X24695714Y30668572D01*
X24661428Y30565715D01*
X24250000Y30154286D01*
X24695714Y30154286D01*
%TO.C,R1*%
D11*
X30194285Y32567620D02*
X29622857Y32567620D01*
X29908571Y32567620D02*
X29908571Y33567620D01*
X29813333Y33424762D01*
X29718095Y33329524D01*
X29622857Y33281905D01*
X30622857Y32567620D02*
X30622857Y33567620D01*
X30956190Y32853334D01*
X31289523Y33567620D01*
X31289523Y32567620D01*
D12*
X24010000Y32694286D02*
X23770000Y33037143D01*
X23598571Y32694286D02*
X23598571Y33414286D01*
X23872857Y33414286D01*
X23941428Y33380000D01*
X23975714Y33345715D01*
X24010000Y33277143D01*
X24010000Y33174286D01*
X23975714Y33105715D01*
X23941428Y33071429D01*
X23872857Y33037143D01*
X23598571Y33037143D01*
X24695714Y32694286D02*
X24284285Y32694286D01*
X24490000Y32694286D02*
X24490000Y33414286D01*
X24421428Y33311429D01*
X24352857Y33242858D01*
X24284285Y33208572D01*
%TO.C,P1*%
D11*
X34853809Y6151620D02*
X34853809Y7151620D01*
X35234761Y7151620D01*
X35330000Y7104000D01*
X35377619Y7056381D01*
X35425238Y6961143D01*
X35425238Y6818286D01*
X35377619Y6723048D01*
X35330000Y6675429D01*
X35234761Y6627810D01*
X34853809Y6627810D01*
X35996666Y6151620D02*
X35901428Y6199239D01*
X35853809Y6246858D01*
X35806190Y6342096D01*
X35806190Y6627810D01*
X35853809Y6723048D01*
X35901428Y6770667D01*
X35996666Y6818286D01*
X36139523Y6818286D01*
X36234761Y6770667D01*
X36282380Y6723048D01*
X36330000Y6627810D01*
X36330000Y6342096D01*
X36282380Y6246858D01*
X36234761Y6199239D01*
X36139523Y6151620D01*
X35996666Y6151620D01*
X36663333Y6818286D02*
X36853809Y6151620D01*
X37044285Y6627810D01*
X37234761Y6151620D01*
X37425238Y6818286D01*
X38187142Y6199239D02*
X38091904Y6151620D01*
X37901428Y6151620D01*
X37806190Y6199239D01*
X37758571Y6294477D01*
X37758571Y6675429D01*
X37806190Y6770667D01*
X37901428Y6818286D01*
X38091904Y6818286D01*
X38187142Y6770667D01*
X38234761Y6675429D01*
X38234761Y6580191D01*
X37758571Y6484953D01*
X38663333Y6151620D02*
X38663333Y6818286D01*
X38663333Y6627810D02*
X38710952Y6723048D01*
X38758571Y6770667D01*
X38853809Y6818286D01*
X38949047Y6818286D01*
%TO.C,P2*%
X55094476Y6437334D02*
X55570666Y6437334D01*
X54999238Y6151620D02*
X55332571Y7151620D01*
X55665904Y6151620D01*
X55999238Y6818286D02*
X55999238Y6151620D01*
X55999238Y6723048D02*
X56046857Y6770667D01*
X56142095Y6818286D01*
X56284952Y6818286D01*
X56380190Y6770667D01*
X56427809Y6675429D01*
X56427809Y6151620D01*
X57332571Y6151620D02*
X57332571Y6675429D01*
X57284952Y6770667D01*
X57189714Y6818286D01*
X56999238Y6818286D01*
X56904000Y6770667D01*
X57332571Y6199239D02*
X57237333Y6151620D01*
X56999238Y6151620D01*
X56904000Y6199239D01*
X56856380Y6294477D01*
X56856380Y6389715D01*
X56904000Y6484953D01*
X56999238Y6532572D01*
X57237333Y6532572D01*
X57332571Y6580191D01*
X57951619Y6151620D02*
X57856380Y6199239D01*
X57808761Y6294477D01*
X57808761Y7151620D01*
X58475428Y6151620D02*
X58380190Y6199239D01*
X58332571Y6246858D01*
X58284952Y6342096D01*
X58284952Y6627810D01*
X58332571Y6723048D01*
X58380190Y6770667D01*
X58475428Y6818286D01*
X58618285Y6818286D01*
X58713523Y6770667D01*
X58761142Y6723048D01*
X58808761Y6627810D01*
X58808761Y6342096D01*
X58761142Y6246858D01*
X58713523Y6199239D01*
X58618285Y6151620D01*
X58475428Y6151620D01*
X59665904Y6818286D02*
X59665904Y6008762D01*
X59618285Y5913524D01*
X59570666Y5865905D01*
X59475428Y5818286D01*
X59332571Y5818286D01*
X59237333Y5865905D01*
X59665904Y6199239D02*
X59570666Y6151620D01*
X59380190Y6151620D01*
X59284952Y6199239D01*
X59237333Y6246858D01*
X59189714Y6342096D01*
X59189714Y6627810D01*
X59237333Y6723048D01*
X59284952Y6770667D01*
X59380190Y6818286D01*
X59570666Y6818286D01*
X59665904Y6770667D01*
%TO.C,P3*%
X28035523Y46029620D02*
X28035523Y47029620D01*
X28273619Y47029620D01*
X28416476Y46982000D01*
X28511714Y46886762D01*
X28559333Y46791524D01*
X28606952Y46601048D01*
X28606952Y46458191D01*
X28559333Y46267715D01*
X28511714Y46172477D01*
X28416476Y46077239D01*
X28273619Y46029620D01*
X28035523Y46029620D01*
X29035523Y46029620D02*
X29035523Y46696286D01*
X29035523Y47029620D02*
X28987904Y46982000D01*
X29035523Y46934381D01*
X29083142Y46982000D01*
X29035523Y47029620D01*
X29035523Y46934381D01*
X29940285Y46696286D02*
X29940285Y45886762D01*
X29892666Y45791524D01*
X29845047Y45743905D01*
X29749809Y45696286D01*
X29606952Y45696286D01*
X29511714Y45743905D01*
X29940285Y46077239D02*
X29845047Y46029620D01*
X29654571Y46029620D01*
X29559333Y46077239D01*
X29511714Y46124858D01*
X29464095Y46220096D01*
X29464095Y46505810D01*
X29511714Y46601048D01*
X29559333Y46648667D01*
X29654571Y46696286D01*
X29845047Y46696286D01*
X29940285Y46648667D01*
X30416476Y46029620D02*
X30416476Y46696286D01*
X30416476Y47029620D02*
X30368857Y46982000D01*
X30416476Y46934381D01*
X30464095Y46982000D01*
X30416476Y47029620D01*
X30416476Y46934381D01*
X30749809Y46696286D02*
X31130761Y46696286D01*
X30892666Y47029620D02*
X30892666Y46172477D01*
X30940285Y46077239D01*
X31035523Y46029620D01*
X31130761Y46029620D01*
X31892666Y46029620D02*
X31892666Y46553429D01*
X31845047Y46648667D01*
X31749809Y46696286D01*
X31559333Y46696286D01*
X31464095Y46648667D01*
X31892666Y46077239D02*
X31797428Y46029620D01*
X31559333Y46029620D01*
X31464095Y46077239D01*
X31416476Y46172477D01*
X31416476Y46267715D01*
X31464095Y46362953D01*
X31559333Y46410572D01*
X31797428Y46410572D01*
X31892666Y46458191D01*
X32511714Y46029620D02*
X32416476Y46077239D01*
X32368857Y46172477D01*
X32368857Y47029620D01*
%TO.C,P4*%
X52419523Y46029620D02*
X52419523Y47029620D01*
X52657619Y47029620D01*
X52800476Y46982000D01*
X52895714Y46886762D01*
X52943333Y46791524D01*
X52990952Y46601048D01*
X52990952Y46458191D01*
X52943333Y46267715D01*
X52895714Y46172477D01*
X52800476Y46077239D01*
X52657619Y46029620D01*
X52419523Y46029620D01*
X53419523Y46029620D02*
X53419523Y46696286D01*
X53419523Y47029620D02*
X53371904Y46982000D01*
X53419523Y46934381D01*
X53467142Y46982000D01*
X53419523Y47029620D01*
X53419523Y46934381D01*
X54324285Y46696286D02*
X54324285Y45886762D01*
X54276666Y45791524D01*
X54229047Y45743905D01*
X54133809Y45696286D01*
X53990952Y45696286D01*
X53895714Y45743905D01*
X54324285Y46077239D02*
X54229047Y46029620D01*
X54038571Y46029620D01*
X53943333Y46077239D01*
X53895714Y46124858D01*
X53848095Y46220096D01*
X53848095Y46505810D01*
X53895714Y46601048D01*
X53943333Y46648667D01*
X54038571Y46696286D01*
X54229047Y46696286D01*
X54324285Y46648667D01*
X54800476Y46029620D02*
X54800476Y46696286D01*
X54800476Y47029620D02*
X54752857Y46982000D01*
X54800476Y46934381D01*
X54848095Y46982000D01*
X54800476Y47029620D01*
X54800476Y46934381D01*
X55133809Y46696286D02*
X55514761Y46696286D01*
X55276666Y47029620D02*
X55276666Y46172477D01*
X55324285Y46077239D01*
X55419523Y46029620D01*
X55514761Y46029620D01*
X56276666Y46029620D02*
X56276666Y46553429D01*
X56229047Y46648667D01*
X56133809Y46696286D01*
X55943333Y46696286D01*
X55848095Y46648667D01*
X56276666Y46077239D02*
X56181428Y46029620D01*
X55943333Y46029620D01*
X55848095Y46077239D01*
X55800476Y46172477D01*
X55800476Y46267715D01*
X55848095Y46362953D01*
X55943333Y46410572D01*
X56181428Y46410572D01*
X56276666Y46458191D01*
X56895714Y46029620D02*
X56800476Y46077239D01*
X56752857Y46172477D01*
X56752857Y47029620D01*
%TO.C,J1*%
X3080952Y17537620D02*
X3080952Y18537620D01*
X3461904Y18537620D01*
X3557142Y18490000D01*
X3604761Y18442381D01*
X3652380Y18347143D01*
X3652380Y18204286D01*
X3604761Y18109048D01*
X3557142Y18061429D01*
X3461904Y18013810D01*
X3080952Y18013810D01*
X4080952Y17537620D02*
X4080952Y18204286D01*
X4080952Y18537620D02*
X4033333Y18490000D01*
X4080952Y18442381D01*
X4128571Y18490000D01*
X4080952Y18537620D01*
X4080952Y18442381D01*
X4557142Y18204286D02*
X4557142Y17537620D01*
X4557142Y18109048D02*
X4604761Y18156667D01*
X4700000Y18204286D01*
X4842857Y18204286D01*
X4938095Y18156667D01*
X4985714Y18061429D01*
X4985714Y17537620D01*
X5461904Y17537620D02*
X5461904Y18537620D01*
X5461904Y18061429D02*
X6033333Y18061429D01*
X6033333Y17537620D02*
X6033333Y18537620D01*
X6890476Y17585239D02*
X6795238Y17537620D01*
X6604761Y17537620D01*
X6509523Y17585239D01*
X6461904Y17680477D01*
X6461904Y18061429D01*
X6509523Y18156667D01*
X6604761Y18204286D01*
X6795238Y18204286D01*
X6890476Y18156667D01*
X6938095Y18061429D01*
X6938095Y17966191D01*
X6461904Y17870953D01*
X7795238Y17537620D02*
X7795238Y18061429D01*
X7747619Y18156667D01*
X7652380Y18204286D01*
X7461904Y18204286D01*
X7366666Y18156667D01*
X7795238Y17585239D02*
X7700000Y17537620D01*
X7461904Y17537620D01*
X7366666Y17585239D01*
X7319047Y17680477D01*
X7319047Y17775715D01*
X7366666Y17870953D01*
X7461904Y17918572D01*
X7700000Y17918572D01*
X7795238Y17966191D01*
X8700000Y17537620D02*
X8700000Y18537620D01*
X8700000Y17585239D02*
X8604761Y17537620D01*
X8414285Y17537620D01*
X8319047Y17585239D01*
X8271428Y17632858D01*
X8223809Y17728096D01*
X8223809Y18013810D01*
X8271428Y18109048D01*
X8319047Y18156667D01*
X8414285Y18204286D01*
X8604761Y18204286D01*
X8700000Y18156667D01*
X9557142Y17585239D02*
X9461904Y17537620D01*
X9271428Y17537620D01*
X9176190Y17585239D01*
X9128571Y17680477D01*
X9128571Y18061429D01*
X9176190Y18156667D01*
X9271428Y18204286D01*
X9461904Y18204286D01*
X9557142Y18156667D01*
X9604761Y18061429D01*
X9604761Y17966191D01*
X9128571Y17870953D01*
X10033333Y17537620D02*
X10033333Y18204286D01*
X10033333Y18013810D02*
X10080952Y18109048D01*
X10128571Y18156667D01*
X10223809Y18204286D01*
X10319047Y18204286D01*
X10414285Y17442381D02*
X11176190Y17442381D01*
X11604761Y18537620D02*
X11700000Y18537620D01*
X11795238Y18490000D01*
X11842857Y18442381D01*
X11890476Y18347143D01*
X11938095Y18156667D01*
X11938095Y17918572D01*
X11890476Y17728096D01*
X11842857Y17632858D01*
X11795238Y17585239D01*
X11700000Y17537620D01*
X11604761Y17537620D01*
X11509523Y17585239D01*
X11461904Y17632858D01*
X11414285Y17728096D01*
X11366666Y17918572D01*
X11366666Y18156667D01*
X11414285Y18347143D01*
X11461904Y18442381D01*
X11509523Y18490000D01*
X11604761Y18537620D01*
X12319047Y18442381D02*
X12366666Y18490000D01*
X12461904Y18537620D01*
X12700000Y18537620D01*
X12795238Y18490000D01*
X12842857Y18442381D01*
X12890476Y18347143D01*
X12890476Y18251905D01*
X12842857Y18109048D01*
X12271428Y17537620D01*
X12890476Y17537620D01*
X13223809Y17537620D02*
X13747619Y18204286D01*
X13223809Y18204286D02*
X13747619Y17537620D01*
X14319047Y18537620D02*
X14414285Y18537620D01*
X14509523Y18490000D01*
X14557142Y18442381D01*
X14604761Y18347143D01*
X14652380Y18156667D01*
X14652380Y17918572D01*
X14604761Y17728096D01*
X14557142Y17632858D01*
X14509523Y17585239D01*
X14414285Y17537620D01*
X14319047Y17537620D01*
X14223809Y17585239D01*
X14176190Y17632858D01*
X14128571Y17728096D01*
X14080952Y17918572D01*
X14080952Y18156667D01*
X14128571Y18347143D01*
X14176190Y18442381D01*
X14223809Y18490000D01*
X14319047Y18537620D01*
X15509523Y18537620D02*
X15319047Y18537620D01*
X15223809Y18490000D01*
X15176190Y18442381D01*
X15080952Y18299524D01*
X15033333Y18109048D01*
X15033333Y17728096D01*
X15080952Y17632858D01*
X15128571Y17585239D01*
X15223809Y17537620D01*
X15414285Y17537620D01*
X15509523Y17585239D01*
X15557142Y17632858D01*
X15604761Y17728096D01*
X15604761Y17966191D01*
X15557142Y18061429D01*
X15509523Y18109048D01*
X15414285Y18156667D01*
X15223809Y18156667D01*
X15128571Y18109048D01*
X15080952Y18061429D01*
X15033333Y17966191D01*
X15795238Y17442381D02*
X16557142Y17442381D01*
X16747619Y18442381D02*
X16795238Y18490000D01*
X16890476Y18537620D01*
X17128571Y18537620D01*
X17223809Y18490000D01*
X17271428Y18442381D01*
X17319047Y18347143D01*
X17319047Y18251905D01*
X17271428Y18109048D01*
X16700000Y17537620D01*
X17319047Y17537620D01*
X17747619Y17632858D02*
X17795238Y17585239D01*
X17747619Y17537620D01*
X17700000Y17585239D01*
X17747619Y17632858D01*
X17747619Y17537620D01*
X18700000Y18537620D02*
X18223809Y18537620D01*
X18176190Y18061429D01*
X18223809Y18109048D01*
X18319047Y18156667D01*
X18557142Y18156667D01*
X18652380Y18109048D01*
X18700000Y18061429D01*
X18747619Y17966191D01*
X18747619Y17728096D01*
X18700000Y17632858D01*
X18652380Y17585239D01*
X18557142Y17537620D01*
X18319047Y17537620D01*
X18223809Y17585239D01*
X18176190Y17632858D01*
X19604761Y18204286D02*
X19604761Y17537620D01*
X19366666Y18585239D02*
X19128571Y17870953D01*
X19747619Y17870953D01*
X20128571Y17537620D02*
X20128571Y18204286D01*
X20128571Y18109048D02*
X20176190Y18156667D01*
X20271428Y18204286D01*
X20414285Y18204286D01*
X20509523Y18156667D01*
X20557142Y18061429D01*
X20557142Y17537620D01*
X20557142Y18061429D02*
X20604761Y18156667D01*
X20700000Y18204286D01*
X20842857Y18204286D01*
X20938095Y18156667D01*
X20985714Y18061429D01*
X20985714Y17537620D01*
X21461904Y17537620D02*
X21461904Y18204286D01*
X21461904Y18109048D02*
X21509523Y18156667D01*
X21604761Y18204286D01*
X21747619Y18204286D01*
X21842857Y18156667D01*
X21890476Y18061429D01*
X21890476Y17537620D01*
X21890476Y18061429D02*
X21938095Y18156667D01*
X22033333Y18204286D01*
X22176190Y18204286D01*
X22271428Y18156667D01*
X22319047Y18061429D01*
X22319047Y17537620D01*
X12152380Y26336667D02*
X12866666Y26336667D01*
X13009523Y26289048D01*
X13104761Y26193810D01*
X13152380Y26050953D01*
X13152380Y25955715D01*
X13152380Y27336667D02*
X13152380Y26765239D01*
X13152380Y27050953D02*
X12152380Y27050953D01*
X12295238Y26955715D01*
X12390476Y26860477D01*
X12438095Y26765239D01*
%TO.C,R11*%
X45434285Y22407620D02*
X44862857Y22407620D01*
X45148571Y22407620D02*
X45148571Y23407620D01*
X45053333Y23264762D01*
X44958095Y23169524D01*
X44862857Y23121905D01*
X45862857Y22407620D02*
X45862857Y23407620D01*
X46196190Y22693334D01*
X46529523Y23407620D01*
X46529523Y22407620D01*
D12*
X38907142Y22534286D02*
X38667142Y22877143D01*
X38495714Y22534286D02*
X38495714Y23254286D01*
X38770000Y23254286D01*
X38838571Y23220000D01*
X38872857Y23185715D01*
X38907142Y23117143D01*
X38907142Y23014286D01*
X38872857Y22945715D01*
X38838571Y22911429D01*
X38770000Y22877143D01*
X38495714Y22877143D01*
X39592857Y22534286D02*
X39181428Y22534286D01*
X39387142Y22534286D02*
X39387142Y23254286D01*
X39318571Y23151429D01*
X39250000Y23082858D01*
X39181428Y23048572D01*
X40278571Y22534286D02*
X39867142Y22534286D01*
X40072857Y22534286D02*
X40072857Y23254286D01*
X40004285Y23151429D01*
X39935714Y23082858D01*
X39867142Y23048572D01*
%TD*%
M02*
