%TF.GenerationSoftware,KiCad,Pcbnew,5.1.6-c6e7f7d~87~ubuntu18.04.1*%
%TF.CreationDate,2020-08-10T15:18:34+02:00*%
%TF.ProjectId,uno-analog-input,756e6f2d-616e-4616-9c6f-672d696e7075,1.0*%
%TF.SameCoordinates,PX69db1f0PY7882d48*%
%TF.FileFunction,Other,User*%
%FSLAX46Y46*%
G04 Gerber Fmt 4.6, Leading zero omitted, Abs format (unit mm)*
G04 Created by KiCad (PCBNEW 5.1.6-c6e7f7d~87~ubuntu18.04.1) date 2020-08-10 15:18:34*
%MOMM*%
%LPD*%
G01*
G04 APERTURE LIST*
%ADD10C,0.050000*%
G04 APERTURE END LIST*
D10*
%TO.C,R12*%
X44130000Y19270000D02*
X44130000Y21370000D01*
X44130000Y21370000D02*
X34610000Y21370000D01*
X34610000Y21370000D02*
X34610000Y19270000D01*
X34610000Y19270000D02*
X44130000Y19270000D01*
%TO.C,R10*%
X44130000Y24350000D02*
X44130000Y26450000D01*
X44130000Y26450000D02*
X34610000Y26450000D01*
X34610000Y26450000D02*
X34610000Y24350000D01*
X34610000Y24350000D02*
X44130000Y24350000D01*
%TO.C,R9*%
X44130000Y26890000D02*
X44130000Y28990000D01*
X44130000Y28990000D02*
X34610000Y28990000D01*
X34610000Y28990000D02*
X34610000Y26890000D01*
X34610000Y26890000D02*
X44130000Y26890000D01*
%TO.C,R8*%
X44130000Y29430000D02*
X44130000Y31530000D01*
X44130000Y31530000D02*
X34610000Y31530000D01*
X34610000Y31530000D02*
X34610000Y29430000D01*
X34610000Y29430000D02*
X44130000Y29430000D01*
%TO.C,R7*%
X44130000Y31970000D02*
X44130000Y34070000D01*
X44130000Y34070000D02*
X34610000Y34070000D01*
X34610000Y34070000D02*
X34610000Y31970000D01*
X34610000Y31970000D02*
X44130000Y31970000D01*
%TO.C,R6*%
X28890000Y19270000D02*
X28890000Y21370000D01*
X28890000Y21370000D02*
X19370000Y21370000D01*
X19370000Y21370000D02*
X19370000Y19270000D01*
X19370000Y19270000D02*
X28890000Y19270000D01*
%TO.C,R5*%
X28890000Y21810000D02*
X28890000Y23910000D01*
X28890000Y23910000D02*
X19370000Y23910000D01*
X19370000Y23910000D02*
X19370000Y21810000D01*
X19370000Y21810000D02*
X28890000Y21810000D01*
%TO.C,R4*%
X28890000Y24350000D02*
X28890000Y26450000D01*
X28890000Y26450000D02*
X19370000Y26450000D01*
X19370000Y26450000D02*
X19370000Y24350000D01*
X19370000Y24350000D02*
X28890000Y24350000D01*
%TO.C,R3*%
X28890000Y26890000D02*
X28890000Y28990000D01*
X28890000Y28990000D02*
X19370000Y28990000D01*
X19370000Y28990000D02*
X19370000Y26890000D01*
X19370000Y26890000D02*
X28890000Y26890000D01*
%TO.C,R2*%
X28890000Y29430000D02*
X28890000Y31530000D01*
X28890000Y31530000D02*
X19370000Y31530000D01*
X19370000Y31530000D02*
X19370000Y29430000D01*
X19370000Y29430000D02*
X28890000Y29430000D01*
%TO.C,R1*%
X28890000Y31970000D02*
X28890000Y34070000D01*
X28890000Y34070000D02*
X19370000Y34070000D01*
X19370000Y34070000D02*
X19370000Y31970000D01*
X19370000Y31970000D02*
X28890000Y31970000D01*
%TO.C,P1*%
X26190000Y4290000D02*
X26190000Y790000D01*
X47490000Y4290000D02*
X47490000Y790000D01*
X26190000Y4290000D02*
X47490000Y4290000D01*
X26190000Y790000D02*
X47490000Y790000D01*
%TO.C,P2*%
X49050000Y4290000D02*
X49050000Y790000D01*
X65250000Y4290000D02*
X65250000Y790000D01*
X49050000Y4290000D02*
X65250000Y4290000D01*
X49050000Y790000D02*
X65250000Y790000D01*
%TO.C,P3*%
X17046000Y52550000D02*
X17046000Y49050000D01*
X43446000Y52550000D02*
X43446000Y49050000D01*
X17046000Y52550000D02*
X43446000Y52550000D01*
X17046000Y49050000D02*
X43446000Y49050000D01*
%TO.C,P4*%
X43970000Y52550000D02*
X43970000Y49050000D01*
X65270000Y52550000D02*
X65270000Y49050000D01*
X43970000Y52550000D02*
X65270000Y52550000D01*
X43970000Y49050000D02*
X65270000Y49050000D01*
%TO.C,J1*%
X9630000Y34820000D02*
X9630000Y18520000D01*
X9630000Y18520000D02*
X15780000Y18520000D01*
X15780000Y18520000D02*
X15780000Y34820000D01*
X15780000Y34820000D02*
X9630000Y34820000D01*
%TO.C,R11*%
X34610000Y21810000D02*
X44130000Y21810000D01*
X34610000Y23910000D02*
X34610000Y21810000D01*
X44130000Y23910000D02*
X34610000Y23910000D01*
X44130000Y21810000D02*
X44130000Y23910000D01*
%TD*%
M02*
