%TF.GenerationSoftware,KiCad,Pcbnew,5.1.6-c6e7f7d~87~ubuntu18.04.1*%
%TF.CreationDate,2020-08-09T15:00:25+02:00*%
%TF.ProjectId,uno-analog-input,756e6f2d-616e-4616-9c6f-672d696e7075,rev?*%
%TF.SameCoordinates,PX69db1f0PY7882d48*%
%TF.FileFunction,Other,User*%
%FSLAX46Y46*%
G04 Gerber Fmt 4.6, Leading zero omitted, Abs format (unit mm)*
G04 Created by KiCad (PCBNEW 5.1.6-c6e7f7d~87~ubuntu18.04.1) date 2020-08-09 15:00:25*
%MOMM*%
%LPD*%
G01*
G04 APERTURE LIST*
%ADD10C,0.050000*%
G04 APERTURE END LIST*
D10*
%TO.C,P1*%
X26190000Y4290000D02*
X26190000Y790000D01*
X47490000Y4290000D02*
X47490000Y790000D01*
X26190000Y4290000D02*
X47490000Y4290000D01*
X26190000Y790000D02*
X47490000Y790000D01*
%TO.C,P2*%
X49050000Y4290000D02*
X49050000Y790000D01*
X65250000Y4290000D02*
X65250000Y790000D01*
X49050000Y4290000D02*
X65250000Y4290000D01*
X49050000Y790000D02*
X65250000Y790000D01*
%TO.C,P3*%
X17046000Y52550000D02*
X17046000Y49050000D01*
X43446000Y52550000D02*
X43446000Y49050000D01*
X17046000Y52550000D02*
X43446000Y52550000D01*
X17046000Y49050000D02*
X43446000Y49050000D01*
%TO.C,P4*%
X43970000Y52550000D02*
X43970000Y49050000D01*
X65270000Y52550000D02*
X65270000Y49050000D01*
X43970000Y52550000D02*
X65270000Y52550000D01*
X43970000Y49050000D02*
X65270000Y49050000D01*
%TO.C,C1*%
X33240000Y34220000D02*
X33240000Y31820000D01*
X33240000Y31820000D02*
X40340000Y31820000D01*
X40340000Y31820000D02*
X40340000Y34220000D01*
X40340000Y34220000D02*
X33240000Y34220000D01*
%TO.C,C2*%
X40340000Y31680000D02*
X33240000Y31680000D01*
X40340000Y29280000D02*
X40340000Y31680000D01*
X33240000Y29280000D02*
X40340000Y29280000D01*
X33240000Y31680000D02*
X33240000Y29280000D01*
%TO.C,C3*%
X33240000Y29140000D02*
X33240000Y26740000D01*
X33240000Y26740000D02*
X40340000Y26740000D01*
X40340000Y26740000D02*
X40340000Y29140000D01*
X40340000Y29140000D02*
X33240000Y29140000D01*
%TO.C,C4*%
X40340000Y26600000D02*
X33240000Y26600000D01*
X40340000Y24200000D02*
X40340000Y26600000D01*
X33240000Y24200000D02*
X40340000Y24200000D01*
X33240000Y26600000D02*
X33240000Y24200000D01*
%TO.C,C5*%
X33240000Y24060000D02*
X33240000Y21660000D01*
X33240000Y21660000D02*
X40340000Y21660000D01*
X40340000Y21660000D02*
X40340000Y24060000D01*
X40340000Y24060000D02*
X33240000Y24060000D01*
%TO.C,C6*%
X40340000Y21520000D02*
X33240000Y21520000D01*
X40340000Y19120000D02*
X40340000Y21520000D01*
X33240000Y19120000D02*
X40340000Y19120000D01*
X33240000Y21520000D02*
X33240000Y19120000D01*
%TO.C,J1*%
X9630000Y34820000D02*
X9630000Y18520000D01*
X9630000Y18520000D02*
X15780000Y18520000D01*
X15780000Y18520000D02*
X15780000Y34820000D01*
X15780000Y34820000D02*
X9630000Y34820000D01*
%TO.C,R1*%
X18100000Y31970000D02*
X27620000Y31970000D01*
X18100000Y34070000D02*
X18100000Y31970000D01*
X27620000Y34070000D02*
X18100000Y34070000D01*
X27620000Y31970000D02*
X27620000Y34070000D01*
%TO.C,R2*%
X27620000Y29430000D02*
X27620000Y31530000D01*
X27620000Y31530000D02*
X18100000Y31530000D01*
X18100000Y31530000D02*
X18100000Y29430000D01*
X18100000Y29430000D02*
X27620000Y29430000D01*
%TO.C,R3*%
X18100000Y26890000D02*
X27620000Y26890000D01*
X18100000Y28990000D02*
X18100000Y26890000D01*
X27620000Y28990000D02*
X18100000Y28990000D01*
X27620000Y26890000D02*
X27620000Y28990000D01*
%TO.C,R4*%
X27620000Y24350000D02*
X27620000Y26450000D01*
X27620000Y26450000D02*
X18100000Y26450000D01*
X18100000Y26450000D02*
X18100000Y24350000D01*
X18100000Y24350000D02*
X27620000Y24350000D01*
%TO.C,R5*%
X18100000Y21810000D02*
X27620000Y21810000D01*
X18100000Y23910000D02*
X18100000Y21810000D01*
X27620000Y23910000D02*
X18100000Y23910000D01*
X27620000Y21810000D02*
X27620000Y23910000D01*
%TO.C,R6*%
X27620000Y19270000D02*
X27620000Y21370000D01*
X27620000Y21370000D02*
X18100000Y21370000D01*
X18100000Y21370000D02*
X18100000Y19270000D01*
X18100000Y19270000D02*
X27620000Y19270000D01*
%TD*%
M02*
